# Blender 5.1.2
# www.blender.org
mtllib bladekeylislis.mtl
o RenderMesh_97011813412283
v 0.070694 0.461245 0.014306
v 0.070385 0.410564 0.014356
v 0.089871 0.421657 -0.000000
v 0.132371 0.410564 0.014264
v 0.148106 0.421657 -0.000000
v 0.091699 0.467989 -0.000000
v 0.031322 0.512209 0.014341
v 0.031322 0.542576 -0.000000
v 0.091699 0.467989 -0.000000
v 0.031322 0.512209 -0.014341
v 0.031322 0.542576 -0.000000
v 0.070694 0.461245 -0.014306
v 0.089871 0.421657 -0.000000
v 0.070385 0.410564 -0.014356
v 0.132371 0.410564 -0.014264
v 0.148106 0.421657 -0.000000
v 0.132371 0.410564 0.014264
v 0.132371 0.361350 0.014264
v 0.148106 0.350263 -0.000000
v 0.148106 0.421657 -0.000000
v 0.132371 0.268648 0.014263
v 0.148099 0.321024 -0.000000
v 0.132371 0.310332 0.014263
v 0.148099 0.257923 -0.000000
v 0.148099 0.321024 -0.000000
v 0.132371 0.268648 -0.014263
v 0.132371 0.310332 -0.014263
v 0.148099 0.257923 -0.000000
v 0.132371 0.410564 -0.014264
v 0.148106 0.350263 -0.000000
v 0.132371 0.361350 -0.014264
v 0.148106 0.421657 -0.000000
v 0.031322 0.512209 -0.014341
v 0.031322 0.088297 0.014310
v 0.031322 0.512209 0.014341
v 0.031322 0.088297 -0.014355
v 0.031322 0.542576 -0.000000
v 0.070436 0.310332 0.014349
v 0.089864 0.350263 -0.000000
v 0.070392 0.361350 0.014353
v 0.132371 0.361350 0.014264
v 0.148106 0.350263 -0.000000
v 0.090375 0.321024 -0.000000
v 0.132371 0.310332 0.014263
v 0.148099 0.321024 -0.000000
v 0.070392 0.361350 -0.014353
v 0.132371 0.361350 -0.014264
v 0.089864 0.350263 -0.000000
v 0.148106 0.350263 -0.000000
v 0.070436 0.310332 -0.014349
v 0.090375 0.321024 -0.000000
v 0.132371 0.310332 -0.014263
v 0.148099 0.321024 -0.000000
v -0.027001 -0.381191 0.000000
v 0.075010 -0.364339 -0.014276
v 0.087159 -0.381191 0.000000
v -0.014853 -0.364339 -0.014276
v 0.108857 -0.306975 -0.014288
v -0.048699 -0.306975 -0.014288
v 0.131010 -0.305564 0.000000
v -0.070852 -0.305564 0.000000
v 0.092126 -0.244269 0.000000
v -0.031969 -0.244269 0.000000
v 0.070505 -0.249801 -0.014354
v -0.010341 -0.249801 -0.014356
v 0.070488 -0.143244 -0.014354
v -0.010506 0.461263 -0.014313
v 0.091753 -0.142302 0.000000
v -0.031541 0.467980 -0.000000
v 0.002144 0.477143 -0.014321
v 0.002144 0.508759 -0.000000
v 0.058629 -0.122172 0.000000
v 0.037483 -0.120937 -0.014354
v 0.058505 0.007205 0.000000
v 0.037478 0.011652 -0.014354
v 0.069954 0.033312 -0.014353
v 0.095139 0.029664 0.000000
v 0.095139 0.257923 -0.000000
v 0.069954 0.268648 -0.014353
v 0.132371 0.268648 -0.014263
v 0.148099 0.257923 -0.000000
v 0.087159 -0.381191 0.000000
v 0.108857 -0.306975 0.014288
v 0.075010 -0.364339 0.014276
v 0.131010 -0.305564 0.000000
v -0.027001 -0.381191 0.000000
v 0.092126 -0.244269 0.000000
v -0.014853 -0.364339 0.014276
v 0.070505 -0.249801 0.014354
v -0.048699 -0.306975 0.014288
v 0.070488 -0.143244 0.014354
v -0.070852 -0.305564 0.000000
v 0.091753 -0.142302 0.000000
v -0.031969 -0.244269 0.000000
v 0.058629 -0.122172 0.000000
v -0.010341 -0.249801 0.014356
v 0.037483 -0.120937 0.014354
v -0.010506 0.461263 0.014313
v 0.058505 0.007205 0.000000
v -0.031541 0.467980 -0.000000
v 0.002144 0.477143 0.014321
v 0.002144 0.508759 -0.000000
v 0.037478 0.011652 0.014354
v 0.069954 0.033312 0.014353
v 0.095139 0.029664 0.000000
v 0.095139 0.257923 -0.000000
v 0.069954 0.268648 0.014353
v 0.132371 0.268648 0.014263
v 0.148099 0.257923 -0.000000
v 0.070505 -0.249801 0.014354
v 0.075010 -0.364339 0.014276
v 0.108857 -0.306975 0.014288
v -0.010341 -0.249801 0.014356
v 0.070488 -0.143244 0.014354
v -0.014853 -0.364339 0.014276
v -0.048699 -0.306975 0.014288
v 0.037483 -0.120937 0.014354
v 0.002144 0.088297 0.014354
v -0.010506 0.461263 0.014313
v 0.002144 0.477143 0.014321
v 0.037478 0.011652 0.014354
v 0.031322 0.088297 0.014310
v 0.069954 0.033312 0.014353
v 0.069954 0.268648 0.014353
v 0.070436 0.310332 0.014349
v 0.132371 0.268648 0.014263
v 0.132371 0.310332 0.014263
v 0.031322 0.512209 0.014341
v 0.070392 0.361350 0.014353
v 0.070385 0.410564 0.014356
v 0.070694 0.461245 0.014306
v 0.132371 0.410564 0.014264
v 0.132371 0.361350 0.014264
v 0.132371 0.410564 -0.014264
v 0.070392 0.361350 -0.014353
v 0.070385 0.410564 -0.014356
v 0.132371 0.361350 -0.014264
v 0.031322 0.512209 -0.014341
v 0.070694 0.461245 -0.014306
v 0.070436 0.310332 -0.014349
v 0.031322 0.088297 -0.014355
v 0.132371 0.268648 -0.014263
v 0.132371 0.310332 -0.014263
v 0.069954 0.268648 -0.014353
v 0.069954 0.033312 -0.014353
v 0.037478 0.011652 -0.014354
v 0.002144 0.088297 -0.014350
v 0.037483 -0.120937 -0.014354
v 0.002144 0.477143 -0.014321
v -0.010506 0.461263 -0.014313
v -0.010341 -0.249801 -0.014356
v 0.070488 -0.143244 -0.014354
v 0.070505 -0.249801 -0.014354
v 0.075010 -0.364339 -0.014276
v 0.108857 -0.306975 -0.014288
v -0.014853 -0.364339 -0.014276
v -0.048699 -0.306975 -0.014288
v 0.002144 0.088297 -0.014350
v 0.031322 0.088297 0.014310
v 0.031322 0.088297 -0.014355
v 0.002144 0.088297 0.014354
v 0.002144 0.088297 -0.014350
v 0.002144 0.477143 0.014321
v 0.002144 0.088297 0.014354
v 0.002144 0.477143 -0.014321
v 0.002144 0.508759 -0.000000
vn 0.5309 0.1811 0.8279
vn 0.4029 0.3530 0.8444
vn 0.3092 0.4879 0.8163
vn 0.0005 0.7900 0.6132
vn 0.0005 0.7899 0.6132
vn 0.5312 0.1782 0.8283
vn 0.4598 0.3649 0.8096
vn 0.5312 0.1782 -0.8283
vn 0.4598 0.3649 -0.8096
vn 0.5309 0.1811 -0.8279
vn 0.3092 0.4879 -0.8163
vn 0.4029 0.3530 -0.8444
vn 0.0005 0.7900 -0.6132
vn 0.0005 0.7900 -0.6131
vn 0.6716 -0.0000 0.7409
vn 0.6716 0.0003 0.7409
vn 0.6718 -0.0000 0.7408
vn 0.6716 0.0004 0.7409
vn 0.6716 0.0004 -0.7409
vn 0.6715 0.0006 -0.7410
vn 0.6716 -0.0000 -0.7409
vn 0.6716 0.0005 -0.7409
vn 0.6716 0.0003 -0.7409
vn -1.0000 0.0003 0.0004
vn -1.0000 0.0003 0.0005
vn 0.4158 0.3580 0.8360
vn 0.3113 -0.4942 0.8117
vn 0.4089 -0.3572 0.8398
vn 0.0005 -0.7900 0.6131
vn 0.3062 0.5122 0.8024
vn 0.0004 0.8005 0.5994
vn 0.0004 0.8004 0.5994
vn 0.4089 -0.3572 -0.8398
vn 0.0005 -0.7900 -0.6131
vn 0.3113 -0.4942 -0.8117
vn 0.4158 0.3581 -0.8360
vn 0.3062 0.5122 -0.8024
vn 0.0001 0.8003 -0.5995
vn 0.0003 0.8004 -0.5995
vn -0.2945 -0.4890 -0.8210
vn 0.2643 -0.5087 -0.8194
vn 0.2945 -0.4890 -0.8210
vn -0.2643 -0.5087 -0.8194
vn 0.5309 0.0004 -0.8474
vn -0.5310 0.0004 -0.8474
vn 0.5301 0.0150 -0.8478
vn -0.5301 0.0150 -0.8478
vn 0.5260 0.1625 -0.8348
vn -0.5272 0.1626 -0.8340
vn 0.5281 0.1557 -0.8348
vn -0.5293 0.1548 -0.8342
vn 0.5103 0.4145 -0.7535
vn -0.5106 0.1880 -0.8390
vn 0.5418 0.2427 -0.8047
vn -0.5127 0.1821 -0.8390
vn -0.4469 0.3646 -0.8169
vn 0.5085 0.4302 -0.7459
vn 0.5486 0.2271 -0.8046
vn 0.4717 -0.3320 -0.8169
vn 0.5036 -0.2400 -0.8299
vn 0.4379 -0.3395 -0.8325
vn 0.4655 -0.2165 -0.8582
vn 0.2456 -0.5185 -0.8190
vn 0.3708 -0.3038 -0.8776
vn 0.0005 -0.7998 -0.6003
vn 0.0005 -0.7997 -0.6003
vn 0.2945 -0.4890 0.8210
vn 0.5309 0.0004 0.8474
vn 0.2643 -0.5087 0.8194
vn 0.5301 0.0150 0.8478
vn -0.2945 -0.4890 0.8210
vn 0.5261 0.1625 0.8348
vn -0.2643 -0.5087 0.8194
vn 0.5281 0.1557 0.8348
vn -0.5310 0.0004 0.8474
vn 0.5103 0.4145 0.7535
vn -0.5301 0.0150 0.8478
vn 0.5418 0.2427 0.8047
vn -0.5272 0.1626 0.8340
vn 0.5085 0.4302 0.7459
vn -0.5293 0.1548 0.8342
vn 0.5486 0.2271 0.8046
vn -0.5106 0.1880 0.8390
vn 0.4717 -0.3320 0.8169
vn -0.5127 0.1821 0.8390
vn -0.4469 0.3646 0.8169
vn -0.4468 0.3646 0.8170
vn 0.5036 -0.2400 0.8299
vn 0.4379 -0.3395 0.8325
vn 0.4655 -0.2165 0.8582
vn 0.2456 -0.5185 0.8190
vn 0.3707 -0.3035 0.8777
vn 0.0005 -0.7998 0.6003
vn 0.0005 -0.7997 0.6003
vn -0.0004 0.0003 1.0000
vn -0.0005 0.0004 1.0000
vn -0.0003 -0.0000 1.0000
vn -0.0005 0.0002 1.0000
vn -0.0005 0.0003 1.0000
vn -0.0006 0.0002 1.0000
vn -0.0007 0.0001 1.0000
vn -0.0003 0.0003 1.0000
vn -0.0001 0.0003 1.0000
vn -0.0006 0.0004 1.0000
vn -0.0006 0.0001 1.0000
vn -0.0004 0.0004 1.0000
vn 0.0006 0.0003 -1.0000
vn 0.0004 0.0003 -1.0000
vn 0.0003 -0.0000 -1.0000
vn 0.0005 0.0003 -1.0000
vn 0.0005 0.0004 -1.0000
vn 0.0004 -0.0000 -1.0000
vn 0.0002 0.0002 -1.0000
vn 0.0002 0.0001 -1.0000
vn 0.0004 0.0004 -1.0000
vn 0.0003 0.0001 -1.0000
vn 0.0004 0.0002 -1.0000
vn 0.0004 1.0000 0.0004
vn 0.0005 1.0000 0.0005
vn 1.0000 0.0003 0.0004
vn 1.0000 0.0003 0.0005
vt 0.000000 0.000000
s 1
f 1/1/1 2/1/2 3/1/3
f 2/1/2 4/1/4 3/1/3
f 5/1/5 3/1/3 4/1/4
f 3/1/3 6/1/6 1/1/1
f 6/1/6 7/1/7 1/1/1
f 6/1/6 8/1/7 7/1/7
f 9/1/8 10/1/9 11/1/9
f 10/1/9 9/1/8 12/1/10
f 13/1/11 12/1/10 9/1/8
f 12/1/10 13/1/11 14/1/12
f 13/1/11 15/1/13 14/1/12
f 15/1/13 13/1/11 16/1/14
f 17/1/15 18/1/16 19/1/15
f 19/1/15 20/1/15 17/1/15
f 21/1/17 22/1/17 23/1/18
f 22/1/17 21/1/17 24/1/18
f 25/1/19 26/1/19 27/1/19
f 25/1/19 28/1/20 26/1/19
f 29/1/21 30/1/21 31/1/22
f 30/1/21 29/1/21 32/1/23
f 33/1/24 34/1/24 35/1/24
f 34/1/24 33/1/24 36/1/25
f 35/1/24 37/1/24 33/1/24
f 38/1/26 39/1/27 40/1/28
f 39/1/27 41/1/29 40/1/28
f 41/1/29 39/1/27 42/1/29
f 39/1/27 38/1/26 43/1/30
f 38/1/26 44/1/31 43/1/30
f 45/1/32 43/1/30 44/1/31
f 46/1/33 47/1/34 48/1/35
f 48/1/35 47/1/34 49/1/34
f 48/1/35 50/1/36 46/1/33
f 50/1/36 48/1/35 51/1/37
f 51/1/37 52/1/38 50/1/36
f 52/1/38 51/1/37 53/1/39
f 54/1/40 55/1/41 56/1/42
f 55/1/41 54/1/40 57/1/43
f 58/1/44 56/1/42 55/1/41
f 54/1/40 59/1/45 57/1/43
f 60/1/46 56/1/42 58/1/44
f 59/1/45 54/1/40 61/1/47
f 58/1/44 62/1/48 60/1/46
f 63/1/49 59/1/45 61/1/47
f 62/1/48 58/1/44 64/1/50
f 59/1/45 63/1/49 65/1/51
f 66/1/52 62/1/48 64/1/50
f 63/1/49 67/1/53 65/1/51
f 62/1/48 66/1/52 68/1/54
f 67/1/53 63/1/49 69/1/55
f 69/1/55 70/1/56 67/1/53
f 70/1/56 69/1/55 71/1/56
f 72/1/57 68/1/54 66/1/52
f 73/1/58 72/1/57 66/1/52
f 73/1/58 74/1/59 72/1/57
f 74/1/59 73/1/58 75/1/60
f 76/1/61 74/1/59 75/1/60
f 74/1/59 76/1/61 77/1/62
f 76/1/61 78/1/63 77/1/62
f 78/1/63 76/1/61 79/1/64
f 79/1/64 80/1/65 78/1/63
f 78/1/63 80/1/65 81/1/66
f 82/1/67 83/1/68 84/1/69
f 83/1/68 82/1/67 85/1/70
f 86/1/71 82/1/67 84/1/69
f 85/1/70 87/1/72 83/1/68
f 86/1/71 84/1/69 88/1/73
f 89/1/74 83/1/68 87/1/72
f 90/1/75 86/1/71 88/1/73
f 91/1/76 89/1/74 87/1/72
f 92/1/77 86/1/71 90/1/75
f 87/1/72 93/1/78 91/1/76
f 90/1/75 94/1/79 92/1/77
f 95/1/80 91/1/76 93/1/78
f 94/1/79 90/1/75 96/1/81
f 91/1/76 95/1/80 97/1/82
f 98/1/83 94/1/79 96/1/81
f 99/1/84 97/1/82 95/1/80
f 94/1/79 98/1/83 100/1/85
f 101/1/86 100/1/85 98/1/83
f 100/1/85 101/1/86 102/1/87
f 97/1/82 99/1/84 103/1/88
f 104/1/89 103/1/88 99/1/84
f 99/1/84 105/1/90 104/1/89
f 106/1/91 104/1/89 105/1/90
f 104/1/89 106/1/91 107/1/92
f 106/1/91 108/1/93 107/1/92
f 108/1/93 106/1/91 109/1/94
f 110/1/95 111/1/96 112/1/95
f 111/1/96 110/1/95 113/1/97
f 114/1/95 113/1/97 110/1/95
f 111/1/96 113/1/97 115/1/98
f 113/1/97 116/1/99 115/1/98
f 113/1/97 114/1/95 117/1/95
f 118/1/100 113/1/97 117/1/95
f 119/1/101 113/1/97 118/1/100
f 118/1/100 120/1/101 119/1/101
f 121/1/102 118/1/100 117/1/95
f 118/1/100 121/1/102 122/1/103
f 123/1/104 122/1/103 121/1/102
f 123/1/104 124/1/105 122/1/103
f 125/1/102 122/1/103 124/1/105
f 126/1/106 125/1/102 124/1/105
f 125/1/102 126/1/106 127/1/106
f 125/1/102 128/1/96 122/1/103
f 129/1/95 128/1/96 125/1/102
f 130/1/95 128/1/96 129/1/95
f 128/1/96 130/1/95 131/1/96
f 129/1/95 132/1/96 130/1/95
f 132/1/96 129/1/95 133/1/96
f 134/1/107 135/1/108 136/1/109
f 135/1/108 134/1/107 137/1/110
f 138/1/111 136/1/109 135/1/108
f 136/1/109 138/1/111 139/1/111
f 138/1/111 135/1/108 140/1/112
f 140/1/112 141/1/113 138/1/111
f 142/1/107 140/1/112 143/1/111
f 140/1/112 142/1/107 144/1/114
f 141/1/113 140/1/112 144/1/114
f 144/1/114 145/1/108 141/1/113
f 146/1/108 141/1/113 145/1/108
f 141/1/113 146/1/108 147/1/108
f 148/1/108 147/1/108 146/1/108
f 149/1/115 147/1/108 150/1/111
f 151/1/116 150/1/111 147/1/108
f 151/1/116 147/1/108 148/1/108
f 152/1/108 151/1/116 148/1/108
f 151/1/116 152/1/108 153/1/117
f 154/1/111 151/1/116 153/1/117
f 154/1/111 153/1/117 155/1/110
f 151/1/116 154/1/111 156/1/110
f 151/1/116 156/1/110 157/1/108
f 158/1/118 159/1/118 160/1/119
f 159/1/118 158/1/118 161/1/118
f 162/1/120 163/1/120 164/1/121
f 163/1/120 162/1/120 165/1/120
f 163/1/120 165/1/120 166/1/120
