# Blender 5.2.2 LTS
# www.blender.org
mtllib boba gun mag.mtl
o boba_gun_mag
v -0.440187 -0.185944 0.116266
v -0.438156 -0.082234 0.159397
v -0.479305 -0.082234 0.015104
v -0.380121 -0.014992 0.138232
v -0.416069 -0.014992 0.012126
v -0.392132 -0.014992 -0.116781
v -0.451899 -0.082234 -0.132398
v -0.479305 -0.082234 0.015104
v -0.416069 -0.014992 0.012126
v -0.449867 -0.185944 -0.089266
v -0.449867 -0.185944 -0.089266
v -0.445028 -0.228903 0.013490
v -0.479305 -0.082234 0.015104
v -0.440187 -0.185944 0.116266
v -0.479305 -0.082234 0.015104
v -0.358773 -0.230468 0.156919
v 0.412132 -0.230468 0.120612
v 0.489365 -0.185944 0.072486
v 0.405201 -0.291872 -0.026554
v 0.484524 -0.228903 -0.030290
v 0.479685 -0.185944 -0.133046
v 0.398270 -0.230468 -0.173719
v -0.372636 -0.230468 -0.137411
v -0.449867 -0.185944 -0.089266
v -0.365704 -0.291872 0.009754
v -0.445028 -0.228903 0.013490
v -0.440187 -0.185944 0.116266
v -0.253519 -0.238882 0.160227
v -0.358773 -0.230468 0.156919
v 0.307654 -0.238882 0.133797
v 0.412132 -0.230468 0.120612
v 0.300334 -0.303761 -0.021615
v 0.405201 -0.291872 -0.026554
v -0.260839 -0.303761 0.004815
v -0.365704 -0.291872 0.009754
v 0.398270 -0.230468 -0.173719
v -0.372636 -0.230468 -0.137411
v 0.293015 -0.238882 -0.177027
v -0.268158 -0.238882 -0.150597
v 0.398270 -0.230468 -0.173719
v 0.479685 -0.185944 -0.133046
v 0.395402 -0.082234 -0.234622
v 0.477653 -0.082235 -0.176177
v 0.419618 -0.014992 -0.155012
v 0.347772 -0.014992 -0.206303
v 0.347772 -0.014992 -0.206303
v 0.289968 -0.082234 -0.241724
v 0.255757 -0.014992 -0.212155
v -0.234367 -0.014992 -0.189071
v -0.271205 -0.082234 -0.215294
v -0.325424 -0.014992 -0.174597
v -0.375504 -0.082234 -0.198314
v -0.392132 -0.014992 -0.116781
v -0.451899 -0.082234 -0.132398
v -0.449867 -0.185944 -0.089266
v -0.372636 -0.230468 -0.137411
v 0.398270 -0.230468 -0.173719
v -0.372636 -0.230468 -0.137411
v 0.395402 -0.082234 -0.234622
v 0.289968 -0.082234 -0.241724
v 0.293015 -0.238882 -0.177027
v -0.271205 -0.082234 -0.215294
v -0.375504 -0.082234 -0.198314
v -0.268158 -0.238882 -0.150597
v 0.431628 -0.014992 0.100001
v 0.491396 -0.082235 0.115617
v 0.518800 -0.082235 -0.031904
v 0.455566 -0.014992 -0.028926
v 0.489365 -0.185944 0.072486
v 0.489365 -0.185944 0.072486
v 0.484524 -0.228903 -0.030290
v 0.518800 -0.082235 -0.031904
v 0.479685 -0.185944 -0.133046
v 0.518800 -0.082235 -0.031904
v 0.479685 -0.185944 -0.133046
v 0.477653 -0.082235 -0.176177
v 0.518800 -0.082235 -0.031904
v 0.419618 -0.014992 -0.155012
v 0.455566 -0.014992 -0.028926
v 0.255757 -0.014992 -0.212155
v 0.419618 -0.014992 -0.155012
v 0.455566 -0.014992 -0.028926
v 0.347772 -0.014992 -0.206303
v 0.273862 -0.014992 0.172272
v 0.431628 -0.014992 0.100001
v 0.364922 -0.014992 0.157816
v -0.234367 -0.014992 -0.189071
v -0.216261 -0.014992 0.195355
v -0.392132 -0.014992 -0.116781
v -0.325424 -0.014992 -0.174597
v -0.416069 -0.014992 0.012126
v -0.380121 -0.014992 0.138232
v -0.308275 -0.014992 0.189522
v -0.440187 -0.185944 0.116266
v -0.355905 -0.082234 0.217822
v -0.358773 -0.230468 0.156919
v -0.438156 -0.082234 0.159397
v -0.380121 -0.014992 0.138232
v -0.308275 -0.014992 0.189522
v -0.250471 -0.082234 0.224944
v -0.308275 -0.014992 0.189522
v -0.216261 -0.014992 0.195355
v 0.273862 -0.014992 0.172272
v 0.310702 -0.082234 0.198514
v 0.364922 -0.014992 0.157816
v 0.415001 -0.082234 0.181514
v 0.431628 -0.014992 0.100001
v 0.491396 -0.082235 0.115617
v 0.489365 -0.185944 0.072486
v 0.412132 -0.230468 0.120612
v -0.253519 -0.238882 0.160227
v -0.358773 -0.230468 0.156919
v -0.250471 -0.082234 0.224944
v -0.355905 -0.082234 0.217822
v 0.307654 -0.238882 0.133797
v 0.310702 -0.082234 0.198514
v 0.412132 -0.230468 0.120612
v 0.415001 -0.082234 0.181514
v -0.065385 -0.152524 -0.032988
v -0.265567 0.533318 0.005038
v -0.075860 -0.155604 -0.003897
v -0.062696 -0.152524 0.024101
v -0.255090 0.536398 -0.024054
v -0.252401 0.536398 0.033035
v -0.467469 0.027782 0.123895
v -0.477747 0.027782 -0.094317
v -0.477747 -0.192174 -0.094317
v -0.479867 -0.082196 -0.139345
v -0.472608 0.073334 0.014789
v -0.508920 -0.082196 0.016499
v -0.472608 -0.237726 0.014789
v -0.465348 -0.082196 0.168943
v -0.467469 -0.192174 0.123895
v -0.192037 0.552095 0.033374
v -0.002331 -0.136833 0.024440
v 0.009307 -0.133409 -0.007908
v -0.180398 0.555513 0.001027
v -0.195025 0.552095 -0.030064
v -0.005319 -0.136833 -0.038999
v -0.180398 0.555513 0.001027
v -0.195339 0.551271 0.030348
v -0.192037 0.552095 0.033374
v -0.184864 0.554351 0.001237
v -0.223335 0.543834 0.043734
v -0.198028 0.551271 -0.026741
v -0.223126 0.543834 0.048187
v -0.195025 0.552095 -0.030064
v -0.255404 0.535574 0.036359
v -0.227159 0.543834 -0.037456
v -0.252401 0.536398 0.033035
v -0.227368 0.543834 -0.041890
v -0.270032 0.532149 0.005248
v -0.258392 0.535574 -0.027080
v -0.265567 0.533318 0.005038
v -0.255090 0.536398 -0.024054
v -0.381272 -0.239394 0.166884
v -0.269749 -0.248312 0.170537
v -0.277518 -0.317114 0.005601
v 0.324781 -0.248312 0.142536
v 0.317013 -0.317114 -0.022400
v -0.388622 -0.304502 0.010834
v 0.435467 -0.239394 0.128418
v 0.517242 -0.192174 0.077517
v 0.512104 -0.237726 -0.031589
v 0.506965 -0.192174 -0.140695
v 0.428117 -0.304502 -0.027633
v 0.420768 -0.239394 -0.183684
v 0.309246 -0.248312 -0.187318
v -0.285285 -0.248312 -0.159317
v -0.395972 -0.239394 -0.145217
v -0.477747 -0.192174 -0.094317
v -0.472608 -0.237726 0.014789
v -0.467469 -0.192174 0.123895
v -0.065385 -0.152524 -0.032988
v -0.255090 0.536398 -0.024054
v -0.227159 0.543834 -0.037456
v -0.037388 -0.145094 -0.046394
v -0.008322 -0.137658 -0.035676
v -0.198028 0.551271 -0.026741
v 0.506965 0.027782 -0.140695
v 0.420768 0.074995 -0.183684
v 0.504844 -0.082196 -0.185723
v 0.417721 -0.082196 -0.248381
v 0.506965 -0.192174 -0.140695
v 0.420768 -0.239394 -0.183684
v 0.306019 -0.082196 -0.255828
v 0.309246 -0.248312 -0.187318
v -0.285285 -0.248312 -0.159317
v -0.288511 -0.082196 -0.227827
v 0.309246 0.083914 -0.187318
v -0.395972 -0.239394 -0.145217
v -0.285285 0.083914 -0.159317
v -0.395972 0.074995 -0.145217
v -0.399019 -0.082196 -0.209914
v -0.477747 0.027782 -0.094317
v -0.477747 -0.192174 -0.094317
v -0.479867 -0.082196 -0.139345
v -0.065698 -0.153355 0.027424
v -0.223126 0.543834 0.048187
v -0.255404 0.535574 0.036359
v -0.033355 -0.145094 0.039249
v -0.192037 0.552095 0.033374
v -0.002331 -0.136833 0.024440
v -0.008322 -0.137658 -0.035676
v -0.005633 -0.137658 0.021413
v -0.198028 0.551271 -0.026741
v -0.195339 0.551271 0.030348
v 0.004842 -0.134578 -0.007698
v -0.184864 0.554351 0.001237
v 0.517242 0.027782 0.077517
v 0.519364 -0.082196 0.122565
v 0.512104 0.073334 -0.031589
v 0.517242 -0.192174 0.077517
v 0.548481 -0.082196 -0.033302
v 0.506965 0.027782 -0.140695
v 0.504844 -0.082196 -0.185723
v 0.512104 -0.237726 -0.031589
v 0.506965 -0.192174 -0.140695
v -0.065698 -0.153355 0.027424
v -0.255404 0.535574 0.036359
v -0.270032 0.532149 0.005248
v -0.080325 -0.156773 -0.003687
v -0.068686 -0.153355 -0.036015
v -0.258392 0.535574 -0.027080
v -0.080325 -0.156773 -0.003687
v -0.068686 -0.153355 -0.036015
v -0.065385 -0.152524 -0.032988
v -0.075860 -0.155604 -0.003897
v -0.037388 -0.145094 -0.046394
v -0.062696 -0.152524 0.024101
v -0.037597 -0.145094 -0.050827
v -0.065698 -0.153355 0.027424
v -0.005319 -0.136833 -0.038999
v -0.033564 -0.145094 0.034797
v -0.008322 -0.137658 -0.035676
v -0.033355 -0.145094 0.039249
v 0.009307 -0.133409 -0.007908
v -0.002331 -0.136833 0.024440
v 0.004842 -0.134578 -0.007698
v -0.005633 -0.137658 0.021413
v 0.324781 0.083914 0.142536
v 0.435467 0.074995 0.128418
v 0.317013 0.152722 -0.022400
v -0.269749 0.083914 0.170537
v -0.381272 0.074995 0.166884
v -0.277518 0.152722 0.005601
v -0.467469 0.027782 0.123895
v 0.517242 0.027782 0.077517
v 0.428117 0.140104 -0.027633
v 0.512104 0.073334 -0.031589
v 0.506965 0.027782 -0.140695
v 0.420768 0.074995 -0.183684
v 0.309246 0.083914 -0.187318
v -0.285285 0.083914 -0.159317
v -0.395972 0.074995 -0.145217
v -0.388622 0.140104 0.010834
v -0.477747 0.027782 -0.094317
v -0.472608 0.073334 0.014789
v -0.062696 -0.152524 0.024101
v -0.252401 0.536398 0.033035
v -0.223335 0.543834 0.043734
v -0.033564 -0.145094 0.034797
v -0.005633 -0.137658 0.021413
v -0.195339 0.551271 0.030348
v -0.378225 -0.082196 0.231581
v -0.266523 -0.082196 0.239048
v -0.381272 -0.239394 0.166884
v -0.269749 -0.248312 0.170537
v 0.328008 -0.082196 0.211047
v 0.324781 -0.248312 0.142536
v 0.435467 -0.239394 0.128418
v 0.324781 0.083914 0.142536
v 0.438514 -0.082196 0.193115
v 0.435467 0.074995 0.128418
v -0.269749 0.083914 0.170537
v -0.381272 0.074995 0.166884
v -0.467469 0.027782 0.123895
v 0.517242 0.027782 0.077517
v 0.519364 -0.082196 0.122565
v 0.517242 -0.192174 0.077517
v -0.465348 -0.082196 0.168943
v -0.467469 -0.192174 0.123895
v -0.068686 -0.153355 -0.036015
v -0.258392 0.535574 -0.027080
v -0.227368 0.543834 -0.041890
v -0.037597 -0.145094 -0.050827
v -0.195025 0.552095 -0.030064
v -0.005319 -0.136833 -0.038999
v 0.354843 0.093849 0.150647
v 0.346628 0.141861 -0.023795
v 0.346628 0.166758 -0.023795
v 0.338382 0.093849 -0.198876
v 0.354037 0.076241 0.133534
v 0.358280 -0.082177 0.223610
v 0.357114 -0.082177 0.198869
v 0.339219 0.076241 -0.181104
v 0.334976 -0.082177 -0.271181
v 0.336141 -0.082177 -0.246440
v 0.339219 -0.240588 -0.181104
v 0.338382 -0.258196 -0.198876
v 0.346628 -0.306208 -0.023795
v 0.346628 -0.331106 -0.023795
v 0.354843 -0.258196 0.150647
v 0.354037 -0.240588 0.133534
v 0.358280 -0.082177 0.223610
v 0.357114 -0.082177 0.198869
v 0.081930 -0.291699 -0.074267
v 0.111810 -0.317255 -0.012736
v 0.081930 -0.341832 -0.074267
v 0.111810 -0.341832 -0.012736
v 0.111810 -0.317255 -0.012736
v 0.087845 -0.341832 0.051332
v 0.087845 -0.291699 0.051332
v 0.069461 -0.377259 -0.060953
v 0.069461 -0.341832 -0.060953
v 0.093424 -0.377259 -0.011870
v 0.093424 -0.341832 -0.011870
v 0.074181 -0.377259 0.039268
v 0.074181 -0.341832 0.039268
v -0.034683 -0.336185 -0.056048
v -0.053929 -0.317842 -0.004930
v -0.053929 -0.336185 -0.004930
v -0.034683 -0.297398 -0.056048
v -0.029963 -0.336185 0.044173
v -0.029963 -0.297398 0.044173
v -0.206982 -0.240588 -0.155380
v -0.211225 -0.082177 -0.245456
v -0.210059 -0.082177 -0.220715
v -0.206982 0.076241 -0.155380
v -0.207819 -0.258196 -0.173151
v -0.207819 0.093849 -0.173151
v -0.199573 -0.306208 0.001930
v -0.199573 0.141861 0.001930
v -0.199573 -0.331105 0.001930
v -0.199573 0.166758 0.001930
v -0.191358 -0.258196 0.176372
v -0.191357 0.093849 0.176372
v -0.192163 -0.240588 0.159258
v -0.187921 -0.082177 0.249335
v -0.189086 -0.082177 0.224594
v -0.192163 0.076241 0.159258
v -0.187921 -0.082177 0.249335
v -0.189086 -0.082177 0.224594
v -0.191357 0.093849 0.176372
v -0.298851 0.093849 0.181434
v -0.199573 0.166758 0.001930
v -0.307067 0.166758 0.006992
v -0.207819 0.093849 -0.173151
v -0.315313 0.093849 -0.168088
v -0.314476 -0.240588 -0.150317
v -0.206982 -0.240588 -0.155380
v -0.199573 -0.306208 0.001930
v -0.307067 -0.306208 0.006992
v -0.192163 -0.240588 0.159258
v -0.299657 -0.240588 0.164321
v 0.239069 0.166758 -0.018729
v 0.247285 0.093849 0.155713
v 0.346628 0.166758 -0.023795
v 0.354843 0.093849 0.150647
v 0.338382 0.093849 -0.198876
v 0.230823 0.093849 -0.193810
v 0.231660 -0.240588 -0.176039
v 0.346628 -0.306208 -0.023795
v 0.339219 -0.240588 -0.181104
v 0.239069 -0.306208 -0.018729
v 0.246479 -0.240588 0.138599
v 0.354037 -0.240588 0.133534
v 0.081930 -0.291699 -0.074267
v 0.093424 -0.317842 -0.011870
v 0.111810 -0.317255 -0.012736
v 0.087845 -0.291699 0.051332
v 0.069461 -0.297398 -0.060953
v 0.074181 -0.297398 0.039268
v 0.023932 -0.278921 0.080418
v 0.023095 -0.287176 0.062647
v 0.015566 -0.278921 -0.097198
v 0.016402 -0.287176 -0.079446
v -0.034683 -0.297398 -0.056048
v -0.048283 -0.291699 -0.068135
v -0.053929 -0.317842 -0.004930
v -0.072315 -0.317255 -0.004064
v -0.042368 -0.291699 0.057465
v -0.029963 -0.297398 0.044173
v 0.023932 -0.278921 0.080418
v 0.023095 -0.287176 0.062647
v -0.034683 -0.336185 -0.056048
v -0.053929 -0.336185 -0.004930
v -0.029963 -0.336185 0.044173
v 0.074181 -0.336185 0.039268
v 0.023095 -0.336185 0.062647
v 0.093424 -0.336185 -0.011870
v 0.069461 -0.336185 -0.060953
v 0.016402 -0.336185 -0.079446
v -0.295415 -0.082170 0.254397
v -0.187921 -0.082177 0.249335
v -0.191357 0.093849 0.176372
v -0.298851 0.093849 0.181434
v -0.191358 -0.258196 0.176372
v -0.298851 -0.258196 0.181434
v -0.187921 -0.082177 0.249335
v -0.295415 -0.082170 0.254397
v -0.206982 0.076241 -0.155380
v -0.314476 0.076241 -0.150317
v -0.317553 -0.082170 -0.215653
v -0.210059 -0.082177 -0.220715
v -0.314476 -0.240588 -0.150317
v -0.206982 -0.240588 -0.155380
v -0.042368 -0.341832 0.057465
v 0.023932 -0.341832 0.080418
v -0.042368 -0.291699 0.057465
v 0.023932 -0.278921 0.080418
v 0.023932 -0.341832 0.080418
v 0.087845 -0.291699 0.051332
v 0.023932 -0.278921 0.080418
v 0.087845 -0.341832 0.051332
v -0.029963 -0.341832 0.044173
v -0.029963 -0.377259 0.044173
v 0.023095 -0.341832 0.062647
v 0.023095 -0.377259 0.062647
v 0.074181 -0.377259 0.039268
v 0.074181 -0.341832 0.039268
v 0.023095 -0.377259 0.062647
v 0.023095 -0.341832 0.062647
v 0.247285 0.093849 0.155713
v 0.354843 0.093849 0.150647
v 0.250721 -0.082171 0.228676
v 0.358280 -0.082177 0.223610
v 0.354843 -0.258196 0.150647
v 0.247285 -0.258196 0.155713
v 0.358280 -0.082177 0.223610
v 0.250721 -0.082171 0.228676
v 0.231660 -0.240588 -0.176039
v 0.339219 -0.240588 -0.181104
v 0.336141 -0.082177 -0.246440
v 0.228583 -0.082171 -0.241374
v 0.339219 0.076241 -0.181104
v 0.231660 0.076241 -0.176039
v -0.034683 -0.336185 -0.056048
v -0.034683 -0.297398 -0.056048
v 0.069461 -0.336185 -0.060953
v 0.069461 -0.297398 -0.060953
v 0.016402 -0.336185 -0.079446
v 0.016402 -0.287176 -0.079446
v -0.314476 -0.240588 -0.150317
v -0.318718 -0.082170 -0.240393
v -0.315313 -0.258196 -0.168088
v -0.317553 -0.082170 -0.215653
v -0.307067 -0.306208 0.006992
v -0.314476 0.076241 -0.150317
v -0.307067 -0.331105 0.006992
v -0.315313 0.093849 -0.168088
v -0.298851 -0.258196 0.181434
v -0.307067 0.141861 0.006992
v -0.299657 -0.240588 0.164321
v -0.295415 -0.082170 0.254397
v -0.296580 -0.082170 0.229657
v -0.307067 0.166758 0.006992
v -0.298851 0.093849 0.181434
v -0.299657 0.076241 0.164321
v -0.295415 -0.082170 0.254397
v -0.296580 -0.082170 0.229657
v -0.072315 -0.341832 -0.004064
v -0.042368 -0.341832 0.057465
v -0.072315 -0.317255 -0.004064
v -0.042368 -0.291699 0.057465
v -0.072315 -0.317255 -0.004064
v -0.048283 -0.341832 -0.068135
v -0.048283 -0.291699 -0.068135
v -0.034683 -0.377259 -0.056048
v -0.053929 -0.341832 -0.004930
v -0.034683 -0.341832 -0.056048
v -0.053929 -0.377259 -0.004930
v -0.029963 -0.341832 0.044173
v -0.029963 -0.377259 0.044173
v 0.074181 -0.336185 0.039268
v 0.074181 -0.297398 0.039268
v 0.093424 -0.317842 -0.011870
v 0.093424 -0.336185 -0.011870
v 0.069461 -0.336185 -0.060953
v 0.069461 -0.297398 -0.060953
v 0.230823 0.093849 -0.193810
v 0.239069 0.141861 -0.018729
v 0.239069 0.166758 -0.018729
v 0.247285 0.093849 0.155713
v 0.231660 0.076241 -0.176039
v 0.246479 0.076241 0.138599
v 0.250721 -0.082171 0.228676
v 0.249556 -0.082171 0.203935
v 0.227418 -0.082171 -0.266115
v 0.228583 -0.082171 -0.241374
v 0.231660 -0.240588 -0.176039
v 0.230823 -0.258196 -0.193810
v 0.239069 -0.306208 -0.018729
v 0.239069 -0.331106 -0.018729
v 0.247285 -0.258196 0.155713
v 0.246479 -0.240588 0.138599
v 0.250721 -0.082171 0.228676
v 0.249556 -0.082171 0.203935
v -0.053929 -0.377259 -0.004930
v 0.016402 -0.377259 -0.079446
v 0.023095 -0.377259 0.062647
v -0.034683 -0.377259 -0.056048
v -0.029963 -0.377259 0.044173
v 0.093424 -0.377259 -0.011870
v 0.074181 -0.377259 0.039268
v 0.069461 -0.377259 -0.060953
v -0.053929 -0.341832 -0.004930
v -0.042368 -0.341832 0.057465
v -0.072315 -0.341832 -0.004064
v -0.048283 -0.341832 -0.068135
v -0.029963 -0.341832 0.044173
v 0.023932 -0.341832 0.080418
v 0.023095 -0.341832 0.062647
v -0.034683 -0.341832 -0.056048
v 0.015566 -0.341832 -0.097198
v 0.016402 -0.341832 -0.079446
v 0.069461 -0.341832 -0.060953
v 0.081930 -0.341832 -0.074267
v 0.093424 -0.341832 -0.011870
v 0.111810 -0.341832 -0.012736
v 0.087845 -0.341832 0.051332
v 0.074181 -0.341832 0.039268
v 0.023932 -0.341832 0.080418
v 0.023095 -0.341832 0.062647
v -0.315313 -0.258196 -0.168088
v -0.207819 -0.258196 -0.173151
v -0.199573 -0.331105 0.001930
v -0.307067 -0.331105 0.006992
v -0.191358 -0.258196 0.176372
v -0.298851 -0.258196 0.181434
v -0.206982 0.076241 -0.155380
v -0.307067 0.141861 0.006992
v -0.314476 0.076241 -0.150317
v -0.199573 0.141861 0.001930
v -0.299657 0.076241 0.164321
v -0.192163 0.076241 0.159258
v 0.230823 -0.258196 -0.193810
v 0.338382 -0.258196 -0.198876
v 0.346628 -0.331106 -0.023795
v 0.239069 -0.331106 -0.018729
v 0.354843 -0.258196 0.150647
v 0.247285 -0.258196 0.155713
v 0.339219 0.076241 -0.181104
v 0.231660 0.076241 -0.176039
v 0.239069 0.141861 -0.018729
v 0.346628 0.141861 -0.023795
v 0.246479 0.076241 0.138599
v 0.354037 0.076241 0.133534
v -0.207819 0.093849 -0.173151
v -0.315313 0.093849 -0.168088
v -0.318718 -0.082170 -0.240393
v -0.211225 -0.082177 -0.245456
v -0.315313 -0.258196 -0.168088
v -0.207819 -0.258196 -0.173151
v -0.299657 0.076241 0.164321
v -0.192163 0.076241 0.159258
v -0.296580 -0.082170 0.229657
v -0.189086 -0.082177 0.224594
v -0.192163 -0.240588 0.159258
v -0.299657 -0.240588 0.164321
v -0.189086 -0.082177 0.224594
v -0.296580 -0.082170 0.229657
v -0.048283 -0.291699 -0.068135
v 0.015566 -0.341832 -0.097198
v -0.048283 -0.341832 -0.068135
v 0.015566 -0.278921 -0.097198
v 0.081930 -0.291699 -0.074267
v 0.015566 -0.341832 -0.097198
v 0.015566 -0.278921 -0.097198
v 0.081930 -0.341832 -0.074267
v -0.034683 -0.377259 -0.056048
v -0.034683 -0.341832 -0.056048
v 0.016402 -0.377259 -0.079446
v 0.016402 -0.341832 -0.079446
v 0.069461 -0.377259 -0.060953
v 0.069461 -0.341832 -0.060953
v 0.338382 0.093849 -0.198876
v 0.230823 0.093849 -0.193810
v 0.227418 -0.082171 -0.266115
v 0.334976 -0.082177 -0.271181
v 0.230823 -0.258196 -0.193810
v 0.338382 -0.258196 -0.198876
v 0.246479 -0.240588 0.138599
v 0.354037 -0.240588 0.133534
v 0.357114 -0.082177 0.198869
v 0.249556 -0.082171 0.203935
v 0.246479 0.076241 0.138599
v 0.354037 0.076241 0.133534
v 0.249556 -0.082171 0.203935
v 0.357114 -0.082177 0.198869
v -0.029963 -0.336185 0.044173
v -0.029963 -0.297398 0.044173
v 0.023095 -0.336185 0.062647
v 0.023095 -0.287176 0.062647
v 0.074181 -0.336185 0.039268
v 0.023095 -0.336185 0.062647
v 0.074181 -0.297398 0.039268
v 0.023095 -0.287176 0.062647
vn 0.7844 0.4182 -0.4581
vn 0.9602 -0.2757 -0.0452
vn 0.7806 -0.2236 -0.5837
vn 0.5959 -0.6585 -0.4596
vn 0.7273 -0.6854 -0.0343
vn 0.6365 -0.6585 0.4015
vn 0.8320 -0.2236 0.5077
vn 0.7273 -0.6854 -0.0342
vn 0.8240 0.4182 0.3824
vn 0.8240 0.4182 0.3823
vn 0.9602 -0.2756 -0.0452
vn 0.8033 0.5944 -0.0378
vn 0.8033 0.5944 -0.0379
vn -0.8239 0.4182 -0.3824
vn -0.3606 0.9326 0.0170
vn -0.3887 0.6583 -0.6446
vn -0.8032 0.5945 0.0378
vn -0.7843 0.4182 0.4581
vn -0.3264 0.6583 0.6783
vn 0.8239 0.4182 0.3824
vn 0.3606 0.9326 -0.0170
vn 0.3887 0.6583 0.6447
vn 0.8032 0.5945 -0.0378
vn 0.7843 0.4182 -0.4581
vn 0.3264 0.6583 -0.6783
vn -0.0534 0.9986 0.0025
vn -0.0865 0.7040 -0.7049
vn 0.0198 0.7040 -0.7099
vn -0.3605 0.9326 0.0170
vn 0.0535 0.9986 -0.0025
vn 0.3887 0.6583 0.6446
vn -0.0198 0.7040 0.7099
vn 0.0865 0.7040 0.7049
vn -0.7844 0.4182 0.4582
vn -0.3454 -0.1020 0.9329
vn -0.7806 -0.2236 0.5837
vn -0.5959 -0.6585 0.4596
vn -0.2203 -0.5097 0.8317
vn -0.2202 -0.5097 0.8317
vn -0.0137 -0.0156 0.9998
vn 0.0050 -0.4002 0.9164
vn 0.0811 -0.4001 0.9129
vn 0.1076 -0.0156 0.9941
vn 0.2975 -0.5097 0.8073
vn 0.4315 -0.1020 0.8963
vn 0.6365 -0.6585 0.4016
vn 0.8320 -0.2236 0.5078
vn -0.3264 0.6583 0.6784
vn -0.0199 0.7040 0.7100
vn 0.4316 -0.1020 0.8963
vn 0.0865 0.7040 0.7050
vn -0.6365 -0.6585 -0.4015
vn -0.9602 -0.2757 0.0452
vn -0.8320 -0.2236 -0.5077
vn -0.7273 -0.6854 0.0342
vn -0.8240 0.4182 -0.3824
vn -0.8240 0.4182 -0.3823
vn -0.8033 0.5944 0.0378
vn -0.8033 0.5944 0.0379
vn -0.9602 -0.2756 0.0452
vn -0.7844 0.4182 0.4581
vn -0.5959 -0.6585 0.4595
vn -0.7273 -0.6854 0.0343
vn -0.0000 -1.0000 -0.0000
vn 0.3454 -0.1020 -0.9329
vn 0.2203 -0.5097 -0.8317
vn 0.0137 -0.0157 -0.9998
vn 0.3453 -0.1020 -0.9329
vn 0.2202 -0.5097 -0.8317
vn -0.0050 -0.4002 -0.9164
vn -0.0811 -0.4002 -0.9129
vn -0.1076 -0.0157 -0.9941
vn -0.2974 -0.5097 -0.8073
vn -0.4316 -0.1020 -0.8963
vn -0.6364 -0.6585 -0.4016
vn -0.8320 -0.2236 -0.5078
vn -0.3887 0.6582 -0.6447
vn 0.0199 0.7039 -0.7100
vn 0.3264 0.6582 -0.6784
vn 0.0137 -0.0156 -0.9998
vn -0.0865 0.7039 -0.7050
vn -0.1076 -0.0156 -0.9941
vn -0.3887 0.6583 -0.6447
vn 0.7041 0.1826 0.6862
vn 0.9629 0.2662 -0.0454
vn 0.9628 0.2662 -0.0454
vn 0.6360 0.1846 -0.7493
vn 0.7035 0.1849 0.6862
vn 0.6365 0.1825 -0.7493
vn 0.8240 -0.4182 0.3824
vn 0.9989 -0.0000 -0.0470
vn 0.8296 -0.0000 0.5583
vn 0.8033 -0.5944 -0.0378
vn 0.7844 -0.4182 -0.4581
vn 0.7735 -0.0000 -0.6338
vn 0.9629 0.2659 -0.0455
vn 0.7041 0.1825 0.6862
vn 0.9629 0.2662 -0.0453
vn 0.6365 0.1825 -0.7494
vn 0.6365 0.1826 -0.7493
vn -0.2519 0.9677 0.0119
vn -0.2520 0.9676 0.0118
vn -0.2521 0.9676 0.0119
vn -0.2520 0.9677 0.0119
vn -0.2520 0.9676 0.0119
vn -0.2521 0.9676 0.0118
vn -0.2519 0.9677 0.0116
vn -0.2521 0.9676 0.0120
vn -0.0535 0.9986 0.0025
vn 0.7035 0.1848 0.6863
vn 0.0471 -0.0000 0.9989
vn 0.7041 0.1825 0.6863
vn 0.0470 -0.0000 0.9989
vn -0.6365 -0.1825 0.7494
vn -0.6360 -0.1845 0.7493
vn -0.7734 -0.0000 0.6339
vn -0.7843 -0.4182 0.4582
vn -0.3148 -0.0000 0.9492
vn -0.3281 -0.6538 0.6819
vn -0.3264 0.6582 0.6784
vn -0.0061 -0.0000 1.0000
vn 0.1001 -0.0000 0.9950
vn -0.0198 -0.7040 0.7100
vn 0.3887 0.6582 0.6447
vn 0.0865 -0.7039 0.7050
vn 0.3907 -0.6538 0.6480
vn 0.4026 -0.0000 0.9154
vn 0.8239 -0.4182 0.3824
vn 0.8296 -0.0000 0.5584
vn 0.0467 0.0001 0.9989
vn -0.9629 -0.2662 0.0453
vn -0.6365 -0.1826 0.7494
vn -0.6359 -0.1849 0.7493
vn -0.7041 -0.1826 -0.6862
vn -0.7036 -0.1846 -0.6862
vn -0.9629 -0.2661 0.0454
vn -0.8240 -0.4182 -0.3824
vn -0.9989 -0.0000 0.0471
vn -0.8296 -0.0000 -0.5583
vn -0.8033 -0.5944 0.0378
vn -0.7844 -0.4182 0.4581
vn -0.7735 -0.0000 0.6338
vn -0.9629 -0.2659 0.0452
vn -0.6365 -0.1825 0.7493
vn -0.9629 -0.2662 0.0454
vn -0.7041 -0.1825 -0.6862
vn 0.2520 -0.9677 -0.0119
vn 0.2521 -0.9676 -0.0118
vn 0.2520 -0.9676 -0.0119
vn 0.2521 -0.9676 -0.0119
vn 0.2519 -0.9677 -0.0122
vn -0.0534 -0.9986 0.0025
vn -0.3907 -0.6538 -0.6480
vn -0.0865 -0.7040 -0.7049
vn 0.0198 -0.7040 -0.7099
vn 0.0535 -0.9986 -0.0025
vn 0.3281 -0.6538 -0.6818
vn -0.3606 -0.9326 0.0170
vn -0.8239 -0.4182 -0.3824
vn -0.8032 -0.5945 0.0378
vn -0.7843 -0.4182 0.4581
vn -0.3281 -0.6538 0.6818
vn -0.0199 -0.7040 0.7099
vn 0.0865 -0.7040 0.7049
vn 0.3606 -0.9326 -0.0170
vn 0.7843 -0.4182 -0.4581
vn 0.8032 -0.5945 -0.0378
vn -0.0470 -0.0000 -0.9989
vn 0.6365 0.1826 -0.7494
vn 0.6359 0.1848 -0.7493
vn -0.0471 -0.0000 -0.9989
vn -0.7035 -0.1849 -0.6863
vn -0.7041 -0.1825 -0.6863
vn 0.3148 -0.0000 -0.9492
vn 0.0062 -0.0000 -1.0000
vn 0.0199 0.7040 -0.7100
vn -0.1001 -0.0000 -0.9950
vn -0.0865 0.7040 -0.7050
vn -0.0865 -0.7040 -0.7050
vn -0.4026 -0.0000 -0.9154
vn 0.0198 -0.7040 -0.7100
vn 0.3281 -0.6538 -0.6819
vn -0.8296 -0.0000 -0.5584
vn 0.7734 -0.0000 -0.6339
vn -0.0467 -0.0000 -0.9989
vn 0.9989 -0.0000 -0.0471
vn 0.6042 -0.0000 -0.7968
vn 0.6602 -0.0000 -0.7511
vn 0.7279 -0.0000 0.6857
vn 0.6765 -0.0000 0.7365
vn 0.5636 0.6327 0.5310
vn 0.7681 0.6394 -0.0362
vn 0.6764 -0.0000 0.7365
vn 0.5112 0.6327 -0.5817
vn 0.6043 -0.0000 -0.7968
vn -0.0000 1.0000 -0.0000
vn 0.0334 0.7050 0.7084
vn 0.0333 0.7050 0.7084
vn -0.0334 0.7050 -0.7084
vn -0.0333 0.7050 -0.7084
vn -0.0332 0.7050 -0.7084
vn 0.0114 0.9145 0.4044
vn -0.0306 0.9995 0.0014
vn -0.0305 0.9995 0.0014
vn -0.0267 0.9145 -0.4037
vn -0.0198 0.9072 -0.4202
vn 0.0198 0.9071 0.4205
vn 0.0198 0.9072 0.4202
vn 0.0267 0.9145 0.4037
vn 0.0266 0.9145 0.4037
vn 0.0305 0.9995 -0.0014
vn -0.0114 0.9145 -0.4044
vn 0.5113 0.6327 -0.5817
vn -0.5637 0.6327 -0.5311
vn 0.7681 0.6393 -0.0361
vn -0.0366 0.6262 -0.7788
vn -0.7681 0.6393 0.0361
vn 0.5636 0.6327 0.5311
vn -0.5113 0.6327 0.5816
vn 0.0366 0.6262 0.7788
vn 0.0334 0.7049 0.7085
vn 0.0334 -0.7049 0.7085
vn 0.0333 -0.7049 0.7085
vn 0.0334 -0.7050 0.7085
vn 0.0334 0.7050 0.7085
vn -0.6602 -0.0000 0.7511
vn -0.6042 -0.0000 0.7969
vn 0.7278 -0.0000 0.6857
vn -0.6602 0.0001 0.7511
vn 0.0471 0.0001 0.9989
vn 0.7278 -0.0000 0.6858
vn 0.0333 -0.7050 0.7085
vn 0.0366 0.6263 0.7787
vn -0.5112 0.6327 0.5816
vn -0.6042 -0.0000 0.7968
vn 0.5637 0.6327 0.5310
vn -0.9989 -0.0000 0.0470
vn -0.7279 -0.0000 -0.6857
vn -0.6764 -0.0000 -0.7365
vn -0.5636 0.6327 -0.5310
vn -0.6765 -0.0000 -0.7365
vn -0.7681 0.6394 0.0362
vn -0.5112 0.6327 0.5817
vn -0.0333 -0.7050 -0.7084
vn -0.0334 -0.7050 -0.7084
vn 0.0333 -0.7050 0.7084
vn 0.0334 -0.7050 0.7084
vn -0.0334 0.7049 -0.7085
vn -0.0333 0.7049 -0.7085
vn -0.0334 -0.7049 -0.7085
vn -0.0334 -0.7050 -0.7085
vn -0.0334 0.7050 -0.7085
vn -0.7278 -0.0000 -0.6858
vn 0.6042 -0.0000 -0.7969
vn -0.0333 0.7050 -0.7085
vn -0.0367 0.6263 -0.7788
vn 0.5112 0.6327 -0.5816
vn -0.0367 0.6263 -0.7787
vn -0.5637 0.6327 -0.5310
vt 39.979698 -17.005199
vt 40.000000 -16.984900
vt 39.971298 -16.984900
vt 39.974899 -16.971800
vt 40.000000 -16.971800
vt 40.025101 -16.971800
vt 40.028702 -16.984900
vt 40.020302 -17.005199
vt 40.000000 -17.013599
vt 39.911499 -16.979700
vt 39.926601 -17.000000
vt 39.926601 -16.971001
vt 39.911499 -17.000000
vt 39.911499 -17.020300
vt 39.926601 -17.028999
vt 40.088501 -17.020300
vt 40.073399 -17.000000
vt 40.073399 -17.028999
vt 40.088501 -17.000000
vt 40.088501 -16.979700
vt 40.073399 -16.971001
vt 39.946602 -17.000000
vt 39.946602 -16.969299
vt 40.053398 -16.969299
vt 40.053398 -17.000000
vt 39.946602 -17.030701
vt 40.053398 -17.030701
vt 40.088501 -17.005199
vt 40.073399 -16.984900
vt 40.073399 -17.013901
vt 40.088501 -16.984900
vt 40.077301 -16.971800
vt 40.064098 -16.971800
vt 40.053398 -16.984900
vt 40.046600 -16.971800
vt 39.953400 -16.971800
vt 39.946602 -16.984900
vt 39.935902 -16.971800
vt 39.926601 -16.984900
vt 39.922699 -16.971800
vt 39.911499 -16.984900
vt 39.911499 -17.005199
vt 39.926601 -17.013901
vt 40.053398 -17.015600
vt 39.946602 -17.015600
vt 40.046600 -17.037901
vt 40.077301 -17.025101
vt 40.083000 -17.000000
vt 40.064098 -17.035801
vt 40.046600 -16.962099
vt 40.077301 -16.974899
vt 40.064098 -16.964199
vt 39.953400 -17.037901
vt 39.953400 -16.962099
vt 39.922699 -17.025101
vt 39.935902 -17.035801
vt 39.917000 -17.000000
vt 39.922699 -16.974899
vt 39.935902 -16.964199
vt 50.005600 -11.053200
vt 50.000000 -10.919000
vt 50.000000 -11.053800
vt 49.994400 -11.053200
vt 50.005600 -10.918400
vt 49.994400 -10.918400
vt 50.021500 -11.017900
vt 50.000000 -11.039400
vt 50.030399 -11.039400
vt 50.000000 -11.009000
vt 50.021500 -11.060900
vt 49.978500 -11.017900
vt 50.000000 -11.069800
vt 49.969601 -11.039400
vt 49.978500 -11.060900
vt 50.000000 -11.049400
vt 49.993801 -10.915300
vt 49.993801 -11.050100
vt 50.000000 -10.914600
vt 50.006199 -10.915300
vt 50.006199 -11.050100
vt 50.038101 -11.000000
vt 50.041199 -10.994400
vt 50.040600 -10.993800
vt 50.039001 -11.000000
vt 50.046600 -10.992100
vt 50.041199 -11.005600
vt 50.046600 -10.991200
vt 50.040600 -11.006200
vt 50.052700 -10.993800
vt 50.046600 -11.007900
vt 50.052101 -10.994400
vt 50.046600 -11.008800
vt 50.055199 -11.000000
vt 50.052700 -11.006200
vt 50.054298 -11.000000
vt 50.052101 -11.005600
vt 50.056599 -11.000000
vt 50.077702 -10.969200
vt 50.056599 -10.967500
vt 49.943401 -10.967500
vt 49.943401 -11.000000
vt 50.077702 -11.000000
vt 49.922298 -10.969200
vt 49.922298 -11.000000
vt 49.906300 -10.978500
vt 49.906300 -11.000000
vt 49.906300 -11.021500
vt 49.922298 -11.030800
vt 49.943401 -11.032500
vt 50.056599 -11.032500
vt 50.077702 -11.030800
vt 50.093700 -11.021500
vt 50.093700 -11.000000
vt 50.093700 -10.978500
vt 49.984100 -11.053200
vt 49.953400 -10.916900
vt 49.947899 -10.918400
vt 49.989498 -11.051700
vt 49.994900 -11.050300
vt 49.958801 -10.915500
vt 50.093700 -11.039400
vt 50.093700 -11.017900
vt 50.077702 -11.039400
vt 50.077702 -11.008600
vt 50.093700 -11.060900
vt 50.077702 -11.070200
vt 50.056599 -11.039400
vt 50.056599 -11.071900
vt 49.943401 -11.039400
vt 49.943401 -11.071900
vt 50.056599 -11.006900
vt 49.922298 -11.070200
vt 49.943401 -11.006900
vt 49.922298 -11.008600
vt 49.922298 -11.039400
vt 49.906300 -11.017900
vt 49.906300 -11.060900
vt 49.906300 -11.039400
vt 49.983501 -11.053300
vt 49.947300 -10.918500
vt 49.959400 -10.915300
vt 49.995499 -11.050100
vt 50.000000 -11.049700
vt 49.994400 -10.915500
vt 49.994400 -11.050300
vt 50.005600 -11.050300
vt 50.005600 -10.915500
vt 50.000000 -10.914900
vt 50.000000 -10.919200
vt 50.006199 -11.053300
vt 50.006199 -10.918500
vt 50.000000 -11.054000
vt 49.993801 -11.053300
vt 49.993801 -10.918500
vt 49.980999 -11.000000
vt 49.983501 -11.006200
vt 49.984100 -11.005600
vt 49.981800 -11.000000
vt 49.989498 -11.007900
vt 49.984100 -10.994400
vt 49.989498 -11.008800
vt 49.983501 -10.993800
vt 49.995499 -11.006200
vt 49.989498 -10.992100
vt 49.994900 -11.005600
vt 49.989498 -10.991200
vt 49.998001 -11.000000
vt 49.995499 -10.993800
vt 49.997200 -11.000000
vt 49.994900 -10.994400
vt 50.046600 -10.916900
vt 50.015900 -11.053200
vt 50.052101 -10.918400
vt 50.010502 -11.051700
vt 50.005100 -11.050300
vt 50.041199 -10.915500
vt 50.016499 -11.053300
vt 50.052700 -10.918500
vt 50.040600 -10.915300
vt 50.004501 -11.050100
vt 41.965599 -60.960999
vt 42.000000 -60.951698
vt 42.000000 -60.946800
vt 42.034401 -60.960999
vt 41.969002 -60.964500
vt 41.951302 -60.995499
vt 41.956200 -60.995499
vt 42.030998 -60.964500
vt 42.048698 -60.995499
vt 42.043800 -60.995499
vt 42.030998 -61.026501
vt 42.034401 -61.029900
vt 42.000000 -61.039299
vt 42.000000 -61.044201
vt 41.965599 -61.029900
vt 41.969002 -61.026501
vt 42.012402 -61.036499
vt 42.000000 -61.041500
vt 42.012402 -61.046299
vt 42.000000 -61.046299
vt 41.987598 -61.046299
vt 41.987598 -61.036499
vt 42.009899 -61.053200
vt 42.009899 -61.046299
vt 42.000000 -61.053200
vt 41.990101 -61.053200
vt 41.990101 -61.046299
vt 42.009899 -61.045200
vt 42.000000 -61.041599
vt 42.000000 -61.045200
vt 42.009899 -61.037601
vt 41.990101 -61.045200
vt 41.990101 -61.037601
vt 42.041698 -61.000000
vt 42.062199 -60.965599
vt 42.041698 -60.965599
vt 42.062199 -61.000000
vt 42.041698 -61.034401
vt 42.062199 -61.034401
vt 42.041698 -61.030998
vt 42.062199 -61.030998
vt 42.041698 -60.969002
vt 42.062199 -60.969002
vt 41.958302 -61.000000
vt 41.958302 -60.965599
vt 41.937801 -61.000000
vt 41.937801 -60.965599
vt 41.937801 -61.034401
vt 41.958302 -61.034401
vt 41.958302 -61.030998
vt 41.937801 -61.030998
vt 41.958302 -60.969002
vt 41.937801 -60.969002
vt 41.987598 -61.012402
vt 41.986000 -61.000000
vt 41.982498 -61.000000
vt 41.987598 -60.987598
vt 41.990101 -61.009899
vt 41.990101 -60.990101
vt 42.000000 -60.982498
vt 42.000000 -60.986000
vt 42.000000 -61.017502
vt 42.000000 -61.014000
vt 42.009899 -61.009899
vt 42.012402 -61.012402
vt 42.014000 -61.000000
vt 42.017502 -61.000000
vt 42.012402 -60.987598
vt 42.009899 -60.990101
vt 41.937801 -60.995499
vt 41.958302 -60.995499
vt 41.958302 -60.960999
vt 41.937801 -60.960999
vt 41.937801 -61.029900
vt 41.958302 -61.029900
vt 41.958302 -60.964500
vt 41.937801 -60.964500
vt 41.937801 -61.026501
vt 41.958302 -61.026501
vt 42.000000 -61.034000
vt 42.041698 -60.995499
vt 42.062199 -60.960999
vt 42.041698 -60.960999
vt 42.062199 -60.995499
vt 42.041698 -61.029900
vt 42.062199 -61.029900
vt 42.041698 -61.026501
vt 42.062199 -61.026501
vt 42.062199 -60.964500
vt 42.041698 -60.964500
vt 42.000000 -61.035599
s 1
usemtl Meshpart1Mtl.014
f 1/1/1 3/2/2 2/3/3
f 3/2/2 4/4/4 2/3/3
f 4/4/4 3/2/2 5/5/5
f 6/6/6 8/2/2 7/7/7
f 8/2/2 6/6/6 9/5/8
f 7/7/7 8/2/2 10/8/9
f 11/8/10 13/2/11 12/9/12
f 12/9/13 15/2/11 14/1/1
f 18/10/14 19/11/15 17/12/16
f 19/11/15 18/10/14 20/13/17
f 21/14/18 19/11/15 20/13/17
f 19/11/15 21/14/18 22/15/19
f 24/16/20 25/17/21 23/18/22
f 25/17/21 24/16/20 26/19/23
f 25/17/21 26/19/23 27/20/24
f 16/21/25 25/17/21 27/20/24
f 31/12/16 32/22/26 30/23/27
f 32/22/26 28/24/28 30/23/27
f 33/11/29 32/22/26 31/12/16
f 34/25/30 29/21/25 28/24/28
f 28/24/28 32/22/26 34/25/30
f 29/21/25 34/25/30 35/17/21
f 36/15/19 32/22/26 33/11/29
f 34/25/30 37/18/31 35/17/21
f 32/22/26 36/15/19 38/26/32
f 38/26/32 39/27/33 32/22/26
f 32/22/26 39/27/33 34/25/30
f 39/27/33 37/18/31 34/25/30
f 41/28/34 42/29/35 40/30/19
f 42/29/35 41/28/34 43/31/36
f 42/29/35 43/31/36 44/32/37
f 44/32/37 45/33/38 42/29/35
f 46/33/39 47/34/40 42/29/35
f 46/33/39 48/35/41 47/34/40
f 49/36/42 47/34/40 48/35/41
f 47/34/40 49/36/42 50/37/43
f 51/38/44 50/37/43 49/36/42
f 50/37/43 51/38/44 52/39/45
f 53/40/46 52/39/45 51/38/44
f 52/39/45 53/40/46 54/41/47
f 52/39/45 54/41/47 55/42/20
f 56/43/22 52/39/45 55/42/20
f 59/29/35 60/34/40 57/30/48
f 57/30/48 60/34/40 61/44/49
f 60/34/40 62/37/43 61/44/49
f 58/43/22 62/37/43 63/39/50
f 61/44/49 62/37/43 64/45/51
f 62/37/43 58/43/22 64/45/51
f 65/6/52 67/2/53 66/7/54
f 67/2/53 65/6/52 68/5/55
f 66/7/54 67/2/53 69/8/56
f 70/8/57 72/2/53 71/9/58
f 71/9/59 74/2/60 73/1/61
f 75/1/61 77/2/53 76/3/36
f 77/2/53 78/4/62 76/3/36
f 78/4/62 77/2/53 79/5/63
f 80/46/64 81/47/64 82/48/64
f 81/47/64 80/46/64 83/49/64
f 84/50/64 80/46/64 82/48/64
f 85/51/64 84/50/64 82/48/64
f 84/50/64 85/51/64 86/52/64
f 80/46/64 84/50/64 87/53/64
f 88/54/64 87/53/64 84/50/64
f 87/53/64 89/55/64 90/56/64
f 87/53/64 91/57/64 89/55/64
f 88/54/64 91/57/64 87/53/64
f 91/57/64 88/54/64 92/58/64
f 92/58/64 88/54/64 93/59/64
f 94/28/1 95/29/65 96/30/25
f 95/29/65 94/28/1 97/31/3
f 97/31/3 98/32/4 95/29/65
f 99/33/66 95/29/65 98/32/4
f 100/34/67 95/29/68 101/33/69
f 102/35/70 100/34/67 101/33/69
f 103/36/71 100/34/67 102/35/70
f 100/34/67 103/36/71 104/37/72
f 105/38/73 104/37/72 103/36/71
f 104/37/72 105/38/73 106/39/74
f 107/40/75 106/39/74 105/38/73
f 106/39/74 107/40/75 108/41/76
f 109/42/14 106/39/74 108/41/76
f 106/39/74 109/42/14 110/43/77
f 111/44/78 112/30/79 113/34/80
f 113/34/80 112/30/79 114/29/65
f 113/34/80 115/45/81 111/44/78
f 115/45/81 113/34/80 116/37/82
f 116/37/82 117/43/83 115/45/81
f 117/43/83 116/37/82 118/39/74
usemtl Meshpart2Mtl.012
f 119/60/84 120/61/85 121/62/86
f 120/61/85 122/63/87 121/62/86
f 120/61/85 119/60/84 123/64/88
f 122/63/87 120/61/85 124/65/89
f 126/66/90 130/67/91 128/68/92
f 129/69/93 130/67/91 126/66/90
f 128/68/92 130/67/91 127/70/10
f 125/71/94 130/67/91 129/69/93
f 127/70/10 130/67/91 131/72/12
f 132/73/95 130/67/91 125/71/94
f 131/72/12 130/67/91 133/74/1
f 133/74/1 130/67/91 132/73/95
f 136/75/96 134/76/97 135/77/97
f 136/75/96 137/78/98 134/76/97
f 136/75/96 138/79/99 137/78/98
f 138/79/99 136/75/96 139/80/100
f 140/81/101 141/82/102 142/83/103
f 141/82/102 140/81/101 143/84/104
f 144/85/103 142/83/103 141/82/102
f 140/81/101 145/86/105 143/84/104
f 142/83/103 144/85/103 146/87/105
f 140/81/101 147/88/105 145/86/105
f 144/85/103 148/89/104 146/87/105
f 149/90/104 145/86/105 147/88/105
f 148/89/104 144/85/103 150/91/106
f 147/88/105 151/92/103 149/90/104
f 152/93/105 148/89/104 150/91/106
f 153/94/107 149/90/104 151/92/103
f 152/93/105 150/91/106 154/95/105
f 149/90/104 153/94/107 155/96/108
f 152/93/105 155/96/108 153/94/107
f 155/96/108 152/93/105 154/95/105
f 158/97/30 156/98/25 157/99/28
f 159/100/27 158/97/30 157/99/28
f 158/97/30 159/100/27 160/101/109
f 156/98/25 158/97/30 161/102/21
f 162/103/16 160/101/109 159/100/27
f 166/104/15 163/105/14 164/106/17
f 165/107/61 166/104/15 164/106/17
f 163/105/14 166/104/15 162/103/16
f 160/101/109 162/103/16 166/104/15
f 165/107/61 167/108/19 166/104/15
f 167/108/19 160/101/109 166/104/15
f 160/101/109 167/108/19 168/109/32
f 169/110/33 160/101/109 168/109/32
f 160/101/109 169/110/33 158/97/30
f 170/111/31 158/97/30 169/110/33
f 158/97/30 170/111/31 161/102/21
f 171/112/9 161/102/21 170/111/31
f 161/102/21 171/112/9 172/113/23
f 172/113/23 173/114/24 161/102/21
f 156/98/25 161/102/21 173/114/24
f 174/115/110 176/116/111 175/117/112
f 176/116/111 174/115/110 177/118/113
f 178/119/114 176/116/111 177/118/113
f 176/116/111 178/119/114 179/120/115
f 182/121/116 180/122/117 183/123/118
f 181/124/119 183/123/118 180/122/117
f 183/123/118 184/125/34 182/121/116
f 184/125/34 183/123/118 185/126/120
f 185/126/120 183/123/118 186/127/121
f 181/124/119 186/127/121 183/123/118
f 187/128/49 185/126/120 186/127/121
f 186/127/121 189/129/122 187/128/49
f 188/130/51 187/128/49 189/129/122
f 186/127/121 181/124/119 190/131/123
f 189/129/122 191/132/124 188/130/51
f 190/131/123 192/133/125 186/127/121
f 189/129/122 186/127/121 192/133/125
f 189/129/122 192/133/125 193/134/126
f 191/132/124 189/129/122 194/135/127
f 194/135/127 189/129/122 193/134/126
f 195/136/128 194/135/127 193/134/126
f 196/137/20 191/132/124 194/135/127
f 194/135/127 195/136/128 197/138/129
f 196/137/20 194/135/127 197/138/129
f 198/139/114 199/116/130 200/140/114
f 199/116/130 198/139/114 201/118/111
f 201/118/111 202/141/97 199/116/130
f 202/141/97 201/118/111 203/142/112
f 208/143/131 206/144/132 204/145/133
f 205/146/134 207/147/135 208/143/131
f 206/144/132 208/143/131 209/148/136
f 209/148/136 208/143/131 207/147/135
f 210/66/137 214/67/138 211/68/139
f 212/69/140 214/67/138 210/66/137
f 211/68/139 214/67/138 213/70/57
f 215/71/141 214/67/138 212/69/140
f 216/73/142 214/67/138 215/71/141
f 213/70/57 214/67/138 217/72/58
f 218/74/61 214/67/138 216/73/142
f 217/72/58 214/67/138 218/74/61
f 221/149/143 219/150/144 220/151/144
f 221/149/143 222/152/145 219/150/144
f 221/149/143 223/153/146 222/152/145
f 223/153/146 221/149/143 224/154/134
f 225/155/147 226/156/148 227/157/149
f 225/155/147 227/157/149 228/158/150
f 229/159/149 227/157/149 226/156/148
f 230/160/149 225/155/147 228/158/150
f 226/156/148 231/161/150 229/159/149
f 225/155/147 230/160/149 232/162/149
f 233/163/151 229/159/149 231/161/150
f 234/164/149 232/162/149 230/160/149
f 229/159/149 233/163/151 235/165/148
f 232/162/149 234/164/149 236/166/149
f 237/167/150 235/165/148 233/163/151
f 234/164/149 238/168/149 236/166/149
f 235/165/148 237/167/150 239/169/147
f 238/168/149 234/164/149 240/170/149
f 237/167/150 240/170/149 239/169/147
f 237/167/150 238/168/149 240/170/149
f 243/97/152 242/98/153 241/99/154
f 241/99/154 244/100/155 243/97/152
f 246/101/156 244/100/155 245/103/157
f 246/101/156 243/97/152 244/100/155
f 242/98/153 243/97/152 249/102/158
f 242/98/153 249/102/158 248/114/159
f 248/114/159 249/102/158 250/113/160
f 249/102/158 251/112/161 250/113/160
f 251/112/161 249/102/158 252/111/162
f 252/111/162 249/102/158 243/97/152
f 253/110/163 252/111/162 243/97/152
f 243/97/152 246/101/156 253/110/163
f 254/109/164 253/110/163 246/101/156
f 246/101/156 255/108/126 254/109/164
f 255/108/126 246/101/156 256/104/165
f 256/104/165 246/101/156 245/103/157
f 257/107/128 255/108/126 256/104/165
f 247/105/166 256/104/165 245/103/157
f 257/107/128 256/104/165 258/106/167
f 256/104/165 247/105/166 258/106/167
f 261/171/168 259/172/169 260/173/170
f 259/172/169 261/171/168 262/174/171
f 261/171/168 263/175/172 262/174/171
f 264/176/173 263/175/172 261/171/168
f 265/123/174 266/127/175 267/126/79
f 266/127/175 268/128/176 267/126/79
f 266/127/175 269/129/177 268/128/176
f 270/130/178 268/128/176 269/129/177
f 269/129/177 271/132/77 270/130/178
f 269/129/177 266/127/175 272/133/179
f 271/132/77 269/129/177 273/135/180
f 272/133/179 274/134/153 269/129/177
f 274/134/153 273/135/180 269/129/177
f 275/131/181 272/133/179 266/127/175
f 266/127/175 276/124/182 275/131/181
f 276/124/182 266/127/175 265/123/174
f 277/122/166 276/124/182 265/123/174
f 278/136/159 273/135/180 274/134/153
f 273/135/180 278/136/159 279/138/183
f 279/138/183 280/137/14 273/135/180
f 271/132/77 273/135/180 280/137/14
f 277/122/166 265/123/174 281/121/184
f 265/123/174 282/125/1 281/121/184
f 282/125/1 265/123/174 267/126/79
f 285/171/168 283/177/173 284/178/173
f 283/177/173 285/171/168 286/174/185
f 287/179/99 286/174/185 285/171/168
f 286/174/185 287/179/99 288/180/99
usemtl Meshpart3Mtl.008
f 289/181/91 290/182/91 291/183/91
f 292/184/186 291/183/91 290/182/91
f 290/182/91 289/181/91 293/185/91
f 294/186/91 293/185/91 289/181/91
f 293/185/91 294/186/91 295/187/91
f 292/184/186 290/182/91 296/188/186
f 296/188/186 297/189/91 292/184/186
f 297/189/91 296/188/186 298/190/91
f 299/191/186 297/189/91 298/190/91
f 297/189/91 299/191/186 300/192/186
f 301/193/186 300/192/186 299/191/186
f 300/192/186 301/193/186 302/194/186
f 301/193/186 303/195/91 302/194/186
f 303/195/91 301/193/186 304/196/91
f 305/186/91 303/195/91 304/196/91
f 304/196/91 306/187/91 305/186/91
f 307/197/187 308/198/186 309/199/188
f 309/199/188 308/198/186 310/200/186
f 311/198/91 312/201/189 310/200/91
f 312/201/189 311/198/91 313/202/190
f 314/203/188 315/204/188 316/205/186
f 315/204/188 317/200/186 316/205/186
f 316/205/186 317/200/186 318/206/189
f 317/200/186 319/207/189 318/206/189
f 320/208/191 321/209/91 322/210/192
f 321/209/91 320/208/191 323/211/193
f 324/212/194 322/210/192 321/209/91
f 321/209/91 325/213/195 324/212/194
f 326/191/91 327/189/91 328/190/91
f 327/189/91 329/188/91 328/190/91
f 327/189/91 326/191/91 330/192/91
f 329/188/91 327/189/91 331/184/91
f 332/193/91 330/192/91 326/191/91
f 331/184/91 333/182/91 329/188/91
f 330/192/91 332/193/91 334/194/91
f 331/184/91 335/183/91 333/182/91
f 332/193/91 336/195/186 334/194/91
f 337/181/186 333/182/91 335/183/91
f 336/195/186 332/193/91 338/196/186
f 339/186/91 336/195/186 338/196/186
f 338/196/186 340/187/91 339/186/91
f 333/182/91 337/181/186 341/185/186
f 342/186/91 341/185/186 337/181/186
f 341/185/186 342/186/91 343/187/91
f 346/214/196 345/215/197 344/216/198
f 345/215/197 346/214/196 347/217/196
f 348/218/199 347/217/196 346/214/196
f 347/217/196 348/218/199 349/219/200
f 351/220/197 350/221/197 352/214/196
f 350/221/197 353/217/196 352/214/196
f 352/214/196 353/217/196 354/222/199
f 353/217/196 355/223/199 354/222/199
f 356/224/196 357/225/197 358/226/196
f 358/226/196 357/225/197 359/227/198
f 360/228/199 356/224/196 358/226/196
f 361/229/201 356/224/196 360/228/199
f 362/230/197 363/226/196 364/231/197
f 363/226/196 362/230/197 365/224/196
f 366/232/199 363/226/196 365/224/196
f 363/226/196 366/232/199 367/233/199
f 368/234/202 369/235/203 370/236/204
f 369/235/203 371/237/205 370/236/204
f 369/235/203 368/234/202 372/238/202
f 371/237/205 369/235/203 373/239/205
f 374/240/206 371/237/205 373/239/205
f 373/239/205 375/241/206 374/240/206
f 376/242/207 372/238/202 368/234/202
f 372/238/202 376/242/207 377/243/208
f 376/242/207 378/244/209 377/243/208
f 378/244/209 376/242/207 379/245/210
f 379/245/210 380/246/211 378/244/209
f 379/245/210 381/247/211 380/246/211
f 382/248/212 380/246/211 381/247/211
f 380/246/211 382/248/212 383/249/212
f 384/240/206 383/249/212 382/248/212
f 383/249/212 384/240/206 385/241/206
f 388/249/213 389/239/214 387/246/215
f 388/249/213 390/241/216 389/239/214
f 391/235/217 387/246/215 389/239/214
f 387/246/215 391/235/217 386/244/218
f 386/244/218 391/235/217 392/238/219
f 386/244/218 392/238/219 393/243/220
f 394/250/111 395/251/111 396/252/221
f 394/250/111 396/252/221 397/253/221
f 399/254/222 398/255/223 400/251/113
f 399/254/222 400/251/113 401/250/113
f 404/250/111 402/256/224 403/257/224
f 402/256/224 404/250/111 405/251/113
f 406/258/225 405/251/113 404/250/111
f 405/251/113 406/258/225 407/259/225
f 408/201/226 409/200/113 410/202/227
f 409/200/113 411/260/113 410/202/227
f 412/200/111 413/197/193 414/260/111
f 413/197/193 412/200/111 415/199/228
f 417/206/229 418/200/113 416/207/226
f 417/206/229 419/205/113 418/200/113
f 422/205/230 420/203/231 421/204/231
f 422/205/230 421/204/231 423/200/111
f 426/261/111 425/262/225 424/263/225
f 426/261/111 427/264/111 425/262/225
f 429/265/224 428/266/232 430/264/113
f 429/265/224 430/264/113 431/261/113
f 434/264/113 432/267/225 433/268/225
f 432/267/225 434/264/113 435/261/111
f 436/269/224 435/261/111 434/264/113
f 435/261/111 436/269/224 437/270/224
f 442/210/233 440/208/234 441/211/235
f 442/210/233 439/213/193 438/212/236
f 442/210/233 441/211/235 443/271/113
f 439/213/193 442/210/233 443/271/113
f 444/196/237 445/186/237 446/195/237
f 445/186/237 444/196/237 447/187/237
f 446/195/237 448/193/237 444/196/237
f 449/185/237 445/186/237 447/187/237
f 446/195/237 450/194/237 448/193/237
f 445/186/237 449/185/237 451/181/237
f 452/192/237 448/193/237 450/194/237
f 453/182/237 451/181/237 449/185/237
f 448/193/237 452/192/237 454/191/237
f 455/189/237 454/191/237 452/192/237
f 454/191/237 455/189/237 456/190/237
f 451/181/237 453/182/237 457/183/237
f 453/182/237 458/184/138 457/183/237
f 458/184/138 453/182/237 459/188/138
f 460/189/237 458/184/138 459/188/138
f 459/188/138 461/190/237 460/189/237
f 462/200/138 463/199/226 464/198/138
f 463/199/226 465/197/235 464/198/138
f 466/198/237 467/201/238 462/200/237
f 467/201/238 466/198/237 468/202/239
f 469/206/238 470/200/237 471/207/238
f 470/200/237 469/206/238 472/205/237
f 472/205/237 473/204/226 470/200/237
f 473/204/226 472/205/237 474/203/226
f 477/209/138 475/208/240 476/211/241
f 475/208/240 477/209/138 478/210/242
f 477/209/138 479/212/243 478/210/242
f 479/212/243 477/209/138 480/213/235
f 481/181/138 482/182/237 483/183/237
f 482/182/237 484/184/237 483/183/237
f 482/182/237 481/181/138 485/185/138
f 484/184/237 482/182/237 486/188/237
f 487/189/237 484/184/237 486/188/237
f 486/188/237 488/190/237 487/189/237
f 489/186/237 485/185/138 481/181/138
f 485/185/138 489/186/237 490/187/237
f 489/186/237 491/196/138 490/187/237
f 491/196/138 489/186/237 492/195/138
f 492/195/138 493/193/237 491/196/138
f 492/195/138 494/194/237 493/193/237
f 495/192/237 493/193/237 494/194/237
f 493/193/237 495/192/237 496/191/237
f 497/189/237 496/191/237 495/192/237
f 496/191/237 497/189/237 498/190/237
f 499/235/64 500/243/64 501/241/64
f 500/243/64 499/235/64 502/238/64
f 499/235/64 501/241/64 503/239/64
f 500/243/64 504/246/64 501/241/64
f 501/241/64 504/246/64 505/249/64
f 504/246/64 500/243/64 506/244/64
f 507/235/64 508/237/64 509/236/64
f 510/234/64 507/235/64 509/236/64
f 508/237/64 507/235/64 511/239/64
f 512/240/64 508/237/64 511/239/64
f 511/239/64 513/241/64 512/240/64
f 507/235/64 510/234/64 514/238/64
f 515/242/64 514/238/64 510/234/64
f 514/238/64 515/242/64 516/243/64
f 515/242/64 517/244/64 516/243/64
f 517/244/64 515/242/64 518/245/64
f 518/245/64 519/246/64 517/244/64
f 518/245/64 520/247/64 519/246/64
f 521/248/64 519/246/64 520/247/64
f 519/246/64 521/248/64 522/249/64
f 523/240/64 522/249/64 521/248/64
f 522/249/64 523/240/64 524/241/64
f 525/228/244 526/229/245 527/224/64
f 525/228/244 527/224/64 528/226/64
f 528/226/64 527/224/64 529/225/246
f 528/226/64 529/225/246 530/227/247
f 531/230/247 532/226/64 533/231/247
f 532/226/64 531/230/247 534/224/64
f 534/224/64 535/233/245 532/226/64
f 535/233/245 534/224/64 536/232/245
f 537/218/244 538/219/245 539/217/64
f 537/218/244 539/217/64 540/214/64
f 540/214/64 539/217/64 541/215/246
f 540/214/64 541/215/246 542/216/247
f 544/220/247 543/221/247 545/214/64
f 543/221/247 546/217/64 545/214/64
f 545/214/64 546/217/64 547/222/245
f 546/217/64 548/223/245 547/222/245
f 549/263/248 551/264/168 550/262/249
f 551/264/168 549/263/248 552/261/168
f 552/261/168 553/266/250 551/264/168
f 553/266/250 552/261/168 554/265/250
f 556/270/251 557/264/171 555/269/251
f 557/264/171 556/270/251 558/261/171
f 560/268/252 561/261/168 559/267/252
f 561/261/168 560/268/252 562/264/168
f 563/197/239 564/200/171 565/199/253
f 564/200/171 563/197/239 566/260/171
f 567/202/254 568/200/168 569/260/168
f 568/200/168 567/202/254 570/201/188
f 572/204/253 573/205/168 571/203/253
f 574/200/168 573/205/168 572/204/253
f 574/200/168 575/206/188 573/205/168
f 576/207/188 575/206/188 574/200/168
f 577/253/252 579/251/168 578/252/255
f 579/251/168 577/253/252 580/250/168
f 580/250/168 581/255/251 579/251/168
f 581/255/251 580/250/168 582/254/251
f 585/250/168 584/258/252 583/259/248
f 586/251/168 585/250/168 583/259/248
f 587/256/251 588/257/250 589/251/171
f 588/257/250 590/250/171 589/251/171
f 592/211/187 593/210/256 591/208/257
f 594/271/168 593/210/256 592/211/187
f 596/210/258 597/213/239 595/212/259
f 597/213/239 596/210/258 598/271/171
