# Blender 5.2.2 LTS
# www.blender.org
mtllib PERFECT.mtl
o broooom
v -0.455818 1.722144 0.330211
v -0.460180 1.919744 0.299463
v -0.203849 1.695297 0.397260
v -0.440247 2.140378 0.209847
v -0.214485 1.893564 0.364843
v 0.003027 1.879146 0.220792
v 0.019218 1.680511 0.249530
v -0.053291 2.106467 0.144126
v -0.234996 2.118507 0.264464
v -0.387850 2.373438 0.114621
v -0.323474 2.573474 0.056818
v -0.258002 2.359534 0.149172
v -0.143054 2.351981 0.073045
v -0.275133 2.563819 0.069284
v -0.232514 2.565501 0.041369
v -0.279820 2.696393 0.065888
v -0.261701 2.702354 0.055769
v -0.300241 2.705733 0.062315
v -0.277876 2.787742 0.102478
v -0.068090 0.697610 0.129835
v -0.001252 0.472588 0.172772
v -0.179327 0.484388 0.290706
v -0.341502 0.721572 0.176271
v -0.380474 0.505822 0.237179
v -0.327494 0.913875 0.152643
v -0.196478 0.706120 0.214864
v -0.206695 0.901004 0.184787
v -0.099753 0.893916 0.113962
v -0.207425 1.091929 0.225216
v -0.079037 1.083419 0.140186
v -0.352449 1.107381 0.186623
v -0.205193 1.268789 0.284564
v -0.043632 1.258084 0.177567
v -0.387683 1.288233 0.236002
v -0.204044 1.436940 0.333647
v -0.015410 1.424433 0.208720
v 0.001317 1.560864 0.229068
v -0.204247 1.574491 0.365207
v -0.417121 1.459642 0.276947
v -0.436448 1.599234 0.303419
v -0.277876 2.787742 0.102478
v -0.305807 2.742656 0.029261
v -0.267270 2.739278 0.022715
v -0.287692 2.748619 0.019142
v -0.455818 1.722144 0.330211
v -0.460180 1.919744 0.299463
v -0.589093 1.745328 0.087655
v -0.590134 1.942353 0.062948
v -0.525597 1.751265 -0.188320
v -0.528222 1.948140 -0.206153
v -0.548809 2.159265 0.012267
v -0.440247 2.140378 0.209847
v -0.497088 2.164099 -0.212536
v -0.423816 2.388781 -0.152576
v -0.387850 2.373438 0.114621
v -0.456532 2.385555 -0.010367
v -0.337293 2.600828 -0.040671
v -0.323474 2.573474 0.056818
v -0.349220 2.588801 0.011273
v -0.300241 2.705733 0.062315
v -0.277876 2.787742 0.102478
v -0.311005 2.724895 0.047143
v -0.305807 2.742656 0.029261
v -0.381665 0.738333 -0.122175
v -0.436179 0.529070 -0.176763
v -0.486867 0.524329 0.043548
v -0.360948 0.927836 -0.095950
v -0.418211 0.734917 0.036666
v -0.391387 0.924989 0.036357
v -0.341502 0.721572 0.176271
v -0.380474 0.505822 0.237179
v -0.327494 0.913875 0.152643
v -0.429156 1.120724 0.047018
v -0.352449 1.107381 0.186623
v -0.387683 1.288233 0.236002
v -0.484208 1.305024 0.060329
v -0.529822 1.479245 0.071832
v -0.392611 1.124142 -0.111823
v -0.438222 1.309324 -0.139551
v -0.476129 1.484268 -0.161544
v -0.500752 1.626071 -0.174426
v -0.417121 1.459642 0.276947
v -0.436448 1.599234 0.303419
v -0.559265 1.620596 0.079894
v -0.525597 1.751265 -0.188320
v -0.528222 1.948140 -0.206153
v -0.302532 1.736479 -0.336049
v -0.050561 1.709632 -0.269000
v -0.062987 1.587700 -0.248776
v -0.065015 1.907542 -0.284825
v -0.310710 1.933722 -0.350207
v -0.110131 2.130188 -0.278257
v -0.497088 2.164099 -0.212536
v -0.315381 2.152054 -0.332873
v -0.179022 2.367325 -0.194152
v -0.423816 2.388781 -0.152576
v -0.308869 2.381229 -0.228700
v -0.337293 2.600828 -0.040671
v -0.246332 2.592854 -0.056120
v -0.305807 2.742656 0.029261
v -0.267270 2.739278 0.022715
v -0.287692 2.748619 0.019142
v -0.294677 2.602506 -0.068587
v -0.108252 0.714371 -0.168611
v -0.056957 0.495834 -0.241171
v -0.258106 0.517265 -0.294699
v -0.253276 0.729824 -0.207201
v -0.133207 0.907877 -0.134630
v -0.381665 0.738333 -0.122175
v -0.436179 0.529070 -0.176763
v -0.360948 0.927836 -0.095950
v -0.254006 0.920748 -0.166775
v -0.119199 1.100180 -0.158259
v -0.392611 1.124142 -0.111823
v -0.438222 1.309324 -0.139551
v -0.264222 1.115632 -0.196849
v -0.276665 1.298617 -0.246547
v -0.094171 1.279175 -0.197985
v -0.287495 1.471767 -0.286469
v -0.074419 1.449060 -0.229771
v -0.476129 1.484268 -0.161544
v -0.295187 1.612443 -0.310566
v -0.500752 1.626071 -0.174426
v -0.258106 0.517265 -0.294699
v -0.264916 0.397792 -0.044557
v -0.436179 0.529070 -0.176763
v -0.224542 0.395119 -0.071296
v -0.276409 0.396718 0.005394
v -0.486867 0.524329 0.043548
v -0.380474 0.505822 0.237179
v -0.252286 0.392522 0.049295
v -0.179327 0.484388 0.290706
v -0.206680 0.387665 0.061430
v -0.178937 0.390259 -0.059159
v -0.056957 0.495834 -0.241171
v -0.166307 0.384988 0.034692
v -0.001252 0.472588 0.172772
v -0.154814 0.386062 -0.015257
v 0.049435 0.477328 -0.047539
v 0.003027 1.879146 0.220792
v 0.019218 1.680511 0.249530
v 0.082712 1.686448 -0.026444
v -0.053291 2.106467 0.144126
v 0.064940 1.884938 -0.048311
v -0.050561 1.709632 -0.269000
v -0.062987 1.587700 -0.248776
v -0.065015 1.907542 -0.284825
v -0.001570 2.111303 -0.080676
v -0.110131 2.130188 -0.278257
v -0.179022 2.367325 -0.194152
v -0.143054 2.351981 0.073045
v -0.232514 2.565501 0.041369
v -0.110339 2.355214 -0.069164
v -0.246332 2.592854 -0.056120
v -0.220587 2.577526 -0.010574
v -0.261701 2.702354 0.055769
v -0.277876 2.787742 0.102478
v -0.256503 2.720115 0.037887
v -0.267270 2.739278 0.022715
v 0.049435 0.477328 -0.047539
v -0.108252 0.714371 -0.168611
v -0.031544 0.701028 -0.029005
v -0.056957 0.495834 -0.241171
v -0.068090 0.697610 0.129835
v -0.001252 0.472588 0.172772
v -0.133207 0.907877 -0.134630
v -0.099753 0.893916 0.113962
v -0.069313 0.896763 -0.018345
v -0.042491 1.086836 -0.018653
v -0.079037 1.083419 0.140186
v -0.119199 1.100180 -0.158259
v 0.002354 1.262384 -0.022310
v -0.043632 1.258084 0.177567
v -0.094171 1.279175 -0.197985
v 0.038283 1.429457 -0.024655
v -0.074419 1.449060 -0.229771
v -0.015410 1.424433 0.208720
v 0.059830 1.566339 -0.025253
v 0.001317 1.560864 0.229068
v -0.095560 -2.322546 -0.042575
v -0.080121 -2.291939 -0.029156
v -0.129001 -2.287937 0.002948
v -0.130947 -2.319649 -0.019333
v -0.170833 -2.315946 -0.029789
v -0.184097 -2.282826 -0.011496
v -0.076421 0.931146 0.134721
v -0.073404 0.824838 0.131870
v -0.203407 0.939564 0.218822
v -0.346848 0.954849 0.180652
v -0.343832 0.848537 0.177799
v -0.200391 0.833251 0.215969
v -0.260652 0.417075 0.061301
v -0.156676 0.407963 0.043642
v -0.139059 -0.215715 0.026316
v -0.205500 0.411201 0.075977
v -0.243036 -0.206601 0.043975
v -0.187781 -0.217249 0.058277
v -0.106680 -0.926940 0.099112
v -0.210657 -0.917826 0.116771
v -0.155505 -0.924946 0.131152
v -0.097329 -1.712222 -0.019334
v -0.201306 -1.703109 -0.001675
v -0.184097 -2.282826 -0.011496
v -0.146154 -1.710228 0.012705
v -0.129001 -2.287937 0.002948
v -0.080121 -2.291939 -0.029156
v -0.040275 0.934526 -0.022384
v -0.076421 0.931146 0.134721
v -0.116144 0.947724 -0.160465
v -0.064886 0.965956 -0.017557
v -0.096537 0.962996 0.120011
v -0.131322 0.977513 -0.138467
v -0.207732 0.970369 0.193654
v -0.333336 0.983750 0.160229
v -0.203407 0.939564 0.218822
v -0.346848 0.954849 0.180652
v -0.368120 0.998267 -0.098249
v -0.399772 0.995307 0.039319
v -0.256924 0.990899 -0.171890
v -0.386572 0.971427 -0.114534
v -0.422717 0.968048 0.042571
v -0.259585 0.963009 -0.198635
v -0.171949 0.414336 -0.069856
v -0.142778 0.409262 -0.016764
v -0.289823 0.422151 0.008211
v -0.227100 0.420215 -0.084531
v -0.275925 0.423450 -0.052196
v -0.260652 0.417075 0.061301
v -0.156676 0.407963 0.043642
v -0.205500 0.411201 0.075977
v -0.199106 -2.280138 -0.123877
v -0.170833 -2.315946 -0.029789
v -0.184097 -2.282826 -0.011496
v -0.213136 -2.279592 -0.064030
v -0.181699 -2.313997 -0.111149
v -0.191857 -2.313608 -0.067822
v -0.346848 0.954849 0.180652
v -0.386572 0.971427 -0.114534
v -0.422717 0.968048 0.042571
v -0.383555 0.865114 -0.117387
v -0.343832 0.848537 0.177799
v -0.419700 0.861734 0.039718
v -0.289823 0.422151 0.008211
v -0.275925 0.423450 -0.052196
v -0.258806 -0.177189 -0.067718
v -0.225933 -0.905450 0.004705
v -0.272455 -0.190007 -0.008214
v -0.260652 0.417075 0.061301
v -0.243036 -0.206601 0.043975
v -0.239830 -0.909750 0.064395
v -0.210657 -0.917826 0.116771
v -0.201306 -1.703109 -0.001675
v -0.230479 -1.695033 -0.054050
v -0.213136 -2.279592 -0.064030
v -0.184097 -2.282826 -0.011496
v -0.199106 -2.280138 -0.123877
v -0.216582 -1.690731 -0.113742
v -0.113128 0.841416 -0.163317
v -0.116144 0.947724 -0.160465
v -0.386572 0.971427 -0.114534
v -0.259585 0.963009 -0.198635
v -0.383555 0.865114 -0.117387
v -0.256569 0.856696 -0.201488
v -0.154829 -0.186302 -0.085378
v -0.171949 0.414336 -0.069856
v -0.210083 -0.175654 -0.099680
v -0.227100 0.420215 -0.084531
v -0.275925 0.423450 -0.052196
v -0.258806 -0.177189 -0.067718
v -0.177107 -0.907440 -0.027335
v -0.121956 -0.914562 -0.012955
v -0.225933 -0.905450 0.004705
v -0.199106 -2.280138 -0.123877
v -0.216582 -1.690731 -0.113742
v -0.150225 -2.284134 -0.155982
v -0.167756 -1.692722 -0.145782
v -0.112605 -1.699845 -0.131401
v -0.095128 -2.289245 -0.141537
v -0.106423 -2.320597 -0.123934
v -0.095128 -2.289245 -0.141537
v -0.085402 -2.322936 -0.085903
v -0.146312 -2.316895 -0.134391
v -0.150225 -2.284134 -0.155982
v -0.095560 -2.322546 -0.042575
v -0.199106 -2.280138 -0.123877
v -0.130947 -2.319649 -0.019333
v -0.170833 -2.315946 -0.029789
v -0.181699 -2.313997 -0.111149
v -0.191857 -2.313608 -0.067822
v -0.037259 0.828217 -0.025236
v -0.113128 0.841416 -0.163317
v -0.073404 0.824838 0.131870
v -0.383555 0.865114 -0.117387
v -0.256569 0.856696 -0.201488
v -0.343832 0.848537 0.177799
v -0.419700 0.861734 0.039718
v -0.200391 0.833251 0.215969
v -0.395091 0.830305 0.034893
v -0.203051 0.805366 0.189226
v -0.328654 0.818748 0.155802
v -0.363438 0.833264 -0.102676
v -0.091856 0.797993 0.115584
v -0.126640 0.812510 -0.142895
v -0.252243 0.825896 -0.176318
v -0.060205 0.800953 -0.021985
v -0.066089 -2.292481 -0.089004
v -0.106423 -2.320597 -0.123934
v -0.095128 -2.289245 -0.141537
v -0.085402 -2.322936 -0.085903
v -0.095560 -2.322546 -0.042575
v -0.080121 -2.291939 -0.029156
v -0.037259 0.828217 -0.025236
v -0.113128 0.841416 -0.163317
v -0.040275 0.934526 -0.022384
v -0.076421 0.931146 0.134721
v -0.116144 0.947724 -0.160465
v -0.073404 0.824838 0.131870
v -0.154829 -0.186302 -0.085378
v -0.171949 0.414336 -0.069856
v -0.142778 0.409262 -0.016764
v -0.125409 -0.202896 -0.033188
v -0.121956 -0.914562 -0.012955
v -0.156676 0.407963 0.043642
v -0.139059 -0.215715 0.026316
v -0.092784 -0.922638 0.039420
v -0.106680 -0.926940 0.099112
v -0.097329 -1.712222 -0.019334
v -0.080121 -2.291939 -0.029156
v -0.066089 -2.292481 -0.089004
v -0.112605 -1.699845 -0.131401
v -0.095128 -2.289245 -0.141537
v -0.083433 -1.707921 -0.079025
v -0.083905 -1.437077 0.010093
v -0.077182 -1.471406 0.017161
v -0.136705 -1.438799 0.069725
v -0.093883 -1.492093 0.009300
v -0.133702 -1.455440 -0.098812
v -0.181121 -1.428373 -0.105107
v -0.127535 -1.421437 -0.098321
v -0.135203 -1.408978 0.055394
v -0.174955 -1.394365 -0.104617
v -0.212942 -1.373557 -0.071071
v -0.219110 -1.407564 -0.071560
v -0.209216 -1.427443 0.046099
v -0.211009 -1.396388 0.059860
v -0.199238 -1.372427 0.046891
v -0.145181 -1.463995 0.054600
v -0.169090 -1.584166 -0.129713
v -0.121218 -1.560727 -0.110872
v -0.211669 -1.552804 -0.095510
v -0.169309 -1.549095 -0.122931
v -0.120998 -1.595798 -0.117655
v -0.089177 -1.594809 0.000540
v -0.077708 -1.628052 0.003709
v -0.144082 -1.633864 0.046675
v -0.146378 -1.599818 0.037568
v -0.211320 -1.584106 0.021285
v -0.219437 -1.615632 0.027781
v -0.211450 -1.587874 -0.102293
v -0.169093 -1.533161 -0.117472
v -0.212218 -1.496881 -0.086203
v -0.121768 -1.504811 -0.101565
v -0.169808 -1.497093 -0.114178
v -0.121053 -1.540874 -0.104859
v -0.211504 -1.532950 -0.089497
v -0.211159 -1.564002 0.027334
v -0.220058 -1.535925 0.042271
v -0.089016 -1.574705 0.006589
v -0.090172 -1.516351 0.011918
v -0.078330 -1.548348 0.018200
v -0.144784 -1.548018 0.062036
v -0.146287 -1.574422 0.044367
v -0.147443 -1.516064 0.049696
v -0.212314 -1.505644 0.032663
v -0.115535 -1.744217 -0.121262
v -0.162126 -1.756790 -0.132182
v -0.167764 -1.721144 -0.136054
v -0.121174 -1.708567 -0.125136
v -0.203576 -1.759109 -0.102859
v -0.209214 -1.723461 -0.106732
v -0.083784 -1.723529 -0.009118
v -0.077469 -1.690398 -0.003726
v -0.142417 -1.694033 0.042219
v -0.139756 -1.726661 0.030477
v -0.202670 -1.743638 0.015733
v -0.215420 -1.713734 0.025109
v -0.114656 -1.416669 -0.119794
v -0.075394 -1.440261 -0.062472
v -0.083905 -1.437077 0.010093
v -0.098460 -1.438905 -0.055872
v -0.127535 -1.421437 -0.098321
v -0.104763 -1.436548 -0.002134
v -0.178691 -1.380116 -0.128295
v -0.135203 -1.408978 0.055394
v -0.142750 -1.415739 0.031411
v -0.174955 -1.394365 -0.104617
v -0.229988 -1.352014 -0.082996
v -0.212942 -1.373557 -0.071071
v -0.246691 -1.372706 -0.090857
v -0.238500 -1.348834 -0.010431
v -0.219245 -1.371201 -0.017333
v -0.256567 -1.369014 -0.006655
v -0.211009 -1.396388 0.059860
v -0.190171 -1.388672 0.025115
v -0.199238 -1.372427 0.046891
v -0.174747 -1.551778 -0.164529
v -0.099391 -1.570011 -0.145634
v -0.172806 -1.529083 -0.144448
v -0.241120 -1.557591 -0.121563
v -0.107863 -1.544790 -0.128164
v -0.230006 -1.534087 -0.107419
v -0.121218 -1.560727 -0.110872
v -0.211669 -1.552804 -0.095510
v -0.169309 -1.549095 -0.122931
v -0.095566 -1.580891 -0.066399
v -0.223482 -1.569681 -0.044673
v -0.073225 -1.572019 -0.068109
v -0.107379 -1.597769 -0.015562
v -0.089177 -1.594809 0.000540
v -0.149739 -1.601476 0.011859
v -0.146378 -1.599818 0.037568
v -0.211320 -1.584106 0.021285
v -0.197831 -1.589844 -0.000200
v -0.245960 -1.556877 -0.038771
v -0.108523 -1.491879 -0.120406
v -0.230666 -1.481175 -0.099661
v -0.173395 -1.481459 -0.137437
v -0.212218 -1.496881 -0.086203
v -0.121768 -1.504811 -0.101565
v -0.169808 -1.497093 -0.114178
v -0.224157 -1.504302 -0.034026
v -0.096240 -1.515514 -0.055751
v -0.074052 -1.506333 -0.058540
v -0.108178 -1.522931 -0.003574
v -0.090172 -1.516351 0.011918
v -0.150589 -1.522719 0.024401
v -0.147443 -1.516064 0.049696
v -0.212314 -1.505644 0.032663
v -0.198629 -1.515006 0.011788
v -0.246787 -1.491193 -0.029202
v -0.058622 -1.704962 -0.085812
v -0.109666 -1.699280 -0.146574
v -0.167764 -1.721144 -0.136054
v -0.121174 -1.708567 -0.125136
v -0.172581 -1.716261 -0.161320
v -0.209214 -1.723461 -0.106732
v -0.228554 -1.719394 -0.121725
v -0.076664 -1.678402 -0.086126
v -0.096734 -1.693107 -0.080371
v -0.092906 -1.665852 -0.015385
v -0.108761 -1.683813 -0.027984
v -0.077469 -1.690398 -0.003726
v -0.142417 -1.694033 0.042219
v -0.148878 -1.668984 0.024210
v -0.150211 -1.686133 0.001338
v -0.196802 -1.698705 -0.009582
v -0.215420 -1.713734 0.025109
v -0.211793 -1.685961 0.009465
v -0.221241 -1.714171 -0.054346
v -0.244796 -1.706844 -0.050983
v -0.098460 -1.438905 -0.055872
v -0.110930 -1.470551 -0.002625
v -0.104627 -1.472912 -0.056362
v -0.133702 -1.455440 -0.098812
v -0.127535 -1.421437 -0.098321
v -0.104763 -1.436548 -0.002134
v -0.246691 -1.372706 -0.090857
v -0.239967 -1.407036 -0.083789
v -0.256567 -1.369014 -0.006655
v -0.248478 -1.403851 -0.011224
v -0.209216 -1.427443 0.046099
v -0.211009 -1.396388 0.059860
v -0.229651 -1.590833 -0.118394
v -0.241120 -1.557591 -0.121563
v -0.259631 -1.584037 -0.041906
v -0.230006 -1.534087 -0.107419
v -0.121218 -1.560727 -0.110872
v -0.095566 -1.580891 -0.066399
v -0.095346 -1.615960 -0.073181
v -0.120998 -1.595798 -0.117655
v -0.107160 -1.632839 -0.022344
v -0.107379 -1.597769 -0.015562
v -0.211320 -1.584106 0.021285
v -0.219437 -1.615632 0.027781
v -0.210965 -1.640853 0.010311
v -0.245960 -1.556877 -0.038771
v -0.245605 -1.613624 -0.049745
v -0.229510 -1.539533 -0.104989
v -0.241352 -1.507532 -0.111272
v -0.230666 -1.481175 -0.099661
v -0.260058 -1.519158 -0.029515
v -0.121768 -1.504811 -0.101565
v -0.121053 -1.540874 -0.104859
v -0.245631 -1.549550 -0.034532
v -0.211159 -1.564002 0.027334
v -0.220058 -1.535925 0.042271
v -0.095526 -1.551579 -0.059046
v -0.096240 -1.515514 -0.055751
v -0.107464 -1.558999 -0.006869
v -0.108178 -1.522931 -0.003574
v -0.212314 -1.505644 0.032663
v -0.246787 -1.491193 -0.029202
v -0.115535 -1.744217 -0.121262
v -0.091096 -1.728752 -0.076498
v -0.234869 -1.752525 -0.127117
v -0.121174 -1.708567 -0.125136
v -0.228554 -1.719394 -0.121725
v -0.096734 -1.693107 -0.080371
v -0.253715 -1.737963 -0.045032
v -0.108761 -1.683813 -0.027984
v -0.103124 -1.719458 -0.024111
v -0.202670 -1.743638 0.015733
v -0.215420 -1.713734 0.025109
v -0.211793 -1.685961 0.009465
v -0.244796 -1.706844 -0.050983
v -0.235674 -1.764521 -0.044717
v -0.187167 -1.405308 -0.143420
v -0.112863 -1.447724 -0.133556
v -0.124634 -1.471685 -0.120588
v -0.114656 -1.416669 -0.119794
v -0.110930 -1.470551 -0.002625
v -0.104763 -1.436548 -0.002134
v -0.178691 -1.380116 -0.128295
v -0.142750 -1.415739 0.031411
v -0.229988 -1.352014 -0.082996
v -0.246691 -1.372706 -0.090857
v -0.239967 -1.407036 -0.083789
v -0.188669 -1.435134 -0.129089
v -0.190171 -1.388672 0.025115
v -0.196338 -1.422676 0.024626
v -0.148918 -1.449747 0.030922
v -0.174747 -1.551778 -0.164529
v -0.107509 -1.601536 -0.139139
v -0.172450 -1.585825 -0.155422
v -0.229651 -1.590833 -0.118394
v -0.099391 -1.570011 -0.145634
v -0.241120 -1.557591 -0.121563
v -0.107160 -1.632839 -0.022344
v -0.107379 -1.597769 -0.015562
v -0.149739 -1.601476 0.011859
v -0.149519 -1.636547 0.005076
v -0.197611 -1.624914 -0.006982
v -0.197831 -1.589844 -0.000200
v -0.107368 -1.550237 -0.125735
v -0.174898 -1.507862 -0.155107
v -0.099624 -1.519956 -0.135343
v -0.108523 -1.491879 -0.120406
v -0.172240 -1.539816 -0.142767
v -0.229510 -1.539533 -0.104989
v -0.241352 -1.507532 -0.111272
v -0.230666 -1.481175 -0.099661
v -0.173395 -1.481459 -0.137437
v -0.197914 -1.551070 0.008494
v -0.107464 -1.558999 -0.006869
v -0.108178 -1.522931 -0.003574
v -0.149874 -1.558788 0.021107
v -0.150589 -1.522719 0.024401
v -0.198629 -1.515006 0.011788
v -0.096917 -1.729189 -0.155952
v -0.169921 -1.748890 -0.173062
v -0.109666 -1.699280 -0.146574
v -0.234869 -1.752525 -0.127117
v -0.172581 -1.716261 -0.161320
v -0.228554 -1.719394 -0.121725
v -0.108761 -1.683813 -0.027984
v -0.103124 -1.719458 -0.024111
v -0.144573 -1.721778 0.005211
v -0.150211 -1.686133 0.001338
v -0.196802 -1.698705 -0.009582
v -0.191164 -1.734351 -0.005708
v -0.112863 -1.447724 -0.133556
v -0.124634 -1.471685 -0.120588
v -0.085372 -1.495278 -0.063265
v -0.067305 -1.475099 -0.067041
v -0.077182 -1.471406 0.017161
v -0.093883 -1.492093 0.009300
v -0.110930 -1.470551 -0.002625
v -0.104627 -1.472912 -0.056362
v -0.133702 -1.455440 -0.098812
v -0.181121 -1.428373 -0.105107
v -0.239967 -1.407036 -0.083789
v -0.219110 -1.407564 -0.071560
v -0.188669 -1.435134 -0.129089
v -0.225412 -1.405204 -0.017824
v -0.248478 -1.403851 -0.011224
v -0.209216 -1.427443 0.046099
v -0.196338 -1.422676 0.024626
v -0.145181 -1.463995 0.054600
v -0.148918 -1.449747 0.030922
v -0.107509 -1.601536 -0.139139
v -0.172450 -1.585825 -0.155422
v -0.229651 -1.590833 -0.118394
v -0.169090 -1.584166 -0.129713
v -0.095346 -1.615960 -0.073181
v -0.120998 -1.595798 -0.117655
v -0.072870 -1.628765 -0.079083
v -0.088822 -1.651556 -0.010434
v -0.107160 -1.632839 -0.022344
v -0.077708 -1.628052 0.003709
v -0.146023 -1.656564 0.026594
v -0.149519 -1.636547 0.005076
v -0.144082 -1.633864 0.046675
v -0.219437 -1.615632 0.027781
v -0.197611 -1.624914 -0.006982
v -0.210965 -1.640853 0.010311
v -0.223263 -1.604752 -0.051455
v -0.245605 -1.613624 -0.049745
v -0.211450 -1.587874 -0.102293
v -0.107368 -1.550237 -0.125735
v -0.172240 -1.539816 -0.142767
v -0.169093 -1.533161 -0.117472
v -0.229510 -1.539533 -0.104989
v -0.121053 -1.540874 -0.104859
v -0.211504 -1.532950 -0.089497
v -0.223442 -1.540370 -0.037320
v -0.245631 -1.549550 -0.034532
v -0.072896 -1.564687 -0.063869
v -0.211159 -1.564002 0.027334
v -0.197914 -1.551070 0.008494
v -0.095526 -1.551579 -0.059046
v -0.089016 -1.574705 0.006589
v -0.107464 -1.558999 -0.006869
v -0.146287 -1.574422 0.044367
v -0.149874 -1.558788 0.021107
v -0.163459 -1.773939 -0.155054
v -0.096917 -1.729189 -0.155952
v -0.100545 -1.756957 -0.140308
v -0.169921 -1.748890 -0.173062
v -0.115535 -1.744217 -0.121262
v -0.067542 -1.736079 -0.079860
v -0.091096 -1.728752 -0.076498
v -0.162126 -1.756790 -0.132182
v -0.219431 -1.777071 -0.115458
v -0.234869 -1.752525 -0.127117
v -0.203576 -1.759109 -0.102859
v -0.253715 -1.737963 -0.045032
v -0.103124 -1.719458 -0.024111
v -0.144573 -1.721778 0.005211
v -0.083784 -1.723529 -0.009118
v -0.139756 -1.726661 0.030477
v -0.202670 -1.743638 0.015733
v -0.191164 -1.734351 -0.005708
v -0.235674 -1.764521 -0.044717
v -0.215603 -1.749816 -0.050473
v -0.112863 -1.447724 -0.133556
v -0.114656 -1.416669 -0.119794
v -0.067305 -1.475099 -0.067041
v -0.075394 -1.440261 -0.062472
v -0.083905 -1.437077 0.010093
v -0.077182 -1.471406 0.017161
v -0.212942 -1.373557 -0.071071
v -0.219110 -1.407564 -0.071560
v -0.225412 -1.405204 -0.017824
v -0.219245 -1.371201 -0.017333
v -0.190171 -1.388672 0.025115
v -0.196338 -1.422676 0.024626
v -0.107509 -1.601536 -0.139139
v -0.099391 -1.570011 -0.145634
v -0.059197 -1.601606 -0.075948
v -0.107863 -1.544790 -0.128164
v -0.211669 -1.552804 -0.095510
v -0.223482 -1.569681 -0.044673
v -0.073225 -1.572019 -0.068109
v -0.072870 -1.628765 -0.079083
v -0.088822 -1.651556 -0.010434
v -0.089177 -1.594809 0.000540
v -0.077708 -1.628052 0.003709
v -0.197611 -1.624914 -0.006982
v -0.197831 -1.589844 -0.000200
v -0.223263 -1.604752 -0.051455
v -0.211450 -1.587874 -0.102293
v -0.107368 -1.550237 -0.125735
v -0.099624 -1.519956 -0.135343
v -0.108523 -1.491879 -0.120406
v -0.059624 -1.536723 -0.063557
v -0.212218 -1.496881 -0.086203
v -0.224157 -1.504302 -0.034026
v -0.211504 -1.532950 -0.089497
v -0.223442 -1.540370 -0.037320
v -0.072896 -1.564687 -0.063869
v -0.197914 -1.551070 0.008494
v -0.089016 -1.574705 0.006589
v -0.074052 -1.506333 -0.058540
v -0.090172 -1.516351 0.011918
v -0.078330 -1.548348 0.018200
v -0.198629 -1.515006 0.011788
v -0.096917 -1.729189 -0.155952
v -0.100545 -1.756957 -0.140308
v -0.058622 -1.704962 -0.085812
v -0.109666 -1.699280 -0.146574
v -0.067542 -1.736079 -0.079860
v -0.203576 -1.759109 -0.102859
v -0.209214 -1.723461 -0.106732
v -0.076664 -1.678402 -0.086126
v -0.083784 -1.723529 -0.009118
v -0.077469 -1.690398 -0.003726
v -0.196802 -1.698705 -0.009582
v -0.191164 -1.734351 -0.005708
v -0.221241 -1.714171 -0.054346
v -0.215603 -1.749816 -0.050473
vn 0.1669 -0.0394 0.9852
vn -0.5961 0.2187 0.7726
vn -0.6186 -0.0745 0.7822
vn 0.1823 0.2773 0.9433
vn -0.5725 0.3778 0.7277
vn 0.8060 0.2449 0.5389
vn 0.8203 -0.0279 0.5713
vn 0.7830 0.3863 0.4875
vn 0.1917 0.4253 0.8845
vn -0.5494 0.4035 0.7316
vn 0.1859 0.4044 0.8955
vn -0.5632 0.2400 0.7907
vn 0.7648 0.4103 0.4967
vn 0.1784 0.2143 0.9603
vn 0.7859 0.2600 0.5610
vn 0.1550 -0.1502 0.9764
vn 0.8271 -0.0015 0.5620
vn -0.6261 -0.0457 0.7784
vn 0.1841 0.5069 0.8421
vn 0.8045 0.2620 0.5331
vn 0.1814 0.3303 0.9263
vn 0.7850 0.3337 0.5220
vn -0.5889 0.2378 0.7725
vn -0.5687 0.3198 0.7578
vn 0.1825 0.2510 0.9506
vn -0.6291 -0.0391 0.7763
vn 0.1656 -0.0218 0.9860
vn 0.8285 0.0089 0.5599
vn 0.1403 -0.2660 0.9537
vn 0.8053 -0.2250 0.5486
vn -0.6230 -0.2707 0.7339
vn 0.1354 -0.2981 0.9449
vn 0.7955 -0.2550 0.5497
vn -0.6198 -0.2955 0.7270
vn 0.1399 -0.2470 0.9589
vn 0.8105 -0.2080 0.5476
vn 0.1423 -0.2415 0.9599
vn 0.8092 -0.2015 0.5519
vn -0.6261 -0.2542 0.7372
vn -0.6257 -0.2460 0.7403
vn -0.0536 0.7123 -0.6998
vn -0.7830 0.5310 -0.3240
vn 0.1838 0.5070 0.8421
vn 0.6848 0.5396 -0.4898
vn -0.6188 -0.0746 0.7820
vn -0.5962 0.2187 0.7725
vn -0.9830 -0.1083 0.1480
vn -0.9842 0.1101 0.1387
vn -0.8339 -0.1386 -0.5342
vn -0.8309 0.0180 -0.5561
vn -0.9535 0.2828 0.1042
vn -0.5726 0.3778 0.7276
vn -0.7894 0.2242 -0.5715
vn -0.7301 0.4533 -0.5114
vn -0.5497 0.4035 0.7315
vn -0.9025 0.4113 0.1276
vn -0.7478 0.4780 -0.4608
vn -0.5633 0.2400 0.7906
vn -0.9217 0.3368 0.1921
vn -0.6261 -0.0456 0.7784
vn -0.9442 0.2078 0.2555
vn 0.1837 0.5068 0.8422
vn -0.9388 0.3129 0.1439
vn -0.7965 0.2619 -0.5449
vn -0.7752 0.3435 -0.5301
vn -0.9631 0.2282 0.1424
vn -0.8285 -0.0089 -0.5599
vn -0.9908 -0.0334 0.1315
vn -0.5890 0.2377 0.7724
vn -0.5689 0.3198 0.7577
vn -0.6293 -0.0392 0.7762
vn -0.9624 -0.2457 0.1157
vn -0.6231 -0.2707 0.7338
vn -0.9559 -0.2708 0.1134
vn -0.9661 -0.2301 0.1171
vn -0.8072 -0.2323 -0.5427
vn -0.8021 -0.2562 -0.5395
vn -0.8111 -0.2164 -0.5434
vn -0.6262 -0.2542 0.7371
vn -0.9676 -0.2232 0.1177
vn -0.6258 -0.2460 0.7402
vn -0.8118 -0.2085 -0.5455
vn -0.1778 -0.1406 -0.9740
vn -0.8309 0.0180 -0.5562
vn 0.6333 -0.0975 -0.7678
vn 0.6023 -0.1764 -0.7785
vn 0.6352 0.0670 -0.7695
vn -0.1665 -0.0014 -0.9860
vn 0.6045 0.2685 -0.7500
vn -0.7893 0.2242 -0.5717
vn -0.1476 0.2288 -0.9622
vn 0.5851 0.4724 -0.6591
vn -0.7299 0.4534 -0.5115
vn -0.1070 0.4904 -0.8649
vn -0.7476 0.4780 -0.4611
vn 0.6140 0.4958 -0.6141
vn -0.0942 0.5612 -0.8223
vn -0.0538 0.7121 -0.7000
vn 0.6849 0.5395 -0.4898
vn 0.6110 0.3758 -0.6968
vn -0.1272 0.3796 -0.9164
vn 0.6244 0.3014 -0.7206
vn -0.1353 0.2981 -0.9449
vn 0.6291 0.0392 -0.7763
vn -0.7964 0.2619 -0.5451
vn -0.7751 0.3435 -0.5303
vn -0.8284 -0.0090 -0.5600
vn -0.1656 0.0218 -0.9860
vn -0.1805 -0.2196 -0.9587
vn -0.8071 -0.2323 -0.5428
vn 0.5983 -0.2003 -0.7758
vn -0.1824 -0.2510 -0.9506
vn -0.8020 -0.2561 -0.5396
vn 0.5868 -0.2306 -0.7762
vn -0.1824 -0.2009 -0.9625
vn 0.6047 -0.1833 -0.7751
vn -0.8110 -0.2163 -0.5435
vn -0.1804 -0.1956 -0.9639
vn -0.8117 -0.2085 -0.5456
vn -0.1559 -0.8761 -0.4562
vn -0.3258 -0.9246 -0.1972
vn -0.4374 -0.8552 -0.2781
vn -0.1378 -0.9399 -0.3123
vn -0.3738 -0.9275 -0.0018
vn -0.5160 -0.8563 0.0213
vn -0.3512 -0.8892 0.2933
vn -0.2679 -0.9474 0.1749
vn -0.0157 -0.9203 0.3908
vn -0.0475 -0.9707 0.2356
vn 0.0899 -0.9603 -0.2641
vn 0.2019 -0.8983 -0.3903
vn 0.1565 -0.9798 0.1242
vn 0.3088 -0.9245 0.2236
vn 0.2117 -0.9738 -0.0832
vn 0.3872 -0.9162 -0.1036
vn 0.9924 -0.0460 -0.1139
vn 0.8061 0.2449 0.5388
vn 0.8204 -0.0279 0.5712
vn 0.9784 0.1669 -0.1222
vn 0.7832 0.3863 0.4873
vn 0.6334 -0.0975 -0.7676
vn 0.6025 -0.1764 -0.7784
vn 0.6352 0.0671 -0.7694
vn 0.9353 0.3228 -0.1451
vn 0.6046 0.2685 -0.7499
vn 0.5852 0.4725 -0.6590
vn 0.7650 0.4103 0.4965
vn 0.8948 0.4322 -0.1117
vn 0.7860 0.2600 0.5608
vn 0.6141 0.4958 -0.6140
vn 0.9283 0.3670 -0.0589
vn 0.8272 -0.0014 0.5619
vn 0.9663 0.2572 -0.0055
vn 0.1839 0.5071 0.8420
vn 0.9317 0.3473 -0.1059
vn 0.6246 0.3014 -0.7205
vn 0.9539 0.2780 -0.1128
vn 0.6111 0.3758 -0.6966
vn 0.7851 0.3337 0.5218
vn 0.6292 0.0391 -0.7763
vn 0.8285 0.0090 0.5599
vn 0.9908 0.0335 -0.1315
vn 0.9697 -0.1991 -0.1417
vn 0.8053 -0.2250 0.5485
vn 0.5984 -0.2003 -0.7757
vn 0.9631 -0.2282 -0.1424
vn 0.7956 -0.2550 0.5496
vn 0.5869 -0.2305 -0.7762
vn 0.9731 -0.1822 -0.1412
vn 0.6048 -0.1832 -0.7750
vn 0.8106 -0.2080 0.5474
vn 0.9752 -0.1705 -0.1408
vn 0.8093 -0.2014 0.5518
vn 0.0867 -0.5784 0.8112
vn 0.5017 -0.7733 0.3877
vn 0.6749 -0.5520 0.4897
vn 0.0423 -0.7802 0.6242
vn -0.4475 -0.7522 0.4837
vn -0.5509 -0.5587 0.6200
vn 0.8107 0.2256 0.5403
vn 0.8071 -0.2192 0.5481
vn -0.6271 -0.2636 0.7329
vn -0.6006 0.1946 0.7755
vn 0.1344 -0.2596 0.9563
vn 0.8386 0.0508 0.5424
vn 0.7872 0.3208 0.5266
vn 0.1860 0.3165 0.9302
vn -0.6404 0.0070 0.7680
vn -0.5698 0.3065 0.7625
vn 0.1679 0.0481 0.9846
vn 0.8000 0.0074 0.6000
vn -0.5861 -0.0338 0.8095
vn 0.1655 -0.0217 0.9860
vn 0.8417 -0.0247 0.5393
vn -0.6503 -0.0767 0.7558
vn -0.6278 -0.0338 0.7776
vn 0.1588 -0.0793 0.9841
vn 0.1700 -0.0106 0.9854
vn 0.8261 0.0151 0.5633
vn 0.9635 0.2413 -0.1160
vn 0.6197 0.7839 -0.0394
vn 0.6272 0.2636 -0.7329
vn 0.5226 0.7828 0.3378
vn 0.4158 0.8238 -0.3854
vn 0.1677 0.8065 0.5669
vn -0.2880 0.8273 0.4824
vn -0.6005 0.1946 0.7755
vn -0.4236 0.8556 -0.2974
vn -0.5292 0.8402 0.1184
vn -0.0112 0.8582 -0.5131
vn -0.8071 0.2193 -0.5483
vn -0.9709 0.1934 0.1414
vn -0.1429 0.2606 -0.9548
vn 0.6114 0.3626 -0.7034
vn -0.9431 0.2997 0.1437
vn 0.9368 0.3329 -0.1072
vn -0.7772 0.3304 -0.5355
vn -0.1243 0.3655 -0.9225
vn -0.5698 0.3066 0.7625
vn 0.7872 0.3209 0.5267
vn 0.1860 0.3166 0.9301
vn -0.8394 -0.5343 0.0991
vn -0.5510 -0.5587 0.6199
vn -0.7089 -0.5353 -0.4592
vn -0.5810 -0.7304 -0.3591
vn -0.6858 -0.7235 0.0788
vn -0.9709 0.1934 0.1415
vn -0.6271 -0.2636 0.7330
vn -0.6006 0.1947 0.7755
vn -0.8071 0.2193 -0.5482
vn -0.9635 -0.2413 0.1161
vn -0.8107 -0.2256 -0.5403
vn -0.8145 -0.0486 -0.5782
vn -0.9940 -0.0378 0.1026
vn -0.8519 -0.0113 -0.5236
vn -0.5697 0.3066 0.7625
vn -0.6405 0.0070 0.7679
vn -0.9801 -0.0298 0.1961
vn -0.5862 -0.0339 0.8095
vn -0.6505 -0.0767 0.7556
vn -0.9950 -0.0276 0.0959
vn -0.6280 -0.0338 0.7775
vn -0.8262 -0.0151 -0.5632
vn -0.8133 0.0325 -0.5809
vn -0.1429 0.2605 -0.9548
vn -0.8107 -0.2256 -0.5402
vn 0.6271 0.2636 -0.7329
vn -0.1867 -0.2134 -0.9590
vn 0.6005 -0.1946 -0.7756
vn -0.1716 -0.0356 -0.9845
vn 0.6114 0.3625 -0.7034
vn 0.6037 -0.0082 -0.7972
vn -0.1244 0.3655 -0.9225
vn -0.7773 0.3303 -0.5354
vn -0.8144 -0.0486 -0.5783
vn -0.1655 0.0217 -0.9860
vn 0.6632 0.0348 -0.7476
vn -0.8518 -0.0113 -0.5237
vn -0.1700 0.0106 -0.9854
vn -0.8261 -0.0151 -0.5632
vn -0.1612 0.0737 -0.9842
vn 0.6098 0.0757 -0.7890
vn 0.6278 0.0338 -0.7776
vn -0.1753 -0.7572 -0.6292
vn 0.4865 -0.5521 -0.6771
vn 0.3404 -0.7776 -0.5287
vn -0.1855 -0.5538 -0.8117
vn 0.5017 -0.7734 0.3876
vn 0.6298 -0.7706 -0.0976
vn -0.7088 -0.5353 -0.4595
vn 0.0423 -0.7803 0.6240
vn -0.4474 -0.7522 0.4837
vn -0.5808 -0.7305 -0.3592
vn -0.6857 -0.7236 0.0788
vn -0.6197 -0.7839 0.0394
vn 0.0112 -0.8582 0.5131
vn 0.1345 -0.2597 0.9563
vn 0.8071 -0.2192 0.5482
vn -0.4158 -0.8238 0.3854
vn -0.5226 -0.7828 -0.3378
vn 0.4237 -0.8556 0.2974
vn 0.2880 -0.8273 -0.4824
vn -0.1677 -0.8065 -0.5669
vn 0.5291 -0.8403 -0.1184
vn 0.9709 -0.1934 -0.1416
vn 0.8345 -0.5369 -0.1243
vn 0.3406 -0.7774 -0.5287
vn 0.4867 -0.5521 -0.6770
vn 0.6299 -0.7706 -0.0976
vn 0.5018 -0.7733 0.3876
vn 0.6751 -0.5520 0.4894
vn 0.9709 -0.1934 -0.1415
vn 0.9635 0.2413 -0.1162
vn 0.8107 0.2255 0.5403
vn 0.6271 0.2636 -0.7330
vn 0.8071 -0.2193 0.5482
vn 0.6038 -0.0082 -0.7971
vn 0.6113 0.3626 -0.7034
vn 0.9368 0.3329 -0.1074
vn 0.9866 0.0290 -0.1604
vn 0.6634 0.0348 -0.7475
vn 0.7872 0.3208 0.5267
vn 0.8387 0.0508 0.5423
vn 0.9972 0.0319 -0.0671
vn 0.8000 0.0074 0.5999
vn 0.8418 -0.0247 0.5392
vn 0.9908 0.0334 -0.1314
vn 0.8262 0.0151 0.5632
vn 0.9853 0.0342 -0.1671
vn 0.6099 0.0757 -0.7889
vn 0.6280 0.0339 -0.7775
vn 0.2675 -0.0623 0.9615
vn 0.8610 -0.1602 0.4827
vn 0.7767 0.5828 0.2390
vn 0.0370 -0.9621 0.2702
vn -0.1356 0.6174 0.7749
vn -0.0692 -0.5845 0.8085
vn -0.6451 -0.4090 0.6454
vn 0.5422 0.6859 0.4853
vn 0.4892 0.4356 0.7557
vn 0.8775 0.3189 0.3582
vn 0.5022 -0.7384 0.4501
vn -0.5042 0.0769 0.8602
vn -0.6377 -0.6607 0.3960
vn 0.1795 0.8500 0.4953
vn -0.2933 -0.8142 0.5011
vn 0.0494 -0.7419 0.6686
vn -0.4608 0.3762 0.8039
vn 0.1855 0.3432 0.9207
vn 0.7100 0.3826 0.5911
vn -0.6224 -0.6393 0.4516
vn 0.1484 -0.1856 0.9713
vn 0.8315 -0.1008 0.5463
vn 0.5284 0.6597 0.5344
vn 0.1814 0.6393 0.7473
vn -0.2304 0.6902 0.6860
vn -0.6456 -0.1502 0.7487
vn 0.6965 -0.6471 0.3100
vn 0.7188 0.4552 0.5254
vn 0.0696 -0.6347 0.7696
vn 0.1869 0.4427 0.8770
vn -0.4839 0.4552 0.7475
vn -0.5867 -0.5859 0.5591
vn 0.6951 -0.5826 0.4212
vn 0.1565 -0.0853 0.9840
vn 0.4049 -0.8928 0.1977
vn 0.8314 -0.0346 0.5546
vn 0.5258 0.7346 0.4288
vn -0.0106 -0.9090 0.4167
vn 0.1751 0.7400 0.6495
vn -0.4436 -0.8478 0.2906
vn -0.6341 -0.0842 0.7686
vn -0.2633 0.7730 0.5772
vn -0.3980 -0.5063 0.7650
vn 0.0402 0.6723 0.7392
vn 0.2513 -0.3888 0.8864
vn -0.6445 0.5135 0.5665
vn 0.7792 -0.3172 0.5405
vn 0.6355 0.6845 0.3571
vn 0.1840 0.1344 0.9737
vn 0.6138 -0.6411 0.4607
vn 0.8303 0.1889 0.5244
vn 0.2512 -0.6883 0.6806
vn -0.1705 -0.7751 0.6084
vn -0.6138 -0.0133 0.7893
vn 0.6377 0.6606 -0.3960
vn -0.6003 0.7547 0.2646
vn 0.8115 0.5755 -0.1018
vn 0.7767 0.5828 0.2391
vn -0.1355 0.6173 0.7750
vn -0.5022 0.7384 -0.4501
vn 0.2933 0.8141 -0.5011
vn 0.5420 0.6859 0.4855
vn 0.0691 0.5844 -0.8085
vn 0.4891 0.4354 0.7557
vn -0.0369 0.9621 -0.2701
vn -0.0909 0.9797 0.1785
vn -0.8611 0.1601 -0.4826
vn 0.9337 0.3121 -0.1754
vn -0.9529 0.1679 0.2525
vn -0.5043 0.0769 0.8601
vn 0.6451 0.4091 -0.6454
vn 0.1796 0.8500 0.4952
vn 0.0428 0.9679 -0.2475
vn 0.6370 0.1512 -0.7559
vn -0.1484 0.1855 -0.9714
vn -0.8284 0.1003 -0.5511
vn 0.4729 0.8722 -0.1248
vn -0.3811 0.9244 -0.0170
vn -0.4607 0.3761 0.8039
vn 0.7102 0.3825 0.5911
vn 0.1856 0.3431 0.9208
vn -0.8190 0.4858 0.3054
vn 0.8706 0.4883 0.0607
vn 0.6452 0.7393 0.1929
vn -0.6965 0.6471 -0.3101
vn 0.5282 0.6597 0.5346
vn -0.0495 0.7418 -0.6687
vn 0.1813 0.6392 0.7474
vn 0.6224 0.6392 -0.4518
vn -0.4811 0.7917 0.3765
vn 0.0106 0.9089 -0.4169
vn -0.4048 0.8927 -0.1978
vn 0.7189 0.4552 0.5253
vn -0.4837 0.4552 0.7476
vn 0.4436 0.8478 -0.2906
vn 0.1869 0.4426 0.8770
vn 0.8658 0.4999 -0.0246
vn -0.8369 0.5046 0.2123
vn 0.6313 0.7738 0.0522
vn -0.6950 0.5826 -0.4213
vn 0.5257 0.7346 0.4290
vn -0.0793 0.6355 -0.7680
vn 0.1749 0.7399 0.6495
vn 0.5866 0.5859 -0.5591
vn -0.5140 0.8289 0.2209
vn 0.1707 0.7750 -0.6085
vn 0.0402 0.6722 0.7393
vn -0.6444 0.5135 0.5667
vn -0.2550 0.6842 -0.6833
vn 0.6356 0.6845 0.3572
vn -0.6156 0.6442 -0.4539
vn 0.4112 0.8681 -0.2780
vn -0.9329 0.3588 0.0300
vn 0.3200 0.9376 0.1361
vn 0.9777 0.1359 -0.1603
vn -0.7792 0.3172 -0.5406
vn 0.8302 0.1888 0.5245
vn 0.1839 0.1343 0.9737
vn -0.0751 0.9241 0.3747
vn -0.2513 0.3888 -0.8864
vn 0.3982 0.5062 -0.7650
vn -0.6140 -0.0134 0.7892
vn -0.5265 0.8054 0.2721
vn 0.7484 0.6124 -0.2545
vn -0.7297 0.6794 -0.0772
vn -0.8775 -0.3189 -0.3582
vn -0.6003 0.7547 0.2645
vn -0.9337 -0.3122 0.1754
vn -0.6450 -0.4091 0.6454
vn -0.1353 0.6175 0.7748
vn -0.5020 0.7384 -0.4503
vn -0.9529 0.1680 0.2525
vn -0.8610 0.1603 -0.4827
vn -0.7766 -0.5829 -0.2390
vn -0.8114 -0.5755 0.1019
vn -0.5042 0.0770 0.8601
vn -0.8285 0.1004 -0.5510
vn -0.5268 -0.6560 -0.5405
vn -0.3813 0.9243 -0.0169
vn -0.8705 -0.4884 -0.0608
vn -0.8190 0.4859 0.3054
vn -0.6223 -0.6393 0.4518
vn -0.7102 -0.3826 -0.5910
vn -0.6964 0.6472 -0.3102
vn -0.6456 -0.1501 0.7488
vn -0.2302 0.6902 0.6860
vn -0.4710 -0.8718 0.1345
vn -0.4809 0.7917 0.3767
vn -0.6452 -0.7393 -0.1929
vn -0.8315 0.0346 -0.5545
vn -0.5257 -0.7346 -0.4289
vn -0.4048 0.8928 -0.1977
vn -0.6312 -0.7738 -0.0522
vn -0.4435 -0.8478 0.2906
vn -0.6342 -0.0842 0.7686
vn -0.8657 -0.4999 0.0245
vn -0.4837 0.4553 0.7475
vn -0.5865 -0.5859 0.5593
vn -0.8369 0.5046 0.2122
vn -0.7189 -0.4552 -0.5253
vn -0.6949 0.5826 -0.4214
vn -0.2630 0.7731 0.5772
vn -0.5140 0.8288 0.2210
vn -0.7484 -0.6125 0.2545
vn -0.6444 0.5135 0.5666
vn -0.3981 -0.5062 0.7651
vn -0.9329 0.3589 0.0301
vn -0.9777 -0.1359 0.1603
vn -0.6155 0.6443 -0.4539
vn -0.8302 -0.1889 -0.5244
vn -0.7791 0.3173 -0.5407
vn -0.6355 -0.6845 -0.3571
vn -0.6139 -0.0133 0.7893
vn -0.5265 0.8054 0.2722
vn -0.1706 -0.7750 0.6084
vn -0.4112 -0.8681 0.2780
vn -0.2675 0.0622 -0.9615
vn 0.5042 -0.0769 -0.8602
vn -0.1796 -0.8499 -0.4953
vn 0.6377 0.6607 -0.3960
vn 0.0692 0.5844 -0.8085
vn 0.2933 0.8142 -0.5011
vn -0.0369 0.9621 -0.2702
vn -0.8610 0.1602 -0.4827
vn -0.7767 -0.5828 -0.2389
vn -0.5422 -0.6859 -0.4853
vn 0.1354 -0.6175 -0.7749
vn -0.4891 -0.4356 -0.7557
vn -0.1486 0.1856 -0.9713
vn 0.2273 -0.6858 -0.6914
vn -0.1815 -0.6393 -0.7473
vn -0.5269 -0.6561 -0.5403
vn 0.6369 0.1514 -0.7559
vn -0.8284 0.1004 -0.5510
vn -0.0494 0.7419 -0.6686
vn -0.6964 0.6472 -0.3101
vn -0.7103 -0.3825 -0.5909
vn -0.1856 -0.3432 -0.9207
vn 0.4607 -0.3762 -0.8039
vn 0.6224 0.6392 -0.4516
vn 0.2631 -0.7731 -0.5772
vn -0.1565 0.0853 -0.9840
vn 0.6341 0.0842 -0.7686
vn -0.1751 -0.7399 -0.6495
vn -0.8314 0.0346 -0.5546
vn -0.4050 0.8927 -0.1977
vn 0.0106 0.9090 -0.4167
vn -0.0791 0.6356 -0.7680
vn -0.6949 0.5827 -0.4214
vn -0.1869 -0.4427 -0.8770
vn 0.4804 -0.4607 -0.7463
vn 0.5868 0.5858 -0.5590
vn -0.1840 -0.1344 -0.9737
vn 0.1706 0.7750 -0.6085
vn 0.6139 0.0133 -0.7893
vn -0.2550 0.6842 -0.6832
vn -0.6156 0.6443 -0.4538
vn -0.8302 -0.1889 -0.5245
vn -0.0401 -0.6723 -0.7392
vn -0.6356 -0.6845 -0.3570
vn 0.3983 0.5062 -0.7649
vn 0.6444 -0.5135 -0.5666
vn 0.0909 -0.9797 -0.1785
vn -0.1798 -0.8500 -0.4952
vn 0.9529 -0.1679 -0.2526
vn 0.0369 -0.9621 0.2702
vn -0.8774 -0.3189 -0.3583
vn -0.9337 -0.3120 0.1754
vn -0.6452 -0.4090 0.6453
vn -0.0691 -0.5844 0.8085
vn 0.5022 -0.7383 0.4503
vn -0.5422 -0.6858 -0.4854
vn -0.7767 -0.5827 -0.2390
vn 0.6004 -0.7547 -0.2644
vn -0.6377 -0.6606 0.3962
vn 0.1355 -0.6173 -0.7749
vn -0.2933 -0.8141 0.5012
vn -0.4891 -0.4355 -0.7557
vn 0.2272 -0.6858 -0.6914
vn 0.0494 -0.7418 0.6688
vn -0.1815 -0.6392 -0.7473
vn -0.5270 -0.6559 -0.5404
vn -0.6224 -0.6392 0.4517
vn 0.4810 -0.7916 -0.3768
vn -0.8706 -0.4882 -0.0608
vn 0.3826 -0.9235 0.0276
vn -0.7101 -0.3825 -0.5911
vn -0.0429 -0.9680 0.2473
vn 0.8314 -0.1006 0.5464
vn -0.1854 -0.3431 -0.9208
vn 0.1486 -0.1855 0.9713
vn -0.6456 -0.1500 0.7488
vn 0.4609 -0.3761 -0.8038
vn -0.4709 -0.8719 0.1345
vn 0.8190 -0.4859 -0.3053
vn -0.6451 -0.7393 -0.1929
vn 0.6964 -0.6472 0.3101
vn 0.2632 -0.7729 -0.5773
vn 0.0695 -0.6347 0.7697
vn -0.1752 -0.7399 -0.6495
vn -0.5259 -0.7346 -0.4288
vn -0.5868 -0.5858 0.5590
vn 0.6950 -0.5827 0.4213
vn -0.6312 -0.7739 -0.0521
vn 0.8369 -0.5046 -0.2122
vn 0.5140 -0.8288 -0.2211
vn -0.4435 -0.8478 0.2908
vn 0.4805 -0.4607 -0.7463
vn -0.8658 -0.4998 0.0245
vn 0.4051 -0.8927 0.1977
vn -0.7189 -0.4551 -0.5254
vn -0.0103 -0.9089 0.4169
vn -0.1868 -0.4426 -0.8771
vn 0.0751 -0.9241 -0.3747
vn 0.6138 0.0134 -0.7893
vn 0.5265 -0.8055 -0.2721
vn -0.1840 -0.1343 -0.9737
vn -0.3982 -0.5062 0.7650
vn 0.7255 -0.6837 0.0790
vn -0.3200 -0.9376 -0.1361
vn -0.8303 -0.1888 -0.5244
vn 0.7791 -0.3173 0.5407
vn -0.6355 -0.6845 -0.3572
vn 0.6139 -0.6410 0.4607
vn 0.2514 -0.6882 0.6806
vn -0.0400 -0.6722 -0.7393
vn -0.1705 -0.7749 0.6086
vn 0.6445 -0.5134 -0.5666
vn -0.4111 -0.8682 0.2779
vn 0.9329 -0.3589 -0.0300
vn 0.6376 0.6607 -0.3962
vn 0.9529 -0.1679 -0.2525
vn 0.5042 -0.0770 -0.8602
vn 0.8115 0.5755 -0.1019
vn 0.8610 -0.1603 0.4827
vn 0.8774 0.3189 0.3584
vn 0.6003 -0.7547 -0.2645
vn 0.5020 -0.7384 0.4503
vn 0.6452 0.4091 -0.6453
vn 0.1353 -0.6173 -0.7750
vn 0.9908 0.0334 -0.1315
vn 0.2273 -0.6859 -0.6913
vn 0.6370 0.1513 -0.7559
vn 0.4730 0.8722 -0.1249
vn 0.4810 -0.7916 -0.3767
vn 0.3826 -0.9235 0.0278
vn 0.5282 0.6598 0.5345
vn 0.8315 -0.1007 0.5464
vn 0.8705 0.4884 0.0608
vn 0.6223 0.6393 -0.4516
vn 0.4607 -0.3761 -0.8039
vn 0.7101 0.3826 0.5911
vn 0.6342 0.0842 -0.7686
vn 0.7188 0.4552 0.5255
vn 0.6950 -0.5827 0.4214
vn 0.8657 0.4999 -0.0245
vn 0.4803 -0.4607 -0.7464
vn 0.4048 -0.8928 0.1978
vn 0.6312 0.7739 0.0523
vn 0.5257 0.7347 0.4289
vn 0.8315 -0.0346 0.5545
vn 0.5866 0.5860 -0.5591
vn 0.5265 -0.8054 -0.2722
vn 0.1705 0.7750 -0.6085
vn 0.7255 -0.6837 0.0791
vn 0.4112 0.8681 -0.2779
vn 0.6137 -0.6411 0.4608
vn 0.8302 0.1889 0.5244
vn 0.7484 0.6125 -0.2545
vn 0.3981 0.5062 -0.7650
vn 0.7791 -0.3172 0.5407
vn 0.6354 0.6845 0.3573
vt 52.000000 -10.726600
vt 51.219200 -10.297900
vt 51.199299 -10.726600
vt 52.000000 -10.297900
vt 51.347698 -9.819260
vt 52.780800 -10.297900
vt 52.800701 -10.726600
vt 52.652302 -9.819260
vt 52.000000 -9.819260
vt 51.587399 -9.307250
vt 52.000000 -9.307410
vt 51.846699 -8.861490
vt 52.412601 -9.307250
vt 52.000000 -8.871380
vt 52.153301 -8.861490
vt 52.000000 -8.582490
vt 52.064999 -8.566630
vt 51.935001 -8.566630
vt 52.000000 -8.378660
vt 52.460899 -12.907600
vt 52.000000 -13.382200
vt 52.639198 -13.382200
vt 51.539101 -12.907600
vt 51.360802 -13.382200
vt 52.000000 -12.907600
vt 51.616100 -12.486000
vt 52.000000 -12.486000
vt 52.383900 -12.486000
vt 52.000000 -12.064400
vt 52.460899 -12.064400
vt 51.539101 -12.064400
vt 52.000000 -11.671100
vt 52.579899 -11.671100
vt 51.420101 -11.671100
vt 52.000000 -11.298200
vt 52.677101 -11.298200
vt 52.000000 -10.994100
vt 52.737900 -10.994100
vt 51.322899 -11.298200
vt 51.262100 -10.994100
vt 52.090801 -11.000000
vt 52.069099 -10.935000
vt 51.837101 -11.000000
vt 52.069099 -11.065000
vt 52.830700 -10.726600
vt 52.722599 -10.297900
vt 52.029999 -10.726600
vt 51.941799 -10.297800
vt 51.229301 -10.726600
vt 51.160999 -10.297900
vt 51.795399 -9.819260
vt 52.447701 -9.819260
vt 51.143200 -9.819260
vt 51.346199 -9.306520
vt 52.171501 -9.307250
vt 51.758801 -9.306880
vt 51.713501 -8.813740
vt 52.016399 -8.861490
vt 51.864899 -8.837620
vt 52.035900 -8.566630
vt 51.983398 -8.528370
vt 52.162899 -8.378660
vt 51.930901 -8.490100
vt 52.029999 -13.382200
vt 51.569099 -12.907600
vt 51.390800 -13.382200
vt 52.029999 -12.907600
vt 51.646099 -12.486000
vt 52.029999 -12.486000
vt 52.490898 -12.907600
vt 52.669201 -13.382200
vt 52.413898 -12.486000
vt 52.029999 -12.064400
vt 52.490898 -12.064400
vt 52.029999 -11.671100
vt 52.609901 -11.671100
vt 52.029999 -11.298200
vt 51.569099 -12.064400
vt 51.450001 -11.671100
vt 51.352901 -11.298200
vt 52.707100 -11.298200
vt 52.029999 -10.994100
vt 52.767899 -10.994100
vt 51.292099 -10.994100
vt 51.587399 -9.306520
vt 52.412601 -9.306520
vt 52.000000 -9.306370
vt 52.153301 -8.813740
vt 51.846699 -8.813740
vt 52.064999 -8.490100
vt 52.000000 -8.803860
vt 52.000000 -8.474250
vt 51.935001 -8.490100
vt 51.125999 -11.000000
vt 51.885101 -10.855100
vt 51.390800 -10.360800
vt 51.825001 -11.000000
vt 52.029999 -10.795000
vt 52.029999 -10.096000
vt 52.669201 -10.360800
vt 52.174900 -10.855100
vt 52.933998 -11.000000
vt 52.234901 -11.000000
vt 51.885101 -11.144900
vt 51.390800 -11.639200
vt 52.174900 -11.144900
vt 52.669201 -11.639200
vt 52.029999 -11.205000
vt 52.029999 -11.904000
vt 51.970001 -10.726600
vt 51.277401 -10.297900
vt 51.169300 -10.726600
vt 52.058201 -10.297900
vt 51.552299 -9.819260
vt 52.770699 -10.726600
vt 52.707901 -10.994100
vt 52.839001 -10.297900
vt 52.204601 -9.819260
vt 52.856800 -9.819260
vt 52.653801 -9.306520
vt 51.828499 -9.307250
vt 52.241199 -9.306880
vt 51.983601 -8.861490
vt 52.286499 -8.813740
vt 52.135101 -8.837620
vt 51.964100 -8.566630
vt 52.016602 -8.528370
vt 51.837101 -8.378660
vt 52.069099 -8.490100
vt 51.970001 -13.382200
vt 52.430901 -12.907600
vt 51.970001 -12.907600
vt 52.609200 -13.382200
vt 51.509102 -12.907600
vt 51.330799 -13.382200
vt 52.353901 -12.486000
vt 51.586102 -12.486000
vt 51.970001 -12.486000
vt 51.970001 -12.064400
vt 51.509102 -12.064400
vt 52.430901 -12.064400
vt 51.970001 -11.671100
vt 51.390099 -11.671100
vt 52.549999 -11.671100
vt 51.970001 -11.298200
vt 52.647099 -11.298200
vt 51.292900 -11.298200
vt 51.970001 -10.994100
vt 51.232101 -10.994100
vt 24.000000 -62.527000
vt 24.126900 -62.600101
vt 24.175301 -62.528599
vt 24.000000 -62.598900
vt 23.873100 -62.600101
vt 23.824699 -62.528599
vt 24.455799 -55.457199
vt 24.000000 -55.457199
vt 24.455799 -55.689499
vt 23.544201 -55.689499
vt 23.544201 -55.457199
vt 24.000000 -55.689499
vt 24.175301 -57.990898
vt 24.175301 -56.627701
vt 24.000000 -56.627701
vt 23.824699 -57.990898
vt 23.824699 -56.627701
vt 24.000000 -58.001301
vt 24.175301 -59.534100
vt 23.824699 -59.534100
vt 24.000000 -59.536800
vt 24.175301 -61.262299
vt 23.824699 -61.262299
vt 24.000000 -61.264999
vt 23.544201 -59.455799
vt 24.000000 -59.644699
vt 24.000000 -59.564499
vt 24.455799 -59.455799
vt 23.600800 -59.399200
vt 24.399200 -59.399200
vt 23.435499 -59.000000
vt 23.600800 -58.600800
vt 23.355301 -59.000000
vt 23.544201 -58.544201
vt 24.399200 -58.600800
vt 24.000000 -58.435501
vt 24.564501 -59.000000
vt 24.455799 -58.544201
vt 24.000000 -58.355301
vt 24.644699 -59.000000
vt 24.175301 -59.175301
vt 24.000000 -58.752102
vt 24.000000 -59.247898
vt 24.175301 -58.824699
vt 24.247900 -59.000000
vt 23.824699 -58.824699
vt 23.824699 -59.175301
vt 23.752100 -59.000000
vt 24.000799 -62.532501
vt 24.127899 -62.600101
vt 24.174200 -62.528599
vt 23.827400 -62.536499
vt 23.876801 -62.605801
vt 24.002399 -62.602901
vt 23.826599 -57.940399
vt 24.000000 -57.965599
vt 24.110201 -59.520802
vt 24.173401 -57.990898
vt 24.283501 -59.527401
vt 24.456800 -59.534100
vt 24.156500 -61.262299
vt 23.983200 -61.255600
vt 23.809900 -61.249001
vt 24.000000 -57.929901
vt 23.824699 -57.940399
vt 24.175301 -57.940399
vt 24.000000 -59.518002
vt 23.824699 -59.520802
vt 24.175301 -59.520802
vt 24.175301 -61.249001
vt 24.000000 -62.538101
vt 24.175301 -62.536499
vt 24.000000 -61.246300
vt 23.824699 -61.249001
vt 23.824699 -62.536499
vt 23.824900 -59.000000
vt 23.827400 -59.175301
vt 23.876801 -59.126900
vt 23.755600 -59.000000
vt 24.127899 -59.126900
vt 24.002399 -59.179401
vt 23.827400 -58.824699
vt 24.179899 -59.000000
vt 24.127899 -58.873100
vt 23.876801 -58.873100
vt 24.002399 -58.820599
vt 23.999201 -62.532501
vt 24.123199 -62.605801
vt 24.172600 -62.536499
vt 23.997601 -62.602901
vt 23.872101 -62.600101
vt 23.825800 -62.528599
vt 24.173401 -57.940399
vt 23.889799 -59.520802
vt 23.826599 -57.990898
vt 23.716499 -59.527401
vt 23.543200 -59.534100
vt 23.843500 -61.262299
vt 24.016800 -61.255600
vt 24.190100 -61.249001
vt 18.034901 -58.696499
vt 18.251301 -58.760399
vt 18.235800 -58.687401
vt 18.197300 -58.809898
vt 18.140800 -58.672501
vt 17.965900 -58.699501
vt 18.117001 -58.748299
vt 18.049299 -58.632198
vt 17.989599 -58.623699
vt 17.851500 -58.582901
vt 17.827801 -58.658600
vt 17.798000 -58.619999
vt 17.806700 -58.688900
vt 17.845200 -58.566299
vt 18.010799 -58.754799
vt 18.000000 -59.040298
vt 18.152500 -58.977299
vt 18.000000 -58.963001
vt 17.847500 -58.977299
vt 18.152500 -59.054600
vt 18.000000 -59.127201
vt 18.238899 -59.104698
vt 18.205900 -59.034599
vt 18.000000 -59.054001
vt 17.794100 -59.034599
vt 17.761101 -59.104698
vt 17.847500 -59.054600
vt 17.847500 -58.854099
vt 18.000000 -58.927502
vt 18.000000 -58.848400
vt 18.152500 -58.854099
vt 18.152500 -58.933201
vt 17.847500 -58.933201
vt 18.000000 -58.937901
vt 18.205900 -58.990002
vt 18.238899 -58.929001
vt 18.205900 -58.862000
vt 18.000000 -58.997700
vt 18.000000 -58.869701
vt 17.794100 -58.990002
vt 17.761101 -58.929001
vt 17.794100 -58.862000
vt 18.156401 -59.378700
vt 17.992701 -59.340500
vt 18.005899 -59.417000
vt 18.143299 -59.302200
vt 17.855700 -59.427898
vt 17.842600 -59.351398
vt 18.001101 -59.258900
vt 18.214399 -59.316200
vt 18.236401 -59.241798
vt 18.011600 -59.330898
vt 17.808300 -59.382599
vt 17.765200 -59.318901
vt 18.197701 -59.193298
vt 17.995199 -59.216400
vt 18.003300 -59.295399
vt 17.789000 -59.235802
vt 18.139200 -59.140800
vt 17.836500 -59.172199
vt 18.258200 -58.989201
vt 17.680201 -59.049301
vt 17.755899 -59.034100
vt 18.184000 -58.989601
vt 18.149401 -58.802700
vt 18.103399 -58.851501
vt 17.935101 -58.743000
vt 18.180201 -58.748699
vt 17.944599 -58.807301
vt 17.931499 -58.679501
vt 17.705900 -58.798000
vt 17.800699 -58.882999
vt 17.740700 -58.845200
vt 18.294100 -59.000000
vt 18.257700 -59.238899
vt 18.354099 -59.000000
vt 18.257700 -58.761101
vt 18.211000 -59.205898
vt 18.211000 -58.794102
vt 18.164499 -59.152500
vt 18.164499 -58.847500
vt 18.226000 -59.000000
vt 18.016001 -59.215599
vt 18.016001 -58.784401
vt 18.010500 -59.291199
vt 17.867599 -59.152500
vt 17.809999 -59.205898
vt 17.806000 -59.000000
vt 17.726900 -59.000000
vt 17.809999 -58.794102
vt 17.867599 -58.847500
vt 18.010500 -58.708801
vt 18.276400 -59.000000
vt 18.191500 -58.794102
vt 18.140499 -58.847500
vt 18.140499 -59.152500
vt 18.191500 -59.205898
vt 18.203400 -59.000000
vt 17.988600 -58.784401
vt 17.988600 -59.215599
vt 17.986401 -59.291199
vt 17.836800 -59.152500
vt 17.781401 -59.205898
vt 17.773899 -59.000000
vt 17.696400 -59.000000
vt 17.781401 -58.794102
vt 17.836800 -58.847500
vt 17.986401 -58.708801
vt 18.257200 -59.191700
vt 18.253401 -58.992699
vt 18.197701 -59.143299
vt 18.332399 -58.988400
vt 18.185801 -58.842602
vt 18.241100 -58.785599
vt 18.059500 -59.276501
vt 18.051300 -59.206001
vt 17.855200 -59.193100
vt 18.047600 -59.333199
vt 17.900000 -59.144299
vt 17.810499 -59.236401
vt 17.704599 -59.001099
vt 17.763901 -58.990299
vt 17.832399 -58.994099
vt 17.888100 -58.843601
vt 17.791901 -58.765202
vt 17.839100 -58.786999
vt 18.034500 -58.780800
vt 18.036699 -58.702202
vt 18.161200 -58.767502
vt 18.004801 -58.700699
vt 18.002501 -58.776402
vt 17.858500 -58.748299
vt 17.860800 -58.672501
vt 18.163500 -58.691700
vt 18.068501 -58.575901
vt 17.819799 -58.589901
vt 17.846800 -58.662998
vt 18.061199 -58.650902
vt 18.255501 -58.688900
vt 18.294100 -58.619999
vt 17.974899 -59.050499
vt 17.742300 -58.996399
vt 17.759899 -59.066399
vt 17.789000 -58.941299
vt 17.835501 -58.977299
vt 17.965900 -59.089199
vt 17.983999 -59.011902
vt 17.817400 -59.054600
vt 18.114401 -59.123798
vt 18.132401 -59.046398
vt 18.207600 -59.104698
vt 18.190001 -59.034599
vt 18.160900 -59.159801
vt 17.989500 -58.987900
vt 17.960400 -59.113098
vt 18.007799 -58.907398
vt 17.769899 -58.885899
vt 17.796900 -58.952801
vt 17.808500 -58.824799
vt 18.002001 -58.971401
vt 18.207001 -58.990002
vt 18.245701 -58.929001
vt 18.004200 -58.946999
vt 17.859501 -58.854099
vt 17.852400 -58.933201
vt 18.011400 -58.867901
vt 18.156000 -58.960800
vt 18.163200 -58.881599
vt 18.218599 -58.862000
vt 18.013599 -58.843399
vt 17.965599 -59.335499
vt 17.802299 -59.302200
vt 17.819201 -59.378700
vt 17.948700 -59.259102
vt 17.978800 -59.386501
vt 17.758900 -59.347900
vt 17.741699 -59.422298
vt 18.100000 -59.236198
vt 18.116899 -59.312698
vt 18.208099 -59.318901
vt 18.160900 -59.258801
vt 18.188299 -59.382599
vt 17.963301 -59.317101
vt 17.990601 -59.440899
vt 18.034901 -58.653900
vt 17.798000 -58.730301
vt 17.845200 -58.784000
vt 17.806700 -58.661400
vt 17.851500 -58.767502
vt 17.965900 -58.650902
vt 17.827801 -58.691700
vt 18.010799 -58.595501
vt 18.197300 -58.540401
vt 18.251301 -58.589901
vt 18.235800 -58.662998
vt 18.049299 -58.718102
vt 18.140800 -58.677799
vt 18.117001 -58.602100
vt 17.989599 -58.726601
vt 18.000000 -58.973900
vt 17.794100 -59.066399
vt 18.000000 -59.047100
vt 18.205900 -59.066399
vt 17.761101 -58.996399
vt 18.238899 -58.996399
vt 18.000000 -59.060799
vt 17.847500 -59.046398
vt 17.847500 -59.123798
vt 18.000000 -59.138100
vt 18.152500 -59.123798
vt 18.152500 -59.046398
vt 17.794100 -58.952801
vt 18.000000 -58.876900
vt 17.761101 -58.885899
vt 17.794100 -58.824799
vt 18.000000 -58.945099
vt 18.205900 -58.952801
vt 18.238899 -58.885899
vt 18.205900 -58.824799
vt 18.000000 -58.817101
vt 18.000000 -58.887299
vt 17.847500 -58.881599
vt 17.847500 -58.960800
vt 18.000000 -58.966499
vt 18.152500 -58.960800
vt 18.152500 -58.881599
vt 18.001101 -59.405201
vt 17.808300 -59.281502
vt 17.765200 -59.345200
vt 18.011600 -59.333199
vt 18.214399 -59.347900
vt 18.236401 -59.422298
vt 17.992701 -59.323601
vt 17.855700 -59.236198
vt 17.842600 -59.312698
vt 18.005899 -59.247200
vt 18.156401 -59.285400
vt 18.143299 -59.361900
vt 17.992901 -59.257000
vt 17.798500 -59.154800
vt 17.763700 -59.202000
vt 17.989300 -59.320499
vt 18.238001 -59.251301
vt 18.207199 -59.197300
vt 18.161200 -59.148499
vt 18.002501 -59.192699
vt 17.858500 -59.117001
vt 17.813700 -58.965900
vt 17.894300 -58.827801
vt 17.738001 -58.950699
vt 17.846800 -58.764198
vt 18.052999 -58.783600
vt 18.061199 -58.704601
vt 18.255501 -58.806702
vt 18.197001 -58.859200
vt 18.316000 -59.010799
vt 18.241800 -59.010399
vt 17.759899 -59.205898
vt 17.755899 -59.000000
vt 17.676800 -59.000000
vt 17.759899 -58.794102
vt 17.817400 -59.152500
vt 17.960400 -59.291199
vt 17.965900 -59.215599
vt 18.160900 -59.205898
vt 18.114401 -59.152500
vt 18.243900 -59.000000
vt 18.207600 -59.238899
vt 18.175900 -59.000000
vt 18.304001 -59.000000
vt 18.207600 -58.761101
vt 18.114401 -58.847500
vt 18.160900 -58.794102
vt 17.965900 -58.784401
vt 17.960400 -58.708801
vt 17.817400 -58.847500
vt 17.796900 -59.205898
vt 17.789499 -59.000000
vt 17.712000 -59.000000
vt 17.796900 -58.794102
vt 17.852400 -59.152500
vt 17.852400 -58.847500
vt 18.002001 -58.708801
vt 18.004200 -58.784401
vt 18.002001 -59.291199
vt 18.207001 -58.794102
vt 18.156000 -58.847500
vt 18.004200 -59.215599
vt 18.207001 -59.205898
vt 18.156000 -59.152500
vt 18.292000 -59.000000
vt 18.218901 -59.000000
vt 17.695000 -59.009701
vt 17.723000 -59.234798
vt 17.770201 -59.213001
vt 17.635700 -58.998901
vt 17.819201 -59.156399
vt 17.967899 -59.297798
vt 17.965599 -59.219200
vt 17.763500 -59.005901
vt 17.786301 -58.806900
vt 17.741699 -58.763599
vt 17.831100 -58.855701
vt 17.978800 -58.666801
vt 18.116899 -59.157398
vt 18.172199 -59.214401
vt 18.263500 -59.011600
vt 18.184500 -59.007301
vt 18.188299 -58.808300
vt 18.128799 -58.856701
vt 17.990601 -58.723499
vt 17.982401 -58.793999
vt 18.197701 -58.661400
vt 18.010700 -58.774502
vt 18.236300 -58.730301
vt 18.003300 -58.699501
vt 17.789000 -58.687401
vt 17.761999 -58.760399
vt 18.103399 -58.582901
vt 17.947001 -58.649700
vt 18.105700 -58.658600
vt 17.944599 -58.573898
vt 17.800699 -58.602100
vt 17.802999 -58.677799
vt 18.025101 -59.050499
vt 18.240101 -59.066399
vt 18.257700 -58.996399
vt 18.211000 -58.941299
vt 18.010500 -58.987900
vt 18.039600 -59.113098
vt 17.839100 -59.159801
vt 17.809999 -59.034599
vt 17.792400 -59.104698
vt 18.016001 -59.011902
vt 17.867599 -59.046398
vt 17.885599 -59.123798
vt 18.034100 -59.089199
vt 18.164499 -58.977299
vt 18.182600 -59.054600
vt 17.992201 -58.907398
vt 18.203100 -58.952801
vt 18.230101 -58.885899
vt 18.191500 -58.824799
vt 18.140499 -58.854099
vt 17.995800 -58.946999
vt 18.147600 -58.933201
vt 17.988600 -58.867901
vt 17.997999 -58.971401
vt 17.844000 -58.960800
vt 17.792999 -58.990002
vt 17.986401 -58.843399
vt 17.781401 -58.862000
vt 17.754299 -58.929001
vt 17.836800 -58.881599
vt 18.047600 -59.277599
vt 18.229799 -59.405300
vt 18.277000 -59.345200
vt 18.257200 -59.281502
vt 18.032101 -59.347000
vt 18.059500 -59.223202
vt 17.827801 -59.316200
vt 17.810499 -59.241798
vt 17.871201 -59.361900
vt 18.034500 -59.328602
vt 17.888100 -59.285400
vt 18.168900 -59.427898
vt 18.185801 -59.351398
vt 18.017599 -59.405102
s 1
usemtl Meshpart1Mtl.004
f 3/1/1 2/2/2 1/3/3
f 2/2/2 3/1/1 5/4/4
f 5/4/4 4/5/5 2/2/2
f 3/1/1 6/6/6 5/4/4
f 6/6/6 3/1/1 7/7/7
f 8/8/8 5/4/4 6/6/6
f 5/4/4 8/8/8 9/9/9
f 4/5/5 5/4/4 9/9/9
f 9/9/9 10/10/10 4/5/5
f 10/10/10 9/9/9 12/11/11
f 12/11/11 11/12/12 10/10/10
f 9/9/9 13/13/13 12/11/11
f 13/13/13 9/9/9 8/8/8
f 11/12/12 12/11/11 14/14/14
f 15/15/15 12/11/11 13/13/13
f 12/11/11 15/15/15 14/14/14
f 15/15/15 16/16/16 14/14/14
f 16/16/16 11/12/12 14/14/14
f 16/16/16 15/15/15 17/17/17
f 11/12/12 16/16/16 18/18/18
f 16/16/16 17/17/17 19/19/19
f 18/18/18 16/16/16 19/19/19
f 20/20/20 22/21/21 21/22/22
f 22/21/21 23/23/23 24/24/24
f 22/21/21 26/25/25 23/23/23
f 26/25/25 25/26/26 23/23/23
f 22/21/21 20/20/20 26/25/25
f 25/26/26 26/25/25 27/27/27
f 28/28/28 26/25/25 20/20/20
f 26/25/25 28/28/28 27/27/27
f 29/29/29 25/26/26 27/27/27
f 28/28/28 29/29/29 27/27/27
f 29/29/29 28/28/28 30/30/30
f 25/26/26 29/29/29 31/31/31
f 30/30/30 32/32/32 29/29/29
f 32/32/32 31/31/31 29/29/29
f 32/32/32 30/30/30 33/33/33
f 31/31/31 32/32/32 34/34/34
f 35/35/35 34/34/34 32/32/32
f 33/33/33 35/35/35 32/32/32
f 35/35/35 33/33/33 36/36/36
f 38/37/37 36/36/36 37/38/38
f 36/36/36 38/37/37 35/35/35
f 37/38/38 3/1/1 38/37/37
f 3/1/1 37/38/38 7/7/7
f 38/37/37 39/39/39 35/35/35
f 34/34/34 35/35/35 39/39/39
f 39/39/39 38/37/37 40/40/40
f 3/1/1 40/40/40 38/37/37
f 40/40/40 3/1/1 1/3/3
f 44/41/41 42/42/42 41/43/43
f 43/44/44 44/41/41 41/43/43
f 45/45/45 46/46/46 47/47/47
f 47/47/47 48/48/48 49/49/49
f 47/47/47 46/46/46 48/48/48
f 49/49/49 48/48/48 50/50/50
f 48/48/48 51/51/51 50/50/50
f 46/46/46 52/52/52 48/48/48
f 48/48/48 52/52/52 51/51/51
f 50/50/50 51/51/51 53/53/53
f 51/51/51 54/54/54 53/53/53
f 52/52/52 55/55/55 51/51/51
f 54/54/54 51/51/51 56/56/56
f 51/51/51 55/55/55 56/56/56
f 56/56/56 57/57/57 54/54/54
f 55/55/55 58/58/58 56/56/56
f 57/57/57 56/56/56 59/59/59
f 56/56/56 58/58/58 59/59/59
f 58/58/58 60/60/60 59/59/59
f 62/61/61 59/59/59 60/60/60
f 62/61/61 60/60/60 61/62/62
f 63/63/42 59/59/59 62/61/61
f 63/63/42 62/61/61 61/62/62
f 59/59/59 63/63/42 57/57/57
f 66/64/63 64/65/64 65/66/65
f 64/65/64 66/64/63 68/67/66
f 68/67/66 67/68/67 64/65/64
f 67/68/67 68/67/66 69/69/68
f 66/64/63 70/70/69 68/67/66
f 70/70/69 66/64/63 71/71/70
f 70/70/69 72/72/71 68/67/66
f 68/67/66 72/72/71 69/69/68
f 69/69/68 73/73/72 67/68/67
f 72/72/71 73/73/72 69/69/68
f 73/73/72 72/72/71 74/74/73
f 74/74/73 76/75/74 73/73/72
f 76/75/74 74/74/73 75/76/34
f 75/76/34 77/77/75 76/75/74
f 73/73/72 76/75/74 78/78/76
f 67/68/67 73/73/72 78/78/76
f 78/78/76 76/75/74 79/79/77
f 76/75/74 77/77/75 79/79/77
f 79/79/77 77/77/75 80/80/78
f 77/77/75 75/76/34 82/81/79
f 82/81/79 84/82/80 77/77/75
f 84/82/80 82/81/79 83/83/81
f 80/80/78 77/77/75 84/82/80
f 80/80/78 84/82/80 81/84/82
f 83/83/81 47/47/47 84/82/80
f 81/84/82 84/82/80 47/47/47
f 47/47/47 83/83/81 45/45/45
f 81/84/82 47/47/47 49/49/49
f 87/1/83 85/7/49 86/6/84
f 87/1/83 88/3/85 89/40/86
f 87/1/83 90/2/87 88/3/85
f 90/2/87 87/1/83 91/4/88
f 86/6/84 91/4/88 87/1/83
f 91/4/88 92/5/89 90/2/87
f 91/4/88 86/6/84 93/8/90
f 92/5/89 91/4/88 94/9/91
f 94/9/91 91/4/88 93/8/90
f 94/9/91 95/85/92 92/5/89
f 94/9/91 93/8/90 96/86/93
f 97/87/94 94/9/91 96/86/93
f 95/85/92 94/9/91 97/87/94
f 96/86/93 98/88/95 97/87/94
f 97/87/94 99/89/96 95/85/92
f 98/88/95 100/90/42 103/91/97
f 102/92/98 103/91/97 100/90/42
f 101/93/99 103/91/97 102/92/98
f 103/91/97 101/93/99 99/89/96
f 103/91/97 97/87/94 98/88/95
f 99/89/96 97/87/94 103/91/97
f 105/24/100 106/21/101 104/23/102
f 104/23/102 106/21/101 107/25/103
f 107/25/103 108/26/104 104/23/102
f 106/21/101 109/20/105 107/25/103
f 109/20/105 106/21/101 110/22/106
f 107/25/103 109/20/105 111/28/107
f 112/27/108 107/25/103 111/28/107
f 108/26/104 107/25/103 112/27/108
f 116/29/109 111/28/107 114/30/110
f 111/28/107 116/29/109 112/27/108
f 108/26/104 112/27/108 116/29/109
f 113/31/111 108/26/104 116/29/109
f 114/30/110 117/32/112 116/29/109
f 113/31/111 116/29/109 117/32/112
f 117/32/112 114/30/110 115/33/113
f 118/34/114 113/31/111 117/32/112
f 115/33/113 119/35/115 117/32/112
f 118/34/114 117/32/112 119/35/115
f 120/39/116 118/34/114 119/35/115
f 119/35/115 115/33/113 121/36/117
f 120/39/116 119/35/115 122/37/118
f 121/36/117 122/37/118 119/35/115
f 122/37/118 89/40/86 120/39/116
f 122/37/118 121/36/117 123/38/119
f 89/40/86 122/37/118 87/1/83
f 123/38/119 87/1/83 122/37/118
f 87/1/83 123/38/119 85/7/49
f 124/94/120 125/95/121 126/96/122
f 125/95/121 124/94/120 127/97/123
f 128/98/124 126/96/122 125/95/121
f 126/96/122 128/98/124 129/99/125
f 128/98/124 130/100/126 129/99/125
f 130/100/126 128/98/124 131/101/127
f 125/95/121 131/101/127 128/98/124
f 130/100/126 131/101/127 132/102/128
f 125/95/121 133/103/129 131/101/127
f 127/97/123 133/103/129 125/95/121
f 132/102/128 131/101/127 133/103/129
f 124/94/120 134/104/130 127/97/123
f 133/103/129 127/97/123 134/104/130
f 124/94/120 135/105/131 134/104/130
f 136/106/132 132/102/128 133/103/129
f 133/103/129 134/104/130 136/106/132
f 132/102/128 136/106/132 137/107/133
f 134/104/130 135/105/131 138/108/134
f 136/106/132 134/104/130 138/108/134
f 138/108/134 137/107/133 136/106/132
f 139/109/135 138/108/134 135/105/131
f 137/107/133 138/108/134 139/109/135
f 142/110/136 140/111/137 141/112/138
f 140/111/137 142/110/136 144/113/139
f 144/113/139 143/114/140 140/111/137
f 145/115/141 144/113/139 142/110/136
f 142/110/136 146/116/142 145/115/141
f 144/113/139 145/115/141 147/117/143
f 143/114/140 144/113/139 148/118/144
f 147/117/143 148/118/144 144/113/139
f 148/118/144 147/117/143 149/119/145
f 148/118/144 149/119/145 150/120/146
f 148/118/144 151/121/147 143/114/140
f 151/121/147 148/118/144 153/122/148
f 153/122/148 152/123/149 151/121/147
f 150/120/146 153/122/148 148/118/144
f 153/122/148 150/120/146 154/124/150
f 152/123/149 153/122/148 155/125/151
f 155/125/151 153/122/148 154/124/150
f 155/125/151 156/126/152 152/123/149
f 156/126/152 155/125/151 158/127/153
f 156/126/152 158/127/153 157/128/154
f 158/127/153 155/125/151 159/129/99
f 158/127/153 159/129/99 157/128/154
f 154/124/150 159/129/99 155/125/151
f 160/130/155 161/131/156 162/132/157
f 161/131/156 160/130/155 163/133/158
f 162/132/157 164/134/20 160/130/155
f 164/134/20 165/135/159 160/130/155
f 162/132/157 161/131/156 166/136/160
f 162/132/157 167/137/161 164/134/20
f 167/137/161 162/132/157 168/138/162
f 166/136/160 168/138/162 162/132/157
f 169/139/163 167/137/161 168/138/162
f 166/136/160 169/139/163 168/138/162
f 169/139/163 170/140/164 167/137/161
f 169/139/163 166/136/160 171/141/165
f 172/142/166 170/140/164 169/139/163
f 171/141/165 172/142/166 169/139/163
f 172/142/166 173/143/167 170/140/164
f 172/142/166 171/141/165 174/144/168
f 174/144/168 175/145/169 172/142/166
f 175/145/169 173/143/167 172/142/166
f 175/145/169 174/144/168 176/146/170
f 175/145/169 177/147/171 173/143/167
f 176/146/170 178/148/172 175/145/169
f 178/148/172 177/147/171 175/145/169
f 178/148/172 176/146/170 146/116/142
f 146/116/142 142/110/136 178/148/172
f 178/148/172 179/149/173 177/147/171
f 142/110/136 179/149/173 178/148/172
f 142/110/136 141/112/138 179/149/173
usemtl Meshpart2Mtl.004
f 182/150/174 180/151/175 181/152/176
f 180/151/175 182/150/174 183/153/177
f 183/153/177 182/150/174 184/154/178
f 182/150/174 185/155/179 184/154/178
f 186/156/180 188/157/14 187/158/181
f 190/159/182 188/157/14 189/160/183
f 188/157/14 190/159/182 191/161/184
f 187/158/181 188/157/14 191/161/184
f 194/162/185 193/163/186 195/164/187
f 196/165/188 195/164/187 192/166/189
f 194/162/185 195/164/187 197/167/190
f 195/164/187 196/165/188 197/167/190
f 197/167/190 198/168/191 194/162/185
f 196/165/188 199/169/192 197/167/190
f 198/168/191 197/167/190 200/170/193
f 200/170/193 197/167/190 199/169/192
f 200/170/193 201/171/194 198/168/191
f 199/169/192 202/172/195 200/170/193
f 202/172/195 203/155/196 204/173/197
f 204/173/197 200/170/193 202/172/195
f 205/150/198 204/173/197 203/155/196
f 201/171/194 200/170/193 204/173/197
f 206/152/199 204/173/197 205/150/198
f 204/173/197 206/152/199 201/171/194
f 208/174/180 207/175/200 210/176/201
f 209/177/202 210/176/201 207/175/200
f 210/176/201 211/178/203 208/174/180
f 212/179/204 211/178/203 210/176/201
f 210/176/201 209/177/202 212/179/204
f 213/180/205 208/174/180 211/178/203
f 211/178/203 212/179/204 214/181/206
f 211/178/203 214/181/206 213/180/205
f 208/174/180 213/180/205 215/182/14
f 216/183/207 213/180/205 214/181/206
f 213/180/205 216/183/207 215/182/14
f 212/179/204 217/184/208 214/181/206
f 218/185/209 216/183/207 214/181/206
f 218/185/209 214/181/206 217/184/208
f 217/184/208 212/179/204 219/186/210
f 209/177/202 219/186/210 212/179/204
f 220/187/211 218/185/209 217/184/208
f 219/186/210 220/187/211 217/184/208
f 216/183/207 218/185/209 221/188/212
f 218/185/209 220/187/211 221/188/212
f 220/187/211 219/186/210 222/189/213
f 209/177/202 222/189/213 219/186/210
f 223/190/214 225/191/215 224/192/216
f 227/193/217 223/190/214 226/194/218
f 225/191/215 223/190/214 227/193/217
f 224/192/216 225/191/215 228/195/219
f 228/195/219 229/196/220 224/192/216
f 229/196/220 228/195/219 230/197/221
f 234/198/222 232/199/178 233/200/223
f 234/198/222 231/201/224 235/202/225
f 232/199/178 234/198/222 236/203/226
f 235/202/225 236/203/226 234/198/222
f 239/157/227 241/158/228 237/156/229
f 238/160/230 242/161/231 239/157/227
f 241/158/228 239/157/227 242/161/231
f 242/161/231 238/160/230 240/159/232
f 245/204/233 243/164/215 244/166/217
f 243/164/215 245/204/233 247/205/234
f 245/204/233 246/206/235 247/205/234
f 247/205/234 248/163/236 243/164/215
f 248/163/236 247/205/234 249/207/237
f 247/205/234 250/208/238 249/207/237
f 250/208/238 247/205/234 246/206/235
f 251/209/239 249/207/237 250/208/238
f 250/208/238 252/210/240 251/209/239
f 246/206/235 253/211/241 250/208/238
f 252/210/240 250/208/238 253/211/241
f 254/198/68 252/210/240 253/211/241
f 255/200/242 252/210/240 254/198/68
f 254/198/68 253/211/241 256/201/243
f 256/201/243 253/211/241 257/212/244
f 253/211/241 246/206/235 257/212/244
f 261/157/245 262/158/246 260/156/230
f 259/160/247 263/161/248 261/157/245
f 263/161/248 262/158/246 261/157/245
f 258/159/249 263/161/248 259/160/247
f 266/213/250 265/166/251 264/214/252
f 265/166/251 266/213/250 267/164/253
f 266/213/250 268/163/254 267/164/253
f 268/163/254 266/213/250 269/215/255
f 264/214/252 270/216/256 266/213/250
f 270/216/256 269/215/255 266/213/250
f 270/216/256 264/214/252 271/217/257
f 269/215/255 270/216/256 272/218/258
f 274/219/244 275/220/259 273/221/260
f 272/218/258 276/222/261 274/219/244
f 275/220/259 274/219/244 276/222/261
f 276/222/261 272/218/258 270/216/256
f 271/217/257 276/222/261 270/216/256
f 277/223/262 275/220/259 276/222/261
f 276/222/261 271/217/257 277/223/262
f 275/220/259 277/223/262 278/224/263
f 282/225/264 280/226/265 279/227/266
f 280/226/265 282/225/264 283/228/267
f 284/229/268 279/227/266 281/230/269
f 282/225/264 285/231/270 283/228/267
f 286/232/271 279/227/266 284/229/268
f 286/232/271 282/225/264 279/227/266
f 287/233/272 282/225/264 286/232/271
f 285/231/270 282/225/264 288/234/273
f 282/225/264 287/233/272 288/234/273
f 288/234/273 287/233/272 289/235/274
f 298/185/275 295/187/228 296/188/231
f 293/183/232 298/185/275 296/188/231
f 295/187/228 299/186/276 297/189/277
f 292/177/278 297/189/277 299/186/276
f 295/187/228 298/185/275 300/184/279
f 299/186/276 295/187/228 300/184/279
f 298/185/275 293/183/232 301/181/280
f 301/181/280 300/184/279 298/185/275
f 300/184/279 302/179/281 299/186/276
f 292/177/278 299/186/276 302/179/281
f 300/184/279 301/181/280 303/178/282
f 300/184/279 303/178/282 302/179/281
f 293/183/232 304/180/283 301/181/280
f 303/178/282 301/181/280 304/180/283
f 304/180/283 293/183/232 294/182/248
f 291/174/249 304/180/283 294/182/248
f 304/180/283 291/174/249 303/178/282
f 305/176/284 292/177/278 302/179/281
f 302/179/281 303/178/282 305/176/284
f 305/176/284 303/178/282 291/174/249
f 292/177/278 305/176/284 290/175/285
f 291/174/249 290/175/285 305/176/284
f 306/236/286 307/237/287 308/238/288
f 307/237/287 306/236/286 309/239/289
f 306/236/286 310/240/290 309/239/289
f 306/236/286 311/241/291 310/240/290
f 312/161/292 313/158/249 314/157/293
f 314/157/293 315/160/294 312/161/292
f 316/156/295 314/157/293 313/158/249
f 317/159/296 312/161/292 315/160/294
f 318/242/297 319/163/298 320/164/299
f 320/164/299 321/205/300 318/242/297
f 321/205/300 322/243/301 318/242/297
f 321/205/300 320/164/299 323/166/302
f 323/166/302 324/244/303 321/205/300
f 324/244/303 325/245/304 321/205/300
f 322/243/301 321/205/300 325/245/304
f 325/245/304 324/244/303 326/246/305
f 326/246/305 327/247/306 325/245/304
f 329/236/307 327/247/306 328/241/308
f 322/243/301 332/248/309 330/249/310
f 332/248/309 331/238/311 330/249/310
f 331/238/311 332/248/309 329/236/307
f 327/247/306 329/236/307 332/248/309
f 325/245/304 332/248/309 322/243/301
f 325/245/304 327/247/306 332/248/309
usemtl Meshpart3Mtl.004
f 335/250/312 334/251/313 333/252/314
f 335/250/312 336/253/315 334/251/313
f 339/254/316 338/255/317 337/256/318
f 333/252/314 340/257/319 335/250/312
f 338/255/317 339/254/316 341/258/320
f 342/259/321 338/255/317 341/258/320
f 338/255/317 342/259/321 343/260/322
f 335/250/312 345/261/323 344/262/324
f 335/250/312 346/263/325 345/261/323
f 346/263/325 335/250/312 340/257/319
f 344/262/324 347/264/326 335/250/312
f 336/253/315 335/250/312 347/264/326
f 348/265/327 349/266/328 351/267/329
f 350/268/330 348/265/327 351/267/329
f 349/266/328 348/265/327 352/269/331
f 355/270/332 354/271/333 353/272/334
f 353/272/334 356/273/335 355/270/332
f 357/274/336 355/270/332 356/273/335
f 355/270/332 357/274/336 358/275/337
f 348/265/327 350/268/330 359/276/338
f 361/277/339 360/278/340 363/279/341
f 360/278/340 362/280/342 363/279/341
f 362/280/342 360/278/340 364/281/343
f 360/278/340 361/277/339 365/282/344
f 371/283/345 368/284/346 370/285/347
f 371/283/345 370/285/347 369/286/348
f 368/284/346 371/283/345 372/287/349
f 369/286/348 373/288/350 371/283/345
f 366/289/351 372/287/349 371/283/345
f 371/283/345 367/290/352 366/289/351
f 374/291/353 371/283/345 373/288/350
f 371/283/345 374/291/353 367/290/352
f 375/292/354 377/293/355 376/294/356
f 377/293/355 375/292/354 378/295/357
f 377/293/355 379/296/358 376/294/356
f 379/296/358 377/293/355 380/297/359
f 383/298/360 381/299/361 382/300/362
f 381/299/361 383/298/360 384/301/363
f 383/298/360 385/302/364 384/301/363
f 383/298/360 386/303/365 385/302/364
f 387/304/366 390/305/367 388/306/368
f 389/307/369 388/306/368 390/305/367
f 390/305/367 387/304/366 391/308/370
f 389/307/369 390/305/367 392/309/371
f 393/310/372 391/308/370 387/304/366
f 392/309/371 394/311/373 389/307/369
f 392/309/371 395/312/374 394/311/373
f 391/308/370 393/310/372 396/313/375
f 397/314/376 396/313/375 393/310/372
f 396/313/375 397/314/376 398/315/321
f 400/316/377 397/314/376 399/317/378
f 400/316/377 398/315/321 397/314/376
f 398/315/321 400/316/377 401/318/379
f 399/317/378 402/319/380 400/316/377
f 403/320/381 400/316/377 402/319/380
f 400/316/377 404/321/382 401/318/379
f 400/316/377 403/320/381 405/322/383
f 400/316/377 405/322/383 404/321/382
f 405/322/383 394/311/373 395/312/374
f 405/322/383 395/312/374 404/321/382
f 408/323/384 407/324/385 406/325/386
f 409/326/387 408/323/384 406/325/386
f 407/324/385 408/323/384 410/327/388
f 408/323/384 409/326/387 411/328/389
f 408/323/384 412/329/390 410/327/388
f 408/323/384 411/328/389 413/330/391
f 412/329/390 408/323/384 414/331/392
f 408/323/384 413/330/391 414/331/392
f 415/332/393 410/327/388 412/329/390
f 416/333/394 413/330/391 411/328/389
f 410/327/388 415/332/393 417/334/395
f 418/335/396 417/334/395 415/332/393
f 417/334/395 418/335/396 419/336/397
f 420/337/398 419/336/397 418/335/396
f 419/336/397 420/337/398 421/338/399
f 422/339/336 421/338/399 420/337/398
f 422/339/336 420/337/398 423/340/400
f 423/340/400 424/341/401 422/339/336
f 411/328/389 424/341/401 416/333/394
f 424/341/401 423/340/400 416/333/394
f 427/342/402 426/343/403 428/344/404
f 427/342/402 429/345/405 425/346/406
f 427/342/402 428/344/404 430/347/407
f 429/345/405 427/342/402 430/347/407
f 431/348/408 428/344/404 426/343/403
f 432/349/409 425/346/406 429/345/405
f 425/346/406 432/349/409 433/350/410
f 434/351/411 433/350/410 432/349/409
f 433/350/410 434/351/411 435/352/412
f 436/353/413 435/352/412 434/351/411
f 435/352/412 436/353/413 437/354/414
f 438/355/353 437/354/414 436/353/413
f 438/355/353 436/353/413 439/356/415
f 439/356/415 440/357/416 438/355/353
f 440/357/416 439/356/415 431/348/408
f 426/343/403 440/357/416 431/348/408
f 442/358/417 443/359/418 444/360/419
f 443/359/418 442/358/417 445/361/420
f 445/361/420 446/362/421 443/359/418
f 445/361/420 447/363/422 446/362/421
f 448/364/423 442/358/417 444/360/419
f 448/364/423 444/360/419 449/365/424
f 450/366/425 441/367/426 448/364/423
f 450/366/425 448/364/423 449/365/424
f 450/366/425 449/365/424 451/368/427
f 441/367/426 450/366/425 452/369/428
f 450/366/425 453/370/429 452/369/428
f 450/366/425 454/371/430 453/370/429
f 455/372/431 450/366/425 451/368/427
f 450/366/425 455/372/431 454/371/430
f 456/373/432 454/371/430 455/372/431
f 457/374/433 453/370/429 454/371/430
f 454/371/430 456/373/432 458/375/434
f 457/374/433 454/371/430 458/375/434
f 459/376/435 458/375/434 456/373/432
f 458/375/434 459/376/435 460/377/436
f 460/377/436 446/362/421 447/363/422
f 446/362/421 460/377/436 459/376/435
f 462/378/437 461/379/438 463/380/439
f 464/381/440 463/380/439 461/379/438
f 464/381/440 461/379/438 465/382/441
f 461/379/438 462/378/437 466/383/442
f 469/384/443 467/385/444 468/386/445
f 468/386/445 470/387/446 469/384/443
f 471/388/324 469/384/443 470/387/446
f 469/384/443 471/388/324 472/389/447
f 475/390/68 474/391/448 473/392/449
f 475/390/68 476/393/450 474/391/448
f 477/394/390 479/395/451 478/396/452
f 479/395/451 477/394/390 480/397/453
f 481/398/454 478/396/452 479/395/451
f 478/396/452 481/398/454 482/399/455
f 475/390/68 484/400/456 483/401/457
f 475/390/68 485/402/458 484/400/456
f 475/390/68 483/401/457 486/403/459
f 476/393/450 475/390/68 486/403/459
f 485/402/458 475/390/68 487/404/460
f 475/390/68 473/392/449 487/404/460
f 491/405/68 489/406/461 488/407/462
f 491/405/68 490/408/463 489/406/461
f 488/407/462 494/409/464 491/405/68
f 495/410/465 491/405/68 494/409/464
f 491/405/68 495/410/465 496/411/466
f 497/412/467 492/413/468 493/414/469
f 492/413/468 497/412/467 498/415/470
f 499/416/471 498/415/470 497/412/467
f 498/415/470 499/416/471 500/417/472
f 491/405/68 496/411/466 501/418/473
f 491/405/68 501/418/473 502/419/474
f 490/408/463 491/405/68 502/419/474
f 504/420/475 506/421/476 503/422/477
f 506/421/476 504/420/475 508/423/478
f 509/424/479 507/425/480 505/426/481
f 504/420/475 510/427/482 508/423/478
f 510/427/482 504/420/475 511/428/483
f 509/424/479 513/429/484 514/430/485
f 509/424/479 512/431/486 513/429/484
f 514/430/485 515/432/436 509/424/479
f 507/425/480 509/424/479 515/432/436
f 512/431/486 509/424/479 516/433/487
f 517/434/488 518/435/489 519/436/490
f 517/434/488 520/437/491 518/435/489
f 521/438/437 524/439/492 522/440/371
f 520/437/491 517/434/488 523/441/493
f 517/434/488 525/442/494 523/441/493
f 517/434/488 526/443/495 525/442/494
f 517/434/488 527/444/496 526/443/495
f 527/444/496 517/434/488 528/445/497
f 517/434/488 519/436/490 528/445/497
f 524/439/492 530/446/498 529/447/382
f 530/446/498 524/439/492 531/448/499
f 521/438/437 531/448/499 524/439/492
f 532/449/500 533/450/501 534/451/502
f 535/452/503 532/449/500 534/451/502
f 533/450/501 532/449/500 536/453/504
f 532/449/500 535/452/503 537/454/505
f 540/455/506 539/456/507 538/457/508
f 538/457/508 541/458/509 540/455/506
f 542/459/510 540/455/506 541/458/509
f 540/455/506 542/459/510 543/460/511
f 544/461/512 545/462/513 546/463/514
f 545/462/513 547/464/406 546/463/514
f 545/462/513 544/461/512 548/465/515
f 549/466/462 545/462/513 548/465/515
f 545/462/513 549/466/462 550/467/516
f 545/462/513 550/467/516 551/468/517
f 545/462/513 551/468/517 552/469/518
f 547/464/406 545/462/513 552/469/518
f 557/470/519 555/471/520 554/472/471
f 554/472/471 556/473/521 557/470/519
f 553/474/522 557/470/519 556/473/521
f 557/470/519 553/474/522 558/475/523
f 560/476/524 561/477/525 559/478/526
f 561/477/525 560/476/524 563/479/527
f 560/476/524 564/480/528 563/479/527
f 564/480/528 560/476/524 562/481/529
f 567/482/530 565/483/482 566/484/531
f 565/483/482 567/482/530 568/485/431
f 569/486/532 568/485/431 567/482/530
f 567/482/530 570/487/533 569/486/532
f 573/488/534 572/489/535 571/490/489
f 571/490/489 574/491/536 573/488/534
f 575/492/313 573/488/534 574/491/536
f 573/488/534 575/492/313 576/493/537
f 577/494/538 573/488/534 576/493/537
f 573/488/534 577/494/538 578/495/539
f 579/496/540 573/488/534 578/495/539
f 573/488/534 579/496/540 572/489/535
f 580/497/541 572/489/535 579/496/540
f 582/498/542 583/499/543 580/497/541
f 572/489/535 580/497/541 583/499/543
f 583/499/543 582/498/542 581/500/544
f 584/501/545 581/500/544 582/498/542
f 581/500/544 584/501/545 585/502/446
f 584/501/545 586/503/546 585/502/446
f 586/503/546 584/501/545 587/504/547
f 588/505/548 586/503/546 587/504/547
f 588/505/548 587/504/547 589/506/549
f 576/493/537 588/505/548 589/506/549
f 576/493/537 589/506/549 577/494/538
f 590/507/550 593/508/551 591/509/552
f 593/508/551 592/510/553 591/509/552
f 593/508/551 590/507/550 595/511/554
f 596/512/555 595/511/554 590/507/550
f 595/511/554 596/512/555 594/513/556
f 597/514/557 594/513/556 596/512/555
f 594/513/556 597/514/557 598/515/558
f 600/516/559 598/515/558 597/514/557
f 600/516/559 597/514/557 599/517/560
f 598/515/558 600/516/559 601/518/561
f 599/517/560 602/519/562 600/516/559
f 603/520/563 600/516/559 602/519/562
f 600/516/559 604/521/564 601/518/561
f 600/516/559 603/520/563 605/522/565
f 600/516/559 605/522/565 604/521/564
f 605/522/565 606/523/566 604/521/564
f 606/523/566 605/522/565 607/524/567
f 608/525/568 606/523/566 607/524/567
f 607/524/567 592/510/553 608/525/568
f 592/510/553 593/508/551 608/525/568
f 609/526/569 611/527/570 610/528/571
f 611/527/570 612/529/572 610/528/571
f 611/527/570 609/526/569 613/530/573
f 612/529/572 611/527/570 614/531/574
f 616/532/575 612/529/572 614/531/574
f 614/531/574 615/533/576 616/532/575
f 617/534/577 613/530/573 609/526/569
f 615/533/576 618/535/578 616/532/575
f 618/535/578 615/533/576 619/536/579
f 613/530/573 617/534/577 620/537/580
f 621/538/581 620/537/580 617/534/577
f 620/537/580 621/538/581 622/539/582
f 623/540/583 622/539/582 621/538/581
f 622/539/582 623/540/583 624/541/584
f 623/540/583 618/535/578 619/536/579
f 623/540/583 619/536/579 624/541/584
f 625/542/585 626/543/586 627/544/587
f 626/543/586 625/542/585 628/545/588
f 625/542/585 627/544/587 629/546/589
f 627/544/587 630/547/590 631/548/475
f 631/548/475 629/546/589 627/544/587
f 625/542/585 629/546/589 632/549/356
f 632/549/356 633/550/591 625/542/585
f 633/550/591 628/545/588 625/542/585
f 628/545/588 633/550/591 634/551/592
f 633/550/591 632/549/356 635/552/593
f 636/553/479 634/551/592 633/550/591
f 630/547/590 637/554/594 631/548/475
f 637/554/594 630/547/590 639/555/595
f 640/556/596 637/554/594 639/555/595
f 637/554/594 640/556/596 638/557/597
f 641/558/598 638/557/597 640/556/596
f 638/557/597 641/558/598 642/559/599
f 643/560/600 642/559/599 641/558/598
f 633/550/591 643/560/600 636/553/479
f 642/559/599 643/560/600 644/561/601
f 644/561/601 633/550/591 635/552/593
f 633/550/591 644/561/601 643/560/600
f 646/562/602 647/563/603 645/564/604
f 647/563/603 646/562/602 648/565/605
f 649/566/314 647/563/603 648/565/605
f 647/563/603 649/566/314 650/567/606
f 651/568/607 653/569/608 652/570/609
f 651/568/607 654/571/379 653/569/608
f 655/572/610 653/569/608 654/571/379
f 653/569/608 655/572/610 656/573/611
f 659/574/612 657/575/613 658/576/614
f 660/577/615 659/574/612 658/576/614
f 659/574/612 660/577/615 663/578/395
f 657/575/613 659/574/612 664/579/616
f 659/574/612 665/580/617 664/579/616
f 666/581/618 659/574/612 663/578/395
f 665/580/617 659/574/612 667/582/619
f 659/574/612 666/581/618 667/582/619
f 662/583/620 669/584/621 668/585/622
f 668/585/622 670/586/566 662/583/620
f 661/587/623 662/583/620 670/586/566
f 670/586/566 671/588/568 661/587/623
f 675/589/162 672/590/512 673/591/624
f 674/592/406 675/589/162 673/591/624
f 676/593/625 679/594/576 678/595/626
f 676/593/625 677/596/627 679/594/576
f 672/590/512 675/589/162 680/597/577
f 677/596/627 681/598/628 679/594/576
f 675/589/162 682/599/629 680/597/577
f 675/589/162 674/592/406 683/600/630
f 684/601/631 675/589/162 683/600/630
f 682/599/629 675/589/162 685/602/632
f 675/589/162 684/601/631 685/602/632
f 677/596/627 686/603/633 681/598/628
f 689/604/426 688/605/634 687/606/526
f 689/604/426 687/606/526 690/607/635
f 688/605/634 689/604/426 691/608/636
f 690/607/635 694/609/637 689/604/426
f 689/604/426 695/610/638 691/608/636
f 689/604/426 696/611/639 695/610/638
f 698/612/533 699/613/640 697/614/641
f 699/613/640 692/615/642 693/616/643
f 699/613/640 698/612/533 700/617/601
f 692/615/642 699/613/640 700/617/601
