# Blender 5.2.0 LTS
# www.blender.org
mtllib skull grenade bodyyyyyyyyy.mtl
o head_skull_grenade
v 0.825887 0.132510 -0.000000
v 0.825887 0.195646 0.082234
v 0.825887 0.175088 0.102792
v 0.825887 0.277880 0.145370
v 0.825887 0.161584 -0.000000
v 0.825887 0.277880 0.116296
v 0.825887 0.195646 -0.082234
v 0.825887 0.360114 0.082234
v 0.825887 0.175088 -0.102792
v 0.825887 0.380673 0.102792
v 0.825887 0.277880 -0.145370
v 0.825887 0.394177 -0.000000
v 0.825887 0.277880 -0.116296
v 0.825887 0.423251 -0.000000
v 0.825887 0.360114 -0.082234
v 0.825887 0.380673 -0.102792
v 0.746788 0.277880 -0.116296
v 0.825887 0.277880 -0.116296
v 0.746788 0.360114 -0.082234
v 0.825887 0.360114 -0.082234
v 0.825887 0.195646 -0.082234
v 0.746788 0.394177 -0.000000
v 0.825887 0.394177 -0.000000
v 0.746788 0.195646 -0.082234
v 0.825887 0.161584 -0.000000
v 0.746788 0.360114 0.082234
v 0.825887 0.360114 0.082234
v 0.746788 0.277880 0.116296
v 0.825887 0.277880 0.116296
v 0.746788 0.161584 -0.000000
v 0.825887 0.195646 0.082234
v 0.746788 0.195646 0.082234
v 0.659838 0.327522 -0.194809
v 0.712018 0.276151 -0.139580
v 0.710890 0.276151 -0.200524
v 0.659838 0.328330 -0.139580
v 0.678674 0.276151 -0.267624
v 0.649112 0.307733 -0.256508
v 0.628196 0.276151 -0.330420
v 0.712018 0.276151 0.139580
v 0.659838 0.327522 0.194809
v 0.710890 0.276151 0.200524
v 0.659838 0.328330 0.139580
v 0.678674 0.276151 0.267624
v 0.649112 0.307733 0.256507
v 0.628196 0.276151 0.330420
v 0.353796 -0.425939 0.026350
v 0.262597 -0.425939 0.026350
v 0.353796 -0.425939 -0.026350
v 0.308197 -0.425939 0.052701
v 0.262597 -0.425939 -0.026350
v 0.308197 -0.425939 -0.052701
v 0.659838 0.470960 -0.051371
v 0.712018 0.415731 -0.000000
v 0.659838 0.415731 -0.052180
v 0.710890 0.476675 -0.000000
v 0.678674 0.543775 -0.000000
v 0.649112 0.532658 -0.031583
v 0.628196 0.606570 -0.000000
v 0.710890 0.476675 -0.000000
v 0.659838 0.470960 0.051371
v 0.712018 0.415731 -0.000000
v 0.659838 0.415731 0.052179
v 0.678674 0.543775 -0.000000
v 0.649112 0.532658 0.031582
v 0.628196 0.606570 -0.000000
v 0.659838 0.081342 -0.051371
v 0.659838 0.136570 -0.052180
v 0.712018 0.136570 -0.000000
v 0.710890 0.075627 -0.000000
v 0.678674 0.008527 -0.000000
v 0.649112 0.019643 -0.031583
v 0.628196 -0.054269 0.000000
v 0.712018 0.136570 -0.000000
v 0.659838 0.081342 0.051371
v 0.710890 0.075627 -0.000000
v 0.659838 0.136570 0.052179
v 0.678674 0.008527 -0.000000
v 0.649112 0.019643 0.031582
v 0.628196 -0.054269 0.000000
v 0.429838 0.327522 -0.194809
v 0.482018 0.276151 -0.139580
v 0.480890 0.276151 -0.200524
v 0.429838 0.328330 -0.139580
v 0.448674 0.276151 -0.267624
v 0.419112 0.307733 -0.256508
v 0.398196 0.276151 -0.330420
v 0.482017 0.276151 0.139580
v 0.429838 0.327522 0.194809
v 0.480890 0.276151 0.200524
v 0.429838 0.328330 0.139580
v 0.448674 0.276151 0.267624
v 0.419112 0.307733 0.256507
v 0.398196 0.276151 0.330420
v -0.693573 -0.313572 -0.142666
v -0.891367 -0.260003 -0.153369
v -0.693600 -0.300909 -0.170532
v -0.895302 -0.269957 -0.131823
v -0.360282 -0.432570 -0.178161
v -0.963770 -0.256662 -0.151868
v -0.963070 -0.267085 -0.130816
v -0.985887 -0.241544 -0.133456
v -0.360303 -0.405153 -0.238497
v -0.193445 -0.323262 -0.200310
v -0.194015 -0.350983 -0.140116
v -0.180560 -0.213952 -0.149338
v -0.181130 -0.241959 -0.089277
v -0.693573 -0.313572 0.142666
v -0.891367 -0.260003 0.153369
v -0.895302 -0.269957 0.131823
v -0.963770 -0.256662 0.151868
v -0.963070 -0.267085 0.130816
v -0.985887 -0.241544 0.133456
v -0.693600 -0.300909 0.170532
v -0.360282 -0.432570 0.178161
v -0.360303 -0.405153 0.238497
v -0.193445 -0.323262 0.200310
v -0.194015 -0.350983 0.140116
v -0.180560 -0.213952 0.149338
v -0.181130 -0.241959 0.089277
v 0.659838 0.224779 -0.194809
v 0.712018 0.276151 -0.139580
v 0.659838 0.223971 -0.139580
v 0.710890 0.276151 -0.200524
v 0.678674 0.276151 -0.267624
v 0.649112 0.244568 -0.256508
v 0.628196 0.276151 -0.330420
v 0.659838 0.223971 0.139580
v 0.712018 0.276151 0.139580
v 0.659838 0.224779 0.194809
v 0.710890 0.276151 0.200524
v 0.678674 0.276151 0.267624
v 0.649112 0.244568 0.256507
v 0.628196 0.276151 0.330420
v 0.429838 0.470960 -0.051371
v 0.482018 0.415731 -0.000000
v 0.429838 0.415731 -0.052180
v 0.480890 0.476675 -0.000000
v 0.448674 0.543775 -0.000000
v 0.419112 0.532658 -0.031583
v 0.398196 0.606570 -0.000000
v 0.480890 0.476675 -0.000000
v 0.429838 0.470960 0.051371
v 0.482018 0.415731 -0.000000
v 0.429838 0.415731 0.052179
v 0.448674 0.543775 -0.000000
v 0.419112 0.532658 0.031582
v 0.398196 0.606570 -0.000000
v 0.365196 0.166061 -0.032938
v 0.402246 0.096061 0.054348
v 0.402246 0.096061 -0.054348
v 0.365196 0.166061 0.032938
v 0.365196 0.026061 0.032938
v 0.365196 0.026061 -0.032938
v 0.365196 -0.303939 -0.032938
v 0.365196 -0.303939 0.032938
v 0.390276 -0.361939 0.047431
v 0.390276 -0.361939 -0.047431
v 0.353796 -0.425939 -0.026350
v 0.353796 -0.425939 0.026350
v -0.297592 -0.246833 0.352983
v -0.238291 -0.247654 0.246869
v -0.254079 -0.291274 0.331682
v -0.284867 -0.335332 0.441482
v -0.313437 -0.188237 0.294388
v -0.327443 -0.136244 0.242394
v -0.238291 -0.199284 0.179354
v -0.238291 0.030536 -0.424740
v -0.327443 0.106151 -0.342797
v -0.313436 0.106151 -0.416328
v -0.238291 0.016998 -0.342797
v -0.297591 0.106151 -0.499194
v -0.254079 0.059663 -0.515556
v -0.284867 0.106151 -0.624350
v -0.327443 0.106151 0.342797
v -0.238291 0.030536 0.424740
v -0.313437 0.106151 0.416327
v -0.238291 0.016998 0.342797
v -0.297592 0.106151 0.499193
v -0.254079 0.059663 0.515556
v -0.284867 0.106151 0.624350
v -0.254079 -0.291274 -0.331682
v -0.297591 -0.246832 -0.352983
v -0.284867 -0.335332 -0.441482
v -0.238291 -0.247654 -0.246869
v -0.313436 -0.188237 -0.294388
v -0.327443 -0.136244 -0.242394
v -0.238291 -0.199284 -0.179354
v -0.297591 0.459134 -0.352983
v -0.238291 0.353019 -0.353804
v -0.313436 0.400539 -0.294388
v -0.327443 0.348545 -0.242394
v -0.238291 0.285505 -0.305435
v -0.254079 0.437832 -0.397425
v -0.284867 0.547633 -0.441482
v -0.297592 0.459134 0.352983
v -0.254079 0.437832 0.397425
v -0.284867 0.547633 0.441482
v -0.238291 0.353019 0.353804
v -0.313437 0.400539 0.294388
v -0.327443 0.348545 0.242394
v -0.238291 0.285505 0.305434
v -0.297592 -0.246833 0.352983
v -0.254079 -0.225531 0.397425
v -0.238291 -0.140718 0.353804
v -0.284867 -0.335332 0.441482
v -0.313437 -0.188237 0.294388
v -0.327443 -0.136244 0.242394
v -0.238291 -0.073203 0.305434
v -0.297591 -0.246832 -0.352983
v -0.254079 -0.225531 -0.397425
v -0.284867 -0.335332 -0.441482
v -0.238291 -0.140718 -0.353804
v -0.313436 -0.188237 -0.294388
v -0.327443 -0.136244 -0.242394
v -0.238291 -0.073203 -0.305435
v -0.238291 0.459955 -0.246869
v -0.297591 0.459134 -0.352983
v -0.313436 0.400539 -0.294388
v -0.327443 0.348545 -0.242394
v -0.238291 0.411585 -0.179354
v -0.254079 0.503575 -0.331682
v -0.284867 0.547633 -0.441482
v -0.254079 0.503576 0.331682
v -0.297592 0.459134 0.352983
v -0.284867 0.547633 0.441482
v -0.238291 0.459955 0.246869
v -0.313437 0.400539 0.294388
v -0.327443 0.348545 0.242394
v -0.238291 0.411585 0.179354
v -0.327443 0.106151 -0.342797
v -0.238291 0.181765 -0.424740
v -0.313436 0.106151 -0.416328
v -0.238291 0.195303 -0.342797
v -0.297591 0.106151 -0.499194
v -0.254079 0.152638 -0.515556
v -0.284867 0.106151 -0.624350
v -0.238291 0.195303 0.342797
v -0.327443 0.106151 0.342797
v -0.238291 0.181765 0.424740
v -0.313437 0.106151 0.416327
v -0.297592 0.106151 0.499193
v -0.254079 0.152638 0.515556
v -0.284867 0.106151 0.624350
v 0.199838 0.327522 -0.194809
v 0.252018 0.276151 -0.139580
v 0.250890 0.276151 -0.200524
v 0.199838 0.328330 -0.139580
v 0.218674 0.276151 -0.267624
v 0.189112 0.307733 -0.256508
v 0.168196 0.276151 -0.330420
v 0.252018 0.276151 0.139580
v 0.199838 0.327522 0.194809
v 0.250890 0.276151 0.200524
v 0.199838 0.328330 0.139580
v 0.218674 0.276151 0.267624
v 0.189112 0.307733 0.256507
v 0.168196 0.276151 0.330420
v -0.690998 -0.293612 -0.116800
v -0.895302 -0.269957 -0.131823
v -0.693573 -0.313572 -0.142666
v -0.360282 -0.432570 -0.178161
v -0.896563 -0.254306 -0.111402
v -0.358273 -0.389157 -0.122067
v -0.963070 -0.267085 -0.130816
v -0.963366 -0.252364 -0.110411
v -0.985887 -0.241544 -0.133456
v -0.249205 -0.337022 -0.097755
v -0.194015 -0.350983 -0.140116
v -0.236319 -0.255690 -0.059830
v -0.181130 -0.241959 -0.089277
v -0.690998 -0.293612 0.116800
v -0.895302 -0.269957 0.131823
v -0.896563 -0.254306 0.111402
v -0.963070 -0.267085 0.130816
v -0.963366 -0.252364 0.110411
v -0.985887 -0.241544 0.133456
v -0.693573 -0.313572 0.142666
v -0.360282 -0.432570 0.178161
v -0.358273 -0.389157 0.122067
v -0.249205 -0.337022 0.097755
v -0.194015 -0.350983 0.140116
v -0.236319 -0.255690 0.059830
v -0.181130 -0.241959 0.089277
v -0.081214 0.276151 -0.189094
v -0.030162 0.328330 -0.139580
v -0.030162 0.327522 -0.194809
v -0.082341 0.276151 -0.139580
v -0.070449 0.276151 -0.245391
v -0.040888 0.307733 -0.256508
v -0.061804 0.276151 -0.330420
v -0.030162 0.328330 0.139580
v -0.081214 0.276151 0.189094
v -0.030162 0.327522 0.194809
v -0.082341 0.276151 0.139580
v -0.070449 0.276151 0.245391
v -0.040888 0.307733 0.256507
v -0.061804 0.276151 0.330420
v 0.429838 0.224779 -0.194809
v 0.482018 0.276151 -0.139580
v 0.429838 0.223971 -0.139580
v 0.480890 0.276151 -0.200524
v 0.448674 0.276151 -0.267624
v 0.419112 0.244568 -0.256508
v 0.398196 0.276151 -0.330420
v 0.429838 0.223971 0.139580
v 0.482017 0.276151 0.139580
v 0.429838 0.224779 0.194809
v 0.480890 0.276151 0.200524
v 0.448674 0.276151 0.267624
v 0.419112 0.244568 0.256507
v 0.398196 0.276151 0.330420
v 0.199838 0.470960 -0.051371
v 0.252018 0.415731 -0.000000
v 0.199838 0.415731 -0.052180
v 0.250890 0.476675 -0.000000
v 0.218674 0.543775 -0.000000
v 0.189112 0.532658 -0.031583
v 0.168196 0.606570 -0.000000
v 0.250890 0.476675 -0.000000
v 0.199838 0.470960 0.051371
v 0.252018 0.415731 -0.000000
v 0.199838 0.415731 0.052179
v 0.218674 0.543775 -0.000000
v 0.189112 0.532658 0.031582
v 0.168196 0.606570 -0.000000
v 0.365196 -0.303939 0.032938
v 0.308197 0.026061 0.065876
v 0.308197 -0.303939 0.065876
v 0.308197 -0.361939 0.094861
v 0.365196 0.026061 0.032938
v 0.390276 -0.361939 0.047431
v 0.353796 -0.425939 0.026350
v 0.308197 -0.425939 0.052701
v 0.308197 0.096061 0.108695
v 0.402246 0.096061 0.054348
v 0.365196 0.166061 0.032938
v 0.308197 0.166061 0.065876
v 0.365196 0.026061 -0.032938
v 0.308197 0.096061 -0.108695
v 0.402246 0.096061 -0.054348
v 0.365196 0.166061 -0.032938
v 0.308197 0.166061 -0.065876
v 0.308197 0.026061 -0.065876
v 0.308197 -0.303939 -0.065876
v 0.365196 -0.303939 -0.032938
v 0.308197 -0.361939 -0.094861
v 0.390276 -0.361939 -0.047431
v 0.353796 -0.425939 -0.026350
v 0.308197 -0.425939 -0.052701
v -0.891367 -0.260003 -0.153369
v -0.963770 -0.256662 -0.151868
v -0.888691 -0.234005 -0.154221
v -0.964779 -0.231141 -0.152238
v -0.985887 -0.241544 -0.133456
v -0.690998 -0.267783 -0.172191
v -0.693600 -0.300909 -0.170532
v -0.358273 -0.333232 -0.241998
v -0.360303 -0.405153 -0.238497
v -0.193445 -0.323262 -0.200310
v -0.249205 -0.281097 -0.217686
v -0.180560 -0.213952 -0.149338
v -0.236319 -0.199765 -0.179761
v -0.963770 -0.256662 0.151868
v -0.891367 -0.260003 0.153369
v -0.888691 -0.234005 0.154221
v -0.964779 -0.231141 0.152238
v -0.985887 -0.241544 0.133456
v -0.690998 -0.267783 0.172191
v -0.693600 -0.300909 0.170532
v -0.358273 -0.333232 0.241998
v -0.360303 -0.405153 0.238497
v -0.193445 -0.323262 0.200310
v -0.249205 -0.281097 0.217686
v -0.180560 -0.213952 0.149338
v -0.236319 -0.199765 0.179761
v -0.030162 0.327522 -0.194809
v 0.022018 0.276151 -0.139580
v 0.020890 0.276151 -0.200524
v -0.030162 0.328330 -0.139580
v -0.011326 0.276151 -0.267624
v -0.040888 0.307733 -0.256508
v -0.061804 0.276151 -0.330420
v 0.022018 0.276151 0.139580
v -0.030162 0.327522 0.194809
v 0.020890 0.276151 0.200524
v -0.030162 0.328330 0.139580
v -0.011326 0.276151 0.267624
v -0.040888 0.307733 0.256507
v -0.061804 0.276151 0.330420
v -0.081214 0.465244 -0.000000
v -0.082341 0.415731 -0.000000
v -0.030162 0.415731 0.052179
v -0.030162 0.470960 0.051371
v -0.070449 0.521542 -0.000000
v -0.040888 0.532658 0.031582
v -0.061804 0.606570 -0.000000
v -0.030162 0.415731 -0.052180
v -0.081214 0.465244 -0.000000
v -0.030162 0.470960 -0.051371
v -0.082341 0.415731 -0.000000
v -0.070449 0.521542 -0.000000
v -0.040888 0.532658 -0.031583
v -0.061804 0.606570 -0.000000
v -0.081214 0.087057 -0.000000
v -0.030162 0.136570 -0.052180
v -0.030162 0.081342 -0.051371
v -0.082341 0.136570 -0.000000
v -0.070449 0.030760 -0.000000
v -0.040888 0.019643 -0.031583
v -0.061804 -0.054269 0.000000
v -0.081214 0.087057 -0.000000
v -0.030162 0.136570 0.052179
v -0.082341 0.136570 -0.000000
v -0.030162 0.081342 0.051371
v -0.070449 0.030760 -0.000000
v -0.040888 0.019643 0.031582
v -0.061804 -0.054269 0.000000
v 0.148786 0.276151 -0.189094
v 0.199838 0.328330 -0.139580
v 0.199838 0.327522 -0.194809
v 0.147659 0.276151 -0.139580
v 0.159551 0.276151 -0.245391
v 0.189112 0.307733 -0.256508
v 0.168196 0.276151 -0.330420
v 0.199838 0.328330 0.139580
v 0.148786 0.276151 0.189094
v 0.199838 0.327522 0.194809
v 0.147659 0.276151 0.139580
v 0.159551 0.276151 0.245391
v 0.189112 0.307733 0.256507
v 0.168196 0.276151 0.330420
v 0.365196 0.166061 0.032938
v 0.251197 0.166061 0.032938
v 0.308197 0.166061 0.065876
v 0.251197 0.166061 -0.032938
v 0.365196 0.166061 -0.032938
v 0.308197 0.166061 -0.065876
v 0.199838 0.224779 -0.194809
v 0.252018 0.276151 -0.139580
v 0.199838 0.223971 -0.139580
v 0.250890 0.276151 -0.200524
v 0.218674 0.276151 -0.267624
v 0.189112 0.244568 -0.256508
v 0.168196 0.276151 -0.330420
v 0.199838 0.223971 0.139580
v 0.252018 0.276151 0.139580
v 0.199838 0.224779 0.194809
v 0.250890 0.276151 0.200524
v 0.218674 0.276151 0.267624
v 0.189112 0.244568 0.256507
v 0.168196 0.276151 0.330420
v -0.030162 0.470960 -0.051371
v 0.022018 0.415731 -0.000000
v -0.030162 0.415731 -0.052180
v 0.020890 0.476675 -0.000000
v -0.011326 0.543775 -0.000000
v -0.040888 0.532658 -0.031583
v -0.061804 0.606570 -0.000000
v 0.020890 0.476675 -0.000000
v -0.030162 0.470960 0.051371
v 0.022018 0.415731 -0.000000
v -0.030162 0.415731 0.052179
v -0.011326 0.543775 -0.000000
v -0.040888 0.532658 0.031582
v -0.061804 0.606570 -0.000000
v 0.659838 0.136570 0.052179
v 0.659838 0.136570 -0.052180
v 0.607658 0.136570 -0.000000
v 0.712018 0.136570 -0.000000
v -0.082341 0.136570 -0.000000
v -0.030162 0.136570 0.052179
v 0.022018 0.136570 -0.000000
v -0.030162 0.136570 -0.052180
v -0.081214 0.276151 -0.189094
v -0.030162 0.223971 -0.139580
v -0.082341 0.276151 -0.139580
v -0.030162 0.224779 -0.194809
v -0.070449 0.276151 -0.245391
v -0.040888 0.244568 -0.256508
v -0.061804 0.276151 -0.330420
v -0.082341 0.276151 0.139580
v -0.030162 0.223971 0.139580
v -0.081214 0.276151 0.189094
v -0.030162 0.224779 0.194809
v -0.070449 0.276151 0.245391
v -0.040888 0.244568 0.256507
v -0.061804 0.276151 0.330420
v -0.161633 0.175088 0.102792
v 0.825887 0.175088 0.102792
v 0.825887 0.277880 0.145370
v -0.161633 0.132510 -0.000000
v -0.161633 0.277880 0.145370
v 0.825887 0.132510 -0.000000
v 0.825887 0.380673 0.102792
v -0.161633 0.175088 -0.102792
v -0.161633 0.380673 0.102792
v 0.825887 0.175088 -0.102792
v 0.825887 0.423251 -0.000000
v -0.161633 0.277880 -0.145370
v -0.161633 0.423251 -0.000000
v 0.825887 0.277880 -0.145370
v 0.825887 0.380673 -0.102792
v -0.161633 0.380673 -0.102792
v 0.022018 0.136570 -0.000000
v -0.030162 0.081342 0.051371
v 0.020890 0.075627 -0.000000
v -0.030162 0.136570 0.052179
v -0.011326 0.008527 -0.000000
v -0.040888 0.019643 0.031582
v -0.061804 -0.054269 0.000000
v -0.030162 0.081342 -0.051371
v -0.030162 0.136570 -0.052180
v 0.022018 0.136570 -0.000000
v 0.020890 0.075627 -0.000000
v -0.011326 0.008527 -0.000000
v -0.040888 0.019643 -0.031583
v -0.061804 -0.054269 0.000000
v -0.254079 -0.291274 0.331682
v -0.163146 -0.200134 0.306285
v -0.210566 -0.269973 0.376123
v -0.284867 -0.335332 0.441482
v -0.238291 -0.247654 0.246869
v -0.149139 -0.136244 0.242394
v -0.238291 -0.199284 0.179354
v -0.163145 0.106151 -0.433152
v -0.238291 0.016998 -0.342797
v -0.238291 0.030536 -0.424740
v -0.149138 0.106151 -0.342797
v -0.210566 0.106151 -0.531919
v -0.254079 0.059663 -0.515556
v -0.284867 0.106151 -0.624350
v -0.238291 0.016998 0.342797
v -0.163146 0.106151 0.433152
v -0.238291 0.030536 0.424740
v -0.149139 0.106151 0.342797
v -0.210566 0.106151 0.531919
v -0.254079 0.059663 0.515556
v -0.284867 0.106151 0.624350
v -0.210566 -0.269973 -0.376124
v -0.254079 -0.291274 -0.331682
v -0.284867 -0.335332 -0.441482
v -0.163145 -0.200134 -0.306285
v -0.238291 -0.247654 -0.246869
v -0.149138 -0.136244 -0.242394
v -0.238291 -0.199284 -0.179354
v -0.149138 0.348545 -0.242394
v -0.238291 0.353019 -0.353804
v -0.163145 0.412436 -0.306285
v -0.238291 0.285505 -0.305435
v -0.254079 0.437832 -0.397425
v -0.210566 0.482274 -0.376124
v -0.284867 0.547633 -0.441482
v -0.254079 0.437832 0.397425
v -0.210566 0.482274 0.376123
v -0.284867 0.547633 0.441482
v -0.163146 0.412436 0.306285
v -0.238291 0.353019 0.353804
v -0.149139 0.348545 0.242394
v -0.238291 0.285505 0.305434
v 0.148786 0.465244 -0.000000
v 0.147659 0.415731 -0.000000
v 0.199838 0.415731 0.052179
v 0.199838 0.470960 0.051371
v 0.159551 0.521542 -0.000000
v 0.189112 0.532658 0.031582
v 0.168196 0.606570 -0.000000
v 0.199838 0.415731 -0.052180
v 0.148786 0.465244 -0.000000
v 0.199838 0.470960 -0.051371
v 0.147659 0.415731 -0.000000
v 0.159551 0.521542 -0.000000
v 0.189112 0.532658 -0.031583
v 0.168196 0.606570 -0.000000
v -0.238291 -0.140718 0.353804
v -0.149139 -0.136244 0.242394
v -0.238291 -0.073203 0.305434
v -0.163146 -0.200134 0.306285
v -0.254079 -0.225531 0.397425
v -0.210566 -0.269973 0.376123
v -0.284867 -0.335332 0.441482
v -0.254079 -0.225531 -0.397425
v -0.210566 -0.269973 -0.376124
v -0.284867 -0.335332 -0.441482
v -0.163145 -0.200134 -0.306285
v -0.238291 -0.140718 -0.353804
v -0.149138 -0.136244 -0.242394
v -0.238291 -0.073203 -0.305435
v -0.163145 0.412436 -0.306285
v -0.254079 0.503575 -0.331682
v -0.238291 0.459955 -0.246869
v -0.210566 0.482274 -0.376124
v -0.284867 0.547633 -0.441482
v -0.149138 0.348545 -0.242394
v -0.238291 0.411585 -0.179354
v -0.238291 0.195303 -0.342797
v -0.163145 0.106151 -0.433152
v -0.238291 0.181765 -0.424740
v -0.149138 0.106151 -0.342797
v -0.210566 0.106151 -0.531919
v -0.254079 0.152638 -0.515556
v -0.284867 0.106151 -0.624350
v -0.149139 0.106151 0.342797
v -0.238291 0.195303 0.342797
v -0.163146 0.106151 0.433152
v -0.238291 0.181765 0.424740
v -0.210566 0.106151 0.531919
v -0.254079 0.152638 0.515556
v -0.284867 0.106151 0.624350
v -0.210566 0.482274 0.376123
v -0.254079 0.503576 0.331682
v -0.284867 0.547633 0.441482
v -0.163146 0.412436 0.306285
v -0.238291 0.459955 0.246869
v -0.149139 0.348545 0.242394
v -0.238291 0.411585 0.179354
v 0.214147 0.096061 0.054348
v 0.308197 0.096061 0.108695
v 0.251197 0.166061 0.032938
v 0.308197 0.166061 0.065876
v 0.251197 0.026061 0.032938
v 0.308197 0.026061 0.065876
v 0.308197 -0.303939 0.065876
v 0.251197 -0.303939 0.032938
v 0.308197 -0.361939 0.094861
v 0.226117 -0.361939 0.047431
v 0.262597 -0.425939 0.026350
v 0.308197 -0.425939 0.052701
v 0.226117 -0.361939 -0.047431
v 0.308197 -0.361939 -0.094861
v 0.262597 -0.425939 -0.026350
v 0.308197 -0.425939 -0.052701
v 0.251197 -0.303939 -0.032938
v 0.308197 -0.303939 -0.065876
v 0.308197 0.026061 -0.065876
v 0.251197 0.026061 -0.032938
v 0.308197 0.096061 -0.108695
v 0.214147 0.096061 -0.054348
v 0.251197 0.166061 -0.032938
v 0.308197 0.166061 -0.065876
v -0.893958 -0.228686 -0.112008
v -0.964357 -0.227221 -0.110546
v -0.896563 -0.254306 -0.111402
v -0.688423 -0.260968 -0.118136
v -0.963366 -0.252364 -0.110411
v -0.985887 -0.241544 -0.133456
v -0.690998 -0.293612 -0.116800
v -0.356263 -0.318281 -0.124867
v -0.358273 -0.389157 -0.122067
v -0.304395 -0.295597 -0.114289
v -0.249205 -0.337022 -0.097755
v -0.236319 -0.255690 -0.059830
v -0.291509 -0.241959 -0.089277
v -0.964357 -0.227221 0.110546
v -0.893958 -0.228686 0.112008
v -0.896563 -0.254306 0.111402
v -0.688423 -0.260968 0.118136
v -0.963366 -0.252364 0.110411
v -0.985887 -0.241544 0.133456
v -0.690998 -0.293612 0.116800
v -0.356263 -0.318281 0.124867
v -0.358273 -0.389157 0.122067
v -0.304395 -0.295597 0.114289
v -0.249205 -0.337022 0.097755
v -0.236319 -0.255690 0.059830
v -0.291509 -0.241959 0.089277
v -0.030162 0.224779 -0.194809
v 0.022018 0.276151 -0.139580
v -0.030162 0.223971 -0.139580
v 0.020890 0.276151 -0.200524
v -0.011326 0.276151 -0.267624
v -0.040888 0.244568 -0.256508
v -0.061804 0.276151 -0.330420
v -0.030162 0.223971 0.139580
v 0.022018 0.276151 0.139580
v -0.030162 0.224779 0.194809
v 0.020890 0.276151 0.200524
v -0.011326 0.276151 0.267624
v -0.040888 0.244568 0.256507
v -0.061804 0.276151 0.330420
v 0.378786 0.276151 -0.189094
v 0.429838 0.328330 -0.139580
v 0.429838 0.327522 -0.194809
v 0.377659 0.276151 -0.139580
v 0.389551 0.276151 -0.245391
v 0.419112 0.307733 -0.256508
v 0.398196 0.276151 -0.330420
v 0.429838 0.328330 0.139580
v 0.378786 0.276151 0.189094
v 0.429838 0.327522 0.194809
v 0.377659 0.276151 0.139580
v 0.389551 0.276151 0.245391
v 0.419112 0.307733 0.256507
v 0.398196 0.276151 0.330420
v -0.964779 -0.231141 -0.152238
v -0.890009 -0.218306 -0.133350
v -0.888691 -0.234005 -0.154221
v -0.965070 -0.216387 -0.131389
v -0.985887 -0.241544 -0.133456
v -0.688396 -0.247761 -0.145748
v -0.690998 -0.267783 -0.172191
v -0.356242 -0.289685 -0.184653
v -0.358273 -0.333232 -0.241998
v -0.304964 -0.267304 -0.174217
v -0.249205 -0.281097 -0.217686
v -0.292079 -0.213952 -0.149338
v -0.236319 -0.199765 -0.179761
v -0.890009 -0.218306 0.133350
v -0.965070 -0.216387 0.131389
v -0.964779 -0.231141 0.152238
v -0.985887 -0.241544 0.133456
v -0.888691 -0.234005 0.154221
v -0.688396 -0.247761 0.145748
v -0.690998 -0.267783 0.172191
v -0.356242 -0.289685 0.184653
v -0.358273 -0.333232 0.241998
v -0.304964 -0.267304 0.174217
v -0.249205 -0.281097 0.217686
v -0.292079 -0.213952 0.149338
v -0.236319 -0.199765 0.179761
v 0.659838 0.328330 -0.139580
v 0.659838 0.223971 -0.139580
v 0.712018 0.276151 -0.139580
v 0.607659 0.276151 -0.139580
v 0.429838 0.328330 -0.139580
v 0.429838 0.223971 -0.139580
v 0.482018 0.276151 -0.139580
v 0.377659 0.276151 -0.139580
v 0.199838 0.328330 -0.139580
v 0.199838 0.223971 -0.139580
v 0.252018 0.276151 -0.139580
v 0.147659 0.276151 -0.139580
v -0.030162 0.328330 -0.139580
v -0.030162 0.223971 -0.139580
v 0.022018 0.276151 -0.139580
v -0.082341 0.276151 -0.139580
v 0.659838 0.223971 0.139580
v 0.659838 0.328330 0.139580
v 0.712018 0.276151 0.139580
v 0.607658 0.276151 0.139580
v 0.377659 0.276151 0.139580
v 0.482017 0.276151 0.139580
v 0.429838 0.223971 0.139580
v 0.429838 0.328330 0.139580
v 0.199838 0.223971 0.139580
v 0.199838 0.328330 0.139580
v 0.252018 0.276151 0.139580
v 0.147659 0.276151 0.139580
v -0.030162 0.223971 0.139580
v -0.030162 0.328330 0.139580
v 0.022018 0.276151 0.139580
v -0.082341 0.276151 0.139580
v 0.148786 0.276151 -0.189094
v 0.199838 0.223971 -0.139580
v 0.147659 0.276151 -0.139580
v 0.199838 0.224779 -0.194809
v 0.159551 0.276151 -0.245391
v 0.189112 0.244568 -0.256508
v 0.168196 0.276151 -0.330420
v 0.147659 0.276151 0.139580
v 0.199838 0.223971 0.139580
v 0.148786 0.276151 0.189094
v 0.199838 0.224779 0.194809
v 0.159551 0.276151 0.245391
v 0.189112 0.244568 0.256507
v 0.168196 0.276151 0.330420
v 0.226117 -0.361939 -0.047431
v 0.251197 -0.303939 0.032938
v 0.251197 -0.303939 -0.032938
v 0.251197 0.026061 -0.032938
v 0.226117 -0.361939 0.047431
v 0.262597 -0.425939 0.026350
v 0.262597 -0.425939 -0.026350
v 0.251197 0.026061 0.032938
v 0.214147 0.096061 0.054348
v 0.214147 0.096061 -0.054348
v 0.251197 0.166061 0.032938
v 0.251197 0.166061 -0.032938
v 0.378786 0.465244 -0.000000
v 0.377659 0.415731 -0.000000
v 0.429838 0.415731 0.052179
v 0.429838 0.470960 0.051371
v 0.389551 0.521542 -0.000000
v 0.419112 0.532658 0.031582
v 0.398196 0.606570 -0.000000
v 0.429838 0.415731 -0.052180
v 0.378786 0.465244 -0.000000
v 0.429838 0.470960 -0.051371
v 0.377659 0.415731 -0.000000
v 0.389551 0.521542 -0.000000
v 0.419112 0.532658 -0.031583
v 0.398196 0.606570 -0.000000
v 0.608786 0.276151 -0.189094
v 0.659838 0.328330 -0.139580
v 0.659838 0.327522 -0.194809
v 0.607659 0.276151 -0.139580
v 0.619551 0.276151 -0.245391
v 0.649112 0.307733 -0.256508
v 0.628196 0.276151 -0.330420
v 0.659838 0.328330 0.139580
v 0.608786 0.276151 0.189094
v 0.659838 0.327522 0.194809
v 0.607658 0.276151 0.139580
v 0.619551 0.276151 0.245391
v 0.649112 0.307733 0.256507
v 0.628196 0.276151 0.330420
v 0.659838 0.415731 0.052179
v 0.659838 0.415731 -0.052180
v 0.712018 0.415731 -0.000000
v 0.607659 0.415731 -0.000000
v 0.429838 0.415731 0.052179
v 0.429838 0.415731 -0.052180
v 0.482018 0.415731 -0.000000
v 0.377659 0.415731 -0.000000
v 0.147659 0.415731 -0.000000
v 0.252018 0.415731 -0.000000
v 0.199838 0.415731 0.052179
v 0.199838 0.415731 -0.052180
v -0.082341 0.415731 -0.000000
v 0.022018 0.415731 -0.000000
v -0.030162 0.415731 0.052179
v -0.030162 0.415731 -0.052180
v 0.378786 0.276151 -0.189094
v 0.429838 0.223971 -0.139580
v 0.377659 0.276151 -0.139580
v 0.429838 0.224779 -0.194809
v 0.389551 0.276151 -0.245391
v 0.419112 0.244568 -0.256508
v 0.398196 0.276151 -0.330420
v 0.377659 0.276151 0.139580
v 0.429838 0.223971 0.139580
v 0.378786 0.276151 0.189094
v 0.429838 0.224779 0.194809
v 0.389551 0.276151 0.245391
v 0.419112 0.244568 0.256507
v 0.398196 0.276151 0.330420
v -0.238291 0.411585 -0.179354
v -0.238291 0.285505 -0.305435
v -0.149138 0.348545 -0.242394
v -0.327443 0.348545 -0.242394
v -0.238291 0.285505 0.305434
v -0.238291 0.411585 0.179354
v -0.149139 0.348545 0.242394
v -0.327443 0.348545 0.242394
v -0.327443 0.106151 -0.342797
v -0.149138 0.106151 -0.342797
v -0.238291 0.195303 -0.342797
v -0.238291 0.016998 -0.342797
v -0.327443 0.106151 0.342797
v -0.149139 0.106151 0.342797
v -0.238291 0.016998 0.342797
v -0.238291 0.195303 0.342797
v -0.238291 -0.199284 0.179354
v -0.238291 -0.073203 0.305434
v -0.149139 -0.136244 0.242394
v -0.327443 -0.136244 0.242394
v -0.238291 -0.199284 -0.179354
v -0.238291 -0.073203 -0.305435
v -0.327443 -0.136244 -0.242394
v -0.149138 -0.136244 -0.242394
v -0.965070 -0.216387 -0.131389
v -0.893958 -0.228686 -0.112008
v -0.890009 -0.218306 -0.133350
v -0.964357 -0.227221 -0.110546
v -0.985887 -0.241544 -0.133456
v -0.688423 -0.260968 -0.118136
v -0.688396 -0.247761 -0.145748
v -0.356263 -0.318281 -0.124867
v -0.356242 -0.289685 -0.184653
v -0.304964 -0.267304 -0.174217
v -0.304395 -0.295597 -0.114289
v -0.291509 -0.241959 -0.089277
v -0.292079 -0.213952 -0.149338
v -0.893958 -0.228686 0.112008
v -0.964357 -0.227221 0.110546
v -0.965070 -0.216387 0.131389
v -0.985887 -0.241544 0.133456
v -0.890009 -0.218306 0.133350
v -0.688423 -0.260968 0.118136
v -0.688396 -0.247761 0.145748
v -0.356263 -0.318281 0.124867
v -0.356242 -0.289685 0.184653
v -0.304964 -0.267304 0.174217
v -0.304395 -0.295597 0.114289
v -0.291509 -0.241959 0.089277
v -0.292079 -0.213952 0.149338
v 0.608786 0.465244 -0.000000
v 0.607659 0.415731 -0.000000
v 0.659838 0.415731 0.052179
v 0.659838 0.470960 0.051371
v 0.619551 0.521542 -0.000000
v 0.649112 0.532658 0.031582
v 0.628196 0.606570 -0.000000
v 0.659838 0.415731 -0.052180
v 0.608786 0.465244 -0.000000
v 0.659838 0.470960 -0.051371
v 0.607659 0.415731 -0.000000
v 0.619551 0.521542 -0.000000
v 0.649112 0.532658 -0.031583
v 0.628196 0.606570 -0.000000
v 0.608786 0.087057 -0.000000
v 0.659838 0.136570 -0.052180
v 0.659838 0.081342 -0.051371
v 0.607658 0.136570 -0.000000
v 0.619551 0.030760 -0.000000
v 0.649112 0.019643 -0.031583
v 0.628196 -0.054269 0.000000
v 0.608786 0.087057 -0.000000
v 0.659838 0.136570 0.052179
v 0.607658 0.136570 -0.000000
v 0.659838 0.081342 0.051371
v 0.619551 0.030760 -0.000000
v 0.649112 0.019643 0.031582
v 0.628196 -0.054269 0.000000
v 0.608786 0.276151 -0.189094
v 0.659838 0.223971 -0.139580
v 0.607659 0.276151 -0.139580
v 0.659838 0.224779 -0.194809
v 0.619551 0.276151 -0.245391
v 0.649112 0.244568 -0.256508
v 0.628196 0.276151 -0.330420
v 0.607658 0.276151 0.139580
v 0.659838 0.223971 0.139580
v 0.608786 0.276151 0.189094
v 0.659838 0.224779 0.194809
v 0.619551 0.276151 0.245391
v 0.649112 0.244568 0.256507
v 0.628196 0.276151 0.330420
vn 1.0000 -0.0000 -0.0000
vn 0.3019 -0.0001 0.9533
vn -0.0000 -0.0000 1.0000
vn 0.2666 -0.7030 0.6594
vn -0.0000 -0.7294 0.6841
vn -0.0000 0.7294 0.6841
vn 0.2310 -0.9729 -0.0000
vn -0.0000 -1.0000 -0.0000
vn 0.2666 0.7029 0.6594
vn -0.0000 1.0000 -0.0000
vn 0.2666 -0.7030 -0.6594
vn -0.0000 -0.7294 -0.6841
vn 0.3020 -0.0000 -0.9533
vn -0.0000 -0.0000 -1.0000
vn 0.2310 0.9730 -0.0000
vn -0.0000 0.7294 -0.6841
vn 0.2666 0.7030 -0.6594
vn 0.6900 0.7092 -0.1445
vn 0.7079 0.7062 -0.0120
vn 0.6830 0.7078 -0.1802
vn 0.7078 0.7063 -0.0118
vn 0.6001 0.6924 -0.4005
vn 0.6225 0.6932 -0.3633
vn 0.5650 0.6888 -0.4542
vn 0.7079 0.7062 0.0120
vn 0.6900 0.7092 0.1445
vn 0.6830 0.7078 0.1802
vn 0.7078 0.7063 0.0118
vn 0.6001 0.6924 0.4005
vn 0.6225 0.6932 0.3633
vn 0.5650 0.6888 0.4542
vn 0.6893 0.1485 -0.7091
vn 0.7079 0.0120 -0.7062
vn 0.7078 0.0118 -0.7063
vn 0.6820 0.1849 -0.7076
vn 0.5968 0.4059 -0.6922
vn 0.6219 0.3643 -0.6932
vn 0.5650 0.4542 -0.6888
vn 0.6820 0.1849 0.7076
vn 0.6893 0.1485 0.7091
vn 0.7079 0.0120 0.7062
vn 0.7078 0.0118 0.7063
vn 0.5968 0.4059 0.6922
vn 0.6219 0.3643 0.6932
vn 0.5650 0.4542 0.6888
vn 0.6893 -0.1485 -0.7091
vn 0.7078 -0.0118 -0.7063
vn 0.7079 -0.0120 -0.7062
vn 0.6820 -0.1849 -0.7076
vn 0.5968 -0.4059 -0.6922
vn 0.6219 -0.3643 -0.6932
vn 0.5651 -0.4542 -0.6888
vn 0.7079 -0.0120 0.7062
vn 0.6893 -0.1485 0.7091
vn 0.6820 -0.1849 0.7076
vn 0.7078 -0.0118 0.7063
vn 0.5968 -0.4059 0.6922
vn 0.6219 -0.3643 0.6932
vn 0.5650 -0.4542 0.6888
vn 0.7078 0.7064 0.0117
vn -0.2839 -0.8693 -0.4046
vn -0.1244 -0.8945 -0.4294
vn -0.2729 -0.8715 -0.4074
vn -0.1284 -0.8941 -0.4291
vn 0.0413 -0.9096 -0.4134
vn -0.2429 -0.8753 -0.4181
vn -0.1889 -0.8857 -0.4241
vn -0.6958 -0.6526 -0.3000
vn 0.0436 -0.9095 -0.4133
vn 0.7695 -0.5828 -0.2612
vn 0.7076 -0.6448 -0.2891
vn 0.9943 -0.1001 -0.0371
vn 0.9943 -0.1001 -0.0373
vn -0.2839 -0.8693 0.4046
vn -0.1244 -0.8945 0.4294
vn -0.1284 -0.8941 0.4291
vn -0.2429 -0.8754 0.4179
vn -0.1890 -0.8850 0.4256
vn -0.6958 -0.6526 0.3000
vn -0.2729 -0.8715 0.4074
vn 0.0413 -0.9096 0.4134
vn 0.0436 -0.9095 0.4133
vn 0.7695 -0.5831 0.2605
vn 0.7075 -0.6444 0.2901
vn 0.9943 -0.1001 0.0371
vn 0.9943 -0.1001 0.0373
vn 0.6900 -0.7092 -0.1445
vn 0.7079 -0.7062 -0.0120
vn 0.7078 -0.7063 -0.0118
vn 0.6830 -0.7078 -0.1802
vn 0.6001 -0.6924 -0.4005
vn 0.6225 -0.6932 -0.3633
vn 0.5651 -0.6888 -0.4542
vn 0.7078 -0.7063 0.0118
vn 0.7079 -0.7062 0.0120
vn 0.6900 -0.7092 0.1445
vn 0.6830 -0.7078 0.1802
vn 0.6001 -0.6924 0.4005
vn 0.6225 -0.6932 0.3633
vn 0.5651 -0.6888 0.4542
vn 0.8838 0.4678 -0.0000
vn 0.9626 -0.2710 -0.0000
vn 0.9750 0.2223 -0.0000
vn 0.9984 -0.0563 -0.0000
vn 0.8688 -0.4952 -0.0000
vn -0.7298 -0.5498 -0.4063
vn -0.7152 -0.5712 -0.4027
vn -0.7333 -0.5423 -0.4101
vn -0.7411 -0.5250 -0.4185
vn -0.7130 -0.5736 -0.4032
vn -0.7058 -0.5811 -0.4053
vn -0.7136 -0.6902 -0.1200
vn -0.7058 -0.6974 -0.1243
vn -0.7142 -0.6896 -0.1197
vn -0.7312 -0.6750 -0.0983
vn -0.7316 -0.6747 -0.0973
vn -0.7411 -0.6671 -0.0753
vn -0.7058 -0.6974 0.1243
vn -0.7136 -0.6902 0.1200
vn -0.7142 -0.6896 0.1197
vn -0.7312 -0.6750 0.0984
vn -0.7316 -0.6747 0.0973
vn -0.7411 -0.6672 0.0753
vn -0.7333 -0.5423 0.4101
vn -0.7298 -0.5498 0.4063
vn -0.7411 -0.5250 0.4185
vn -0.7152 -0.5712 0.4027
vn -0.7129 -0.5736 0.4033
vn -0.7058 -0.5811 0.4052
vn -0.7058 -0.5811 0.4053
vn -0.7318 -0.4085 -0.5455
vn -0.7129 -0.4033 -0.5737
vn -0.7153 -0.4027 -0.5711
vn -0.7058 -0.4053 -0.5811
vn -0.7315 -0.4082 -0.5462
vn -0.7411 -0.4185 -0.5250
vn -0.7318 -0.4086 0.5455
vn -0.7315 -0.4082 0.5462
vn -0.7411 -0.4185 0.5250
vn -0.7129 -0.4033 0.5737
vn -0.7153 -0.4027 0.5711
vn -0.7058 -0.4052 0.5811
vn -0.7058 -0.4053 0.5811
vn -0.7318 0.4084 0.5456
vn -0.7315 0.4082 0.5462
vn -0.7129 0.4033 0.5737
vn -0.7411 0.4185 0.5250
vn -0.7153 0.4027 0.5711
vn -0.7058 0.4052 0.5811
vn -0.7058 0.4053 0.5811
vn -0.7318 0.4084 -0.5456
vn -0.7315 0.4082 -0.5462
vn -0.7411 0.4185 -0.5250
vn -0.7129 0.4033 -0.5737
vn -0.7153 0.4027 -0.5711
vn -0.7058 0.4052 -0.5811
vn -0.7058 0.4053 -0.5811
vn -0.7152 0.5712 0.4027
vn -0.7298 0.5499 0.4063
vn -0.7130 0.5736 0.4032
vn -0.7058 0.5811 0.4052
vn -0.7058 0.5811 0.4053
vn -0.7333 0.5423 0.4101
vn -0.7411 0.5250 0.4185
vn -0.7333 0.5423 -0.4101
vn -0.7298 0.5499 -0.4063
vn -0.7411 0.5250 -0.4185
vn -0.7152 0.5712 -0.4027
vn -0.7129 0.5736 -0.4033
vn -0.7058 0.5811 -0.4052
vn -0.7058 0.5811 -0.4053
vn -0.7058 0.6974 -0.1243
vn -0.7136 0.6902 -0.1200
vn -0.7142 0.6896 -0.1197
vn -0.7312 0.6751 -0.0984
vn -0.7316 0.6747 -0.0973
vn -0.7411 0.6672 -0.0753
vn -0.7058 0.6974 0.1243
vn -0.7136 0.6902 0.1199
vn -0.7142 0.6896 0.1197
vn -0.7311 0.6751 0.0985
vn -0.7316 0.6747 0.0973
vn -0.7411 0.6672 0.0753
vn 0.7078 0.7064 -0.0117
vn 0.6002 0.6924 -0.4005
vn -0.1604 -0.7787 0.6066
vn -0.0863 -0.7929 0.6032
vn -0.1845 -0.7736 0.6062
vn -0.0183 -0.7909 0.6117
vn -0.0644 -0.7965 0.6012
vn 0.0323 -0.7921 0.6095
vn -0.1634 -0.7942 0.5853
vn -0.2234 -0.7856 0.5769
vn -0.7006 -0.5834 0.4108
vn 0.3925 -0.5964 0.7002
vn 0.3131 -0.7008 0.6409
vn 0.4939 -0.4215 0.7605
vn -0.1604 -0.7787 -0.6066
vn -0.0865 -0.7929 -0.6032
vn -0.0644 -0.7965 -0.6012
vn -0.1634 -0.7942 -0.5853
vn -0.2234 -0.7856 -0.5769
vn -0.7006 -0.5834 -0.4108
vn -0.1845 -0.7736 -0.6062
vn -0.0183 -0.7909 -0.6117
vn 0.0323 -0.7921 -0.6095
vn 0.3925 -0.5964 -0.7002
vn 0.3131 -0.7008 -0.6409
vn 0.4939 -0.4215 -0.7605
vn -0.7167 0.6948 -0.0602
vn -0.7086 0.7055 -0.0129
vn -0.7165 0.6951 -0.0591
vn -0.7085 0.7056 -0.0131
vn -0.7311 0.6751 -0.0985
vn -0.7086 0.7055 0.0129
vn -0.7167 0.6948 0.0602
vn -0.7165 0.6951 0.0591
vn -0.7085 0.7056 0.0131
vn 0.7078 -0.7064 -0.0117
vn 0.4899 0.2029 0.8478
vn 0.4807 -0.2773 0.8319
vn 0.4872 0.2275 0.8431
vn 0.4998 -0.0470 0.8649
vn 0.4854 -0.2428 0.8399
vn 0.4992 -0.0686 0.8638
vn 0.4346 -0.4954 0.7521
vn 0.5003 -0.0000 0.8658
vn 0.4421 0.4680 0.7651
vn 0.4422 0.4680 0.7651
vn 0.4854 -0.2428 -0.8399
vn 0.5003 -0.0000 -0.8658
vn 0.4421 0.4680 -0.7651
vn 0.4422 0.4680 -0.7651
vn 0.4807 -0.2773 -0.8319
vn 0.4872 0.2275 -0.8431
vn 0.4899 0.2029 -0.8478
vn 0.4998 -0.0470 -0.8649
vn 0.4992 -0.0686 -0.8638
vn 0.4346 -0.4954 -0.7521
vn -0.0658 -0.0293 -0.9974
vn -0.1573 -0.0267 -0.9872
vn -0.0521 -0.0272 -0.9983
vn -0.2034 -0.0280 -0.9787
vn -0.6541 -0.0368 -0.7555
vn -0.1334 -0.0354 -0.9904
vn -0.1735 -0.0371 -0.9841
vn 0.0367 -0.0515 -0.9980
vn -0.0205 -0.0488 -0.9986
vn 0.3100 0.0213 -0.9505
vn 0.4151 0.1705 -0.8937
vn 0.5022 0.3088 -0.8077
vn -0.1573 -0.0267 0.9872
vn -0.0658 -0.0293 0.9974
vn -0.0521 -0.0272 0.9983
vn -0.2034 -0.0280 0.9787
vn -0.6541 -0.0368 0.7555
vn -0.1334 -0.0354 0.9904
vn -0.1735 -0.0371 0.9841
vn 0.0367 -0.0515 0.9980
vn -0.0205 -0.0488 0.9986
vn 0.3100 0.0213 0.9505
vn 0.4151 0.1705 0.8937
vn 0.5022 0.3088 0.8077
vn -0.7164 0.0588 0.6952
vn -0.7085 0.0131 0.7056
vn -0.7171 0.0633 0.6941
vn -0.7304 0.1001 0.6756
vn -0.7332 0.0938 0.6736
vn -0.7411 0.0753 0.6672
vn -0.7085 0.0131 -0.7056
vn -0.7165 0.0588 -0.6951
vn -0.7171 0.0633 -0.6941
vn -0.7304 0.1001 -0.6756
vn -0.7332 0.0938 -0.6735
vn -0.7411 0.0754 -0.6671
vn -0.7165 -0.0588 -0.6951
vn -0.7085 -0.0131 -0.7056
vn -0.7171 -0.0633 -0.6941
vn -0.7304 -0.1001 -0.6756
vn -0.7332 -0.0938 -0.6736
vn -0.7411 -0.0753 -0.6671
vn -0.7165 -0.0588 0.6951
vn -0.7088 -0.0125 0.7053
vn -0.7085 -0.0131 0.7056
vn -0.7171 -0.0633 0.6941
vn -0.7304 -0.1001 0.6756
vn -0.7332 -0.0938 0.6735
vn -0.7411 -0.0753 0.6672
vn -0.7164 0.6951 0.0591
vn -0.7167 -0.6948 -0.0602
vn -0.7086 -0.7055 -0.0128
vn -0.7085 -0.7056 -0.0131
vn -0.7165 -0.6951 -0.0591
vn -0.7312 -0.6750 -0.0984
vn -0.7085 -0.7056 0.0131
vn -0.7086 -0.7055 0.0128
vn -0.7167 -0.6948 0.0602
vn -0.7165 -0.6951 0.0591
vn -0.7311 -0.6751 0.0984
vn -0.7411 -0.6671 0.0753
vn 0.6172 -0.7534 -0.2269
vn 0.6786 -0.6476 -0.3466
vn 0.6033 -0.7693 -0.2102
vn 0.5650 -0.8082 -0.1659
vn 0.6784 -0.6481 -0.3460
vn 0.7008 -0.5776 -0.4187
vn 0.6754 -0.7023 -0.2249
vn 0.7008 -0.7045 -0.1123
vn 0.6827 -0.7038 -0.1964
vn 0.7008 -0.7045 0.1123
vn 0.6754 -0.7023 0.2249
vn 0.6827 -0.7038 0.1964
vn 0.6033 -0.7693 0.2102
vn 0.6172 -0.7534 0.2269
vn 0.5650 -0.8082 0.1659
vn 0.6786 -0.6476 0.3466
vn 0.6784 -0.6481 0.3460
vn 0.7008 -0.5776 0.4187
vn 0.7007 -0.4189 -0.5775
vn 0.6853 -0.3665 -0.6293
vn 0.6714 -0.3265 -0.6653
vn 0.7008 -0.4187 -0.5776
vn 0.6259 -0.2375 -0.7429
vn 0.5941 -0.1992 -0.7794
vn 0.5650 -0.1659 -0.8082
vn 0.6259 -0.2375 0.7429
vn 0.5941 -0.1992 0.7794
vn 0.5651 -0.1659 0.8082
vn 0.6714 -0.3265 0.6653
vn 0.6853 -0.3665 0.6293
vn 0.7008 -0.4188 0.5776
vn 0.7008 -0.4187 0.5776
vn -0.7165 0.0588 0.6951
vn -0.7086 0.0128 0.7055
vn -0.7332 0.0938 0.6735
vn -0.7086 0.0129 -0.7055
vn -0.7305 0.1000 -0.6756
vn 0.6853 0.3665 0.6293
vn 0.7007 0.4188 0.5775
vn 0.7008 0.4187 0.5776
vn 0.6714 0.3265 0.6653
vn 0.6259 0.2375 0.7429
vn 0.5941 0.1992 0.7794
vn 0.5651 0.1659 0.8082
vn 0.6259 0.2375 -0.7429
vn 0.5941 0.1992 -0.7794
vn 0.5650 0.1659 -0.8082
vn 0.6714 0.3265 -0.6653
vn 0.6853 0.3665 -0.6293
vn 0.7008 0.4188 -0.5776
vn 0.7008 0.4187 -0.5776
vn 0.6786 0.6476 0.3466
vn 0.6172 0.7534 0.2269
vn 0.6784 0.6481 0.3460
vn 0.6033 0.7693 0.2102
vn 0.5650 0.8082 0.1659
vn 0.7008 0.5776 0.4187
vn 0.7007 0.7045 -0.1124
vn 0.6754 0.7023 -0.2249
vn 0.6827 0.7038 -0.1964
vn 0.7008 0.7045 -0.1123
vn 0.7008 0.7045 0.1123
vn 0.6754 0.7023 0.2249
vn 0.6827 0.7038 0.1964
vn 0.6002 0.6924 0.4005
vn 0.6033 0.7693 -0.2102
vn 0.6172 0.7534 -0.2269
vn 0.5651 0.8082 -0.1659
vn 0.6786 0.6476 -0.3466
vn 0.6784 0.6481 -0.3460
vn 0.7007 0.5775 -0.4189
vn 0.7008 0.5776 -0.4187
vn -0.5003 -0.0000 0.8658
vn -0.4421 0.4680 0.7651
vn -0.4854 -0.2428 0.8399
vn -0.4807 -0.2773 0.8319
vn -0.4872 0.2275 0.8431
vn -0.4899 0.2029 0.8478
vn -0.4998 -0.0470 0.8649
vn -0.4992 -0.0686 0.8638
vn -0.4346 -0.4954 0.7521
vn -0.4992 -0.0686 -0.8638
vn -0.4998 -0.0470 -0.8649
vn -0.4346 -0.4954 -0.7521
vn -0.4899 0.2029 -0.8478
vn -0.4872 0.2275 -0.8431
vn -0.4807 -0.2773 -0.8319
vn -0.4854 -0.2428 -0.8399
vn -0.5003 -0.0000 -0.8658
vn -0.4421 0.4680 -0.7651
vn 0.0245 0.0207 0.9995
vn -0.1679 0.0051 0.9858
vn 0.0270 0.0235 0.9994
vn 0.0311 0.0333 0.9990
vn -0.1673 0.0051 0.9859
vn -0.7207 -0.0247 0.6928
vn 0.0289 0.0361 0.9989
vn -0.1074 0.0475 0.9931
vn -0.0801 0.0458 0.9957
vn -0.3988 -0.1585 0.9032
vn -0.2969 -0.0214 0.9547
vn -0.4881 -0.2906 0.8230
vn -0.1679 0.0051 -0.9858
vn 0.0244 0.0207 -0.9995
vn 0.0270 0.0235 -0.9994
vn 0.0311 0.0333 -0.9990
vn -0.1673 0.0051 -0.9859
vn -0.7207 -0.0247 -0.6928
vn 0.0289 0.0361 -0.9989
vn -0.1074 0.0475 -0.9931
vn -0.0801 0.0458 -0.9957
vn -0.3988 -0.1585 -0.9032
vn -0.2969 -0.0214 -0.9547
vn -0.4881 -0.2906 -0.8230
vn 0.7078 -0.7063 -0.0117
vn -0.7166 0.6950 -0.0590
vn -0.7312 0.6751 0.0984
vn -0.1820 0.7949 -0.5788
vn 0.0378 0.8031 -0.5947
vn 0.0513 0.8004 -0.5972
vn -0.1363 0.8007 -0.5833
vn -0.6774 0.5960 -0.4312
vn 0.0613 0.7951 -0.6034
vn 0.0459 0.7954 -0.6043
vn -0.1058 0.7969 -0.5948
vn -0.0767 0.7978 -0.5980
vn -0.3886 0.6162 -0.6851
vn -0.3110 0.7117 -0.6299
vn -0.4964 0.4429 -0.7466
vn -0.4963 0.4431 -0.7466
vn 0.0378 0.8031 0.5947
vn -0.1363 0.8007 0.5833
vn -0.1820 0.7948 0.5789
vn -0.6774 0.5960 0.4312
vn 0.0513 0.8004 0.5972
vn 0.0613 0.7951 0.6034
vn 0.0459 0.7954 0.6043
vn -0.1058 0.7969 0.5948
vn -0.0767 0.7978 0.5980
vn -0.3886 0.6162 0.6851
vn -0.3110 0.7117 0.6299
vn -0.4964 0.4429 0.7466
vn -0.4963 0.4431 0.7466
vn -0.7085 -0.7055 -0.0130
vn -0.7166 -0.6950 -0.0591
vn -0.7311 -0.6751 -0.0985
vn -0.7085 -0.7055 0.0130
vn -0.7166 -0.6950 0.0591
vn -0.7311 -0.6751 0.0986
vn -0.9984 -0.0563 -0.0000
vn -0.9750 0.2223 -0.0000
vn -0.9626 -0.2710 -0.0000
vn -0.8688 -0.4952 -0.0000
vn -1.0000 -0.0000 -0.0000
vn -0.8838 0.4678 -0.0000
vn -0.7086 0.0129 0.7055
vn -0.7171 0.0633 0.6940
vn -0.7171 0.0633 -0.6940
vn -0.7088 0.7053 0.0125
vn -0.7165 0.6950 0.0591
vn -0.7312 0.6750 0.0983
vn -0.7088 -0.7053 -0.0125
vn -0.7088 -0.7053 0.0125
vn -0.0000 -0.7071 0.7071
vn -0.0000 -0.7071 -0.7071
vn -0.0000 0.7071 -0.7071
vn -0.0000 0.7071 0.7071
vn -0.1497 0.8791 0.4525
vn 0.0912 0.8904 0.4460
vn 0.0908 0.8904 0.4460
vn -0.1718 0.8755 0.4516
vn -0.7405 0.5856 0.3297
vn 0.1587 0.8880 0.4316
vn 0.1581 0.8876 0.4326
vn -0.0897 0.8987 0.4293
vn -0.1014 0.8975 0.4291
vn -0.7169 0.6278 0.3032
vn -0.6533 0.6825 0.3277
vn -0.9770 0.1895 0.0982
vn -0.9769 0.1896 0.0982
vn 0.0912 0.8904 -0.4460
vn -0.1718 0.8755 -0.4516
vn -0.1497 0.8791 -0.4525
vn -0.7405 0.5856 -0.3297
vn 0.0908 0.8904 -0.4460
vn 0.1587 0.8880 -0.4316
vn 0.1581 0.8876 -0.4326
vn -0.0897 0.8985 -0.4296
vn -0.1014 0.8976 -0.4290
vn -0.7169 0.6279 -0.3028
vn -0.6533 0.6822 -0.3284
vn -0.9770 0.1895 -0.0982
vn -0.9769 0.1898 -0.0981
vn -0.7165 -0.0588 -0.6952
vn -0.7088 -0.0125 -0.7053
vn -0.7332 -0.0938 -0.6735
vn -0.7165 -0.0588 0.6952
vn -0.7086 -0.0129 0.7055
vn -0.7086 -0.7055 -0.0129
vn -0.7312 -0.6751 0.0983
vt 0.000000 0.000000
s 1
f 1/1/1 2/1/1 3/1/1
f 4/1/1 3/1/1 2/1/1
f 2/1/1 1/1/1 5/1/1
f 2/1/1 6/1/1 4/1/1
f 1/1/1 7/1/1 5/1/1
f 8/1/1 4/1/1 6/1/1
f 1/1/1 9/1/1 7/1/1
f 4/1/1 8/1/1 10/1/1
f 11/1/1 7/1/1 9/1/1
f 12/1/1 10/1/1 8/1/1
f 7/1/1 11/1/1 13/1/1
f 10/1/1 12/1/1 14/1/1
f 11/1/1 15/1/1 13/1/1
f 16/1/1 14/1/1 12/1/1
f 15/1/1 11/1/1 16/1/1
f 16/1/1 12/1/1 15/1/1
f 17/1/2 18/1/3 19/1/4
f 18/1/3 20/1/5 19/1/4
f 21/1/6 18/1/3 17/1/2
f 19/1/4 20/1/5 22/1/7
f 20/1/5 23/1/8 22/1/7
f 24/1/9 21/1/6 17/1/2
f 24/1/9 25/1/10 21/1/6
f 22/1/7 23/1/8 26/1/11
f 26/1/11 19/1/4 22/1/7
f 23/1/8 27/1/12 26/1/11
f 19/1/4 26/1/11 28/1/13
f 26/1/11 27/1/12 28/1/13
f 28/1/13 17/1/2 19/1/4
f 27/1/12 29/1/14 28/1/13
f 17/1/2 30/1/15 24/1/9
f 25/1/10 24/1/9 30/1/15
f 17/1/2 28/1/13 30/1/15
f 30/1/15 31/1/16 25/1/10
f 28/1/13 29/1/14 32/1/17
f 30/1/15 28/1/13 32/1/17
f 29/1/14 31/1/16 32/1/17
f 31/1/16 30/1/15 32/1/17
f 33/1/18 34/1/19 35/1/20
f 34/1/19 33/1/18 36/1/21
f 33/1/18 35/1/20 37/1/22
f 38/1/23 33/1/18 37/1/22
f 38/1/23 37/1/22 39/1/24
f 40/1/25 41/1/26 42/1/27
f 41/1/26 40/1/25 43/1/28
f 41/1/26 44/1/29 42/1/27
f 44/1/29 41/1/26 45/1/30
f 44/1/29 45/1/30 46/1/31
f 47/1/8 48/1/8 49/1/8
f 48/1/8 47/1/8 50/1/8
f 49/1/8 48/1/8 51/1/8
f 49/1/8 51/1/8 52/1/8
f 53/1/32 54/1/33 55/1/34
f 54/1/33 53/1/32 56/1/35
f 53/1/32 57/1/36 56/1/35
f 57/1/36 53/1/32 58/1/37
f 57/1/36 58/1/37 59/1/38
f 60/1/39 61/1/40 62/1/41
f 62/1/41 61/1/40 63/1/42
f 64/1/43 61/1/40 60/1/39
f 61/1/40 64/1/43 65/1/44
f 65/1/44 64/1/43 66/1/45
f 67/1/46 68/1/47 69/1/48
f 67/1/46 69/1/48 70/1/49
f 71/1/50 67/1/46 70/1/49
f 67/1/46 71/1/50 72/1/51
f 72/1/51 71/1/50 73/1/52
f 74/1/53 75/1/54 76/1/55
f 75/1/54 74/1/53 77/1/56
f 75/1/54 78/1/57 76/1/55
f 78/1/57 75/1/54 79/1/58
f 78/1/57 79/1/58 80/1/59
f 81/1/18 82/1/19 83/1/20
f 82/1/19 81/1/18 84/1/21
f 81/1/18 83/1/20 85/1/22
f 86/1/23 81/1/18 85/1/22
f 86/1/23 85/1/22 87/1/24
f 88/1/60 89/1/26 90/1/27
f 89/1/26 88/1/60 91/1/28
f 89/1/26 92/1/29 90/1/27
f 92/1/29 89/1/26 93/1/30
f 92/1/29 93/1/30 94/1/31
f 95/1/61 96/1/62 97/1/63
f 96/1/62 95/1/61 98/1/64
f 97/1/63 99/1/65 95/1/61
f 98/1/64 100/1/66 96/1/62
f 100/1/66 98/1/64 101/1/67
f 100/1/66 101/1/67 102/1/68
f 99/1/65 97/1/63 103/1/69
f 104/1/70 99/1/65 103/1/69
f 99/1/65 104/1/70 105/1/71
f 106/1/72 105/1/71 104/1/70
f 106/1/72 107/1/73 105/1/71
f 108/1/74 109/1/75 110/1/76
f 111/1/77 110/1/76 109/1/75
f 110/1/76 111/1/77 112/1/78
f 111/1/77 113/1/79 112/1/78
f 109/1/75 108/1/74 114/1/80
f 115/1/81 114/1/80 108/1/74
f 114/1/80 115/1/81 116/1/82
f 115/1/81 117/1/83 116/1/82
f 115/1/81 118/1/84 117/1/83
f 117/1/83 118/1/84 119/1/85
f 118/1/84 120/1/86 119/1/85
f 121/1/87 122/1/88 123/1/89
f 122/1/88 121/1/87 124/1/90
f 121/1/87 125/1/91 124/1/90
f 125/1/91 121/1/87 126/1/92
f 125/1/91 126/1/92 127/1/93
f 128/1/94 129/1/95 130/1/96
f 129/1/95 131/1/97 130/1/96
f 132/1/98 130/1/96 131/1/97
f 130/1/96 132/1/98 133/1/99
f 133/1/99 132/1/98 134/1/100
f 135/1/32 136/1/33 137/1/34
f 136/1/33 135/1/32 138/1/35
f 135/1/32 139/1/36 138/1/35
f 139/1/36 135/1/32 140/1/37
f 139/1/36 140/1/37 141/1/38
f 142/1/39 143/1/40 144/1/41
f 144/1/41 143/1/40 145/1/42
f 146/1/43 143/1/40 142/1/39
f 143/1/40 146/1/43 147/1/44
f 147/1/44 146/1/43 148/1/45
f 149/1/101 150/1/1 151/1/1
f 150/1/1 149/1/101 152/1/101
f 153/1/102 151/1/1 150/1/1
f 151/1/1 153/1/102 154/1/102
f 155/1/103 154/1/102 153/1/102
f 155/1/103 153/1/102 156/1/103
f 157/1/104 155/1/103 156/1/103
f 155/1/103 157/1/104 158/1/104
f 159/1/105 158/1/104 157/1/104
f 159/1/105 157/1/104 160/1/105
f 161/1/106 162/1/107 163/1/108
f 161/1/106 163/1/108 164/1/109
f 162/1/107 161/1/106 165/1/110
f 166/1/111 162/1/107 165/1/110
f 162/1/107 166/1/111 167/1/111
f 168/1/112 169/1/113 170/1/114
f 169/1/113 168/1/112 171/1/113
f 172/1/115 168/1/112 170/1/114
f 168/1/112 172/1/115 173/1/116
f 173/1/116 172/1/115 174/1/117
f 175/1/118 176/1/119 177/1/120
f 176/1/119 175/1/118 178/1/118
f 176/1/119 179/1/121 177/1/120
f 179/1/121 176/1/119 180/1/122
f 179/1/121 180/1/122 181/1/123
f 182/1/124 183/1/125 184/1/126
f 182/1/124 185/1/127 183/1/125
f 186/1/128 183/1/125 185/1/127
f 187/1/129 186/1/128 185/1/127
f 185/1/127 188/1/130 187/1/129
f 189/1/131 190/1/132 191/1/133
f 192/1/134 191/1/133 190/1/132
f 193/1/134 192/1/134 190/1/132
f 190/1/132 189/1/131 194/1/135
f 194/1/135 189/1/131 195/1/136
f 196/1/137 197/1/138 198/1/139
f 196/1/137 199/1/140 197/1/138
f 199/1/140 196/1/137 200/1/141
f 201/1/142 199/1/140 200/1/141
f 199/1/140 201/1/142 202/1/143
f 203/1/144 204/1/145 205/1/146
f 204/1/145 203/1/144 206/1/147
f 205/1/146 207/1/148 203/1/144
f 205/1/146 208/1/149 207/1/148
f 208/1/149 205/1/146 209/1/150
f 210/1/151 211/1/152 212/1/153
f 210/1/151 213/1/154 211/1/152
f 213/1/154 210/1/151 214/1/155
f 215/1/156 213/1/154 214/1/155
f 213/1/154 215/1/156 216/1/157
f 217/1/158 218/1/159 219/1/160
f 220/1/161 217/1/158 219/1/160
f 217/1/158 220/1/161 221/1/162
f 218/1/159 217/1/158 222/1/163
f 218/1/159 222/1/163 223/1/164
f 224/1/165 225/1/166 226/1/167
f 227/1/168 225/1/166 224/1/165
f 225/1/166 227/1/168 228/1/169
f 227/1/168 229/1/170 228/1/169
f 229/1/170 227/1/168 230/1/171
f 231/1/172 232/1/173 233/1/174
f 232/1/173 231/1/172 234/1/172
f 232/1/173 235/1/175 233/1/174
f 235/1/175 232/1/173 236/1/176
f 235/1/175 236/1/176 237/1/177
f 238/1/178 239/1/178 240/1/179
f 239/1/178 241/1/180 240/1/179
f 241/1/180 242/1/181 240/1/179
f 240/1/179 242/1/181 243/1/182
f 243/1/182 242/1/181 244/1/183
f 245/1/18 246/1/19 247/1/20
f 246/1/19 245/1/18 248/1/184
f 245/1/18 247/1/20 249/1/185
f 250/1/23 245/1/18 249/1/185
f 250/1/23 249/1/185 251/1/24
f 252/1/25 253/1/26 254/1/27
f 253/1/26 252/1/25 255/1/28
f 253/1/26 256/1/29 254/1/27
f 256/1/29 253/1/26 257/1/30
f 256/1/29 257/1/30 258/1/31
f 259/1/186 260/1/187 261/1/188
f 261/1/188 262/1/189 259/1/186
f 260/1/187 259/1/186 263/1/190
f 264/1/191 259/1/186 262/1/189
f 263/1/190 265/1/192 260/1/187
f 265/1/192 263/1/190 266/1/193
f 265/1/192 266/1/193 267/1/194
f 262/1/189 268/1/195 264/1/191
f 268/1/195 262/1/189 269/1/196
f 269/1/196 270/1/197 268/1/195
f 270/1/197 269/1/196 271/1/197
f 272/1/198 273/1/199 274/1/200
f 275/1/201 274/1/200 273/1/199
f 274/1/200 275/1/201 276/1/202
f 275/1/201 277/1/203 276/1/202
f 273/1/199 272/1/198 278/1/204
f 272/1/198 279/1/205 278/1/204
f 272/1/198 280/1/206 279/1/205
f 281/1/207 279/1/205 280/1/206
f 279/1/205 281/1/207 282/1/208
f 283/1/209 282/1/208 281/1/207
f 282/1/208 283/1/209 284/1/209
f 285/1/210 286/1/211 287/1/212
f 286/1/211 285/1/210 288/1/213
f 287/1/212 289/1/214 285/1/210
f 289/1/214 287/1/212 290/1/176
f 289/1/214 290/1/176 291/1/177
f 292/1/215 293/1/216 294/1/217
f 293/1/216 292/1/215 295/1/218
f 293/1/216 296/1/181 294/1/217
f 294/1/217 296/1/181 297/1/182
f 297/1/182 296/1/181 298/1/183
f 299/1/87 300/1/219 301/1/89
f 300/1/219 299/1/87 302/1/90
f 299/1/87 303/1/91 302/1/90
f 303/1/91 299/1/87 304/1/92
f 303/1/91 304/1/92 305/1/93
f 306/1/94 307/1/95 308/1/96
f 307/1/95 309/1/97 308/1/96
f 310/1/98 308/1/96 309/1/97
f 308/1/96 310/1/98 311/1/99
f 311/1/99 310/1/98 312/1/100
f 313/1/32 314/1/33 315/1/34
f 314/1/33 313/1/32 316/1/35
f 313/1/32 317/1/36 316/1/35
f 317/1/36 313/1/32 318/1/37
f 317/1/36 318/1/37 319/1/38
f 320/1/39 321/1/40 322/1/41
f 322/1/41 321/1/40 323/1/42
f 324/1/43 321/1/40 320/1/39
f 321/1/40 324/1/43 325/1/44
f 325/1/44 324/1/43 326/1/45
f 327/1/220 328/1/221 329/1/222
f 330/1/223 327/1/220 329/1/222
f 328/1/221 327/1/220 331/1/224
f 327/1/220 330/1/223 332/1/225
f 330/1/223 333/1/226 332/1/225
f 333/1/226 330/1/223 334/1/226
f 331/1/224 335/1/227 328/1/221
f 335/1/227 331/1/224 336/1/227
f 337/1/228 335/1/227 336/1/227
f 335/1/227 337/1/228 338/1/229
f 339/1/230 340/1/231 341/1/231
f 342/1/232 341/1/231 340/1/231
f 343/1/233 342/1/232 340/1/231
f 340/1/231 339/1/230 344/1/234
f 345/1/235 344/1/234 339/1/230
f 339/1/230 346/1/236 345/1/235
f 345/1/235 346/1/236 347/1/237
f 346/1/236 348/1/238 347/1/237
f 349/1/239 347/1/237 348/1/238
f 347/1/237 349/1/239 350/1/239
f 351/1/240 352/1/241 353/1/242
f 354/1/243 353/1/242 352/1/241
f 354/1/243 352/1/241 355/1/244
f 353/1/242 356/1/245 351/1/240
f 357/1/246 351/1/240 356/1/245
f 356/1/245 358/1/247 357/1/246
f 359/1/248 357/1/246 358/1/247
f 358/1/247 360/1/249 359/1/248
f 360/1/249 358/1/247 361/1/250
f 361/1/250 362/1/251 360/1/249
f 362/1/251 361/1/250 363/1/251
f 364/1/252 365/1/253 366/1/254
f 364/1/252 366/1/254 367/1/255
f 367/1/255 368/1/256 364/1/252
f 365/1/253 369/1/257 366/1/254
f 365/1/253 370/1/258 369/1/257
f 370/1/258 371/1/259 369/1/257
f 370/1/258 372/1/260 371/1/259
f 373/1/261 371/1/259 372/1/260
f 371/1/259 373/1/261 374/1/262
f 375/1/263 374/1/262 373/1/261
f 374/1/262 375/1/263 376/1/263
f 377/1/18 378/1/19 379/1/20
f 378/1/19 377/1/18 380/1/21
f 377/1/18 379/1/20 381/1/185
f 382/1/23 377/1/18 381/1/185
f 382/1/23 381/1/185 383/1/24
f 384/1/25 385/1/26 386/1/27
f 385/1/26 384/1/25 387/1/28
f 385/1/26 388/1/29 386/1/27
f 388/1/29 385/1/26 389/1/30
f 388/1/29 389/1/30 390/1/31
f 391/1/264 392/1/265 393/1/265
f 391/1/264 393/1/265 394/1/266
f 394/1/266 395/1/267 391/1/264
f 395/1/267 394/1/266 396/1/268
f 395/1/267 396/1/268 397/1/269
f 398/1/270 399/1/271 400/1/272
f 399/1/271 398/1/270 401/1/270
f 400/1/272 399/1/271 402/1/273
f 403/1/274 400/1/272 402/1/273
f 403/1/274 402/1/273 404/1/275
f 405/1/276 406/1/277 407/1/278
f 406/1/277 405/1/276 408/1/277
f 407/1/278 409/1/279 405/1/276
f 409/1/279 407/1/278 410/1/280
f 409/1/279 410/1/280 411/1/281
f 412/1/282 413/1/283 414/1/284
f 413/1/283 412/1/282 415/1/285
f 416/1/286 415/1/285 412/1/282
f 415/1/285 416/1/286 417/1/287
f 417/1/287 416/1/286 418/1/288
f 419/1/210 420/1/211 421/1/212
f 420/1/211 419/1/210 422/1/213
f 421/1/212 423/1/214 419/1/210
f 423/1/214 421/1/212 424/1/176
f 423/1/214 424/1/176 425/1/177
f 426/1/215 427/1/216 428/1/289
f 427/1/216 426/1/215 429/1/218
f 427/1/216 430/1/181 428/1/289
f 428/1/289 430/1/181 431/1/182
f 431/1/182 430/1/181 432/1/183
f 433/1/10 434/1/10 435/1/10
f 434/1/10 433/1/10 436/1/10
f 437/1/10 436/1/10 433/1/10
f 436/1/10 437/1/10 438/1/10
f 439/1/87 440/1/88 441/1/89
f 440/1/88 439/1/87 442/1/90
f 439/1/87 443/1/91 442/1/90
f 443/1/91 439/1/87 444/1/92
f 443/1/91 444/1/92 445/1/93
f 446/1/94 447/1/95 448/1/96
f 447/1/95 449/1/97 448/1/96
f 450/1/98 448/1/96 449/1/97
f 448/1/96 450/1/98 451/1/99
f 451/1/99 450/1/98 452/1/100
f 453/1/32 454/1/33 455/1/34
f 454/1/33 453/1/32 456/1/35
f 453/1/32 457/1/36 456/1/35
f 457/1/36 453/1/32 458/1/37
f 457/1/36 458/1/37 459/1/38
f 460/1/39 461/1/40 462/1/41
f 462/1/41 461/1/40 463/1/42
f 464/1/43 461/1/40 460/1/39
f 461/1/40 464/1/43 465/1/44
f 465/1/44 464/1/43 466/1/45
f 467/1/10 468/1/10 469/1/10
f 468/1/10 467/1/10 470/1/10
f 471/1/10 472/1/10 473/1/10
f 473/1/10 474/1/10 471/1/10
f 475/1/290 476/1/291 477/1/292
f 476/1/291 475/1/290 478/1/293
f 479/1/294 478/1/293 475/1/290
f 478/1/293 479/1/294 480/1/116
f 480/1/116 479/1/294 481/1/117
f 482/1/295 483/1/296 484/1/297
f 483/1/296 485/1/298 484/1/297
f 485/1/298 486/1/299 484/1/297
f 486/1/299 485/1/298 487/1/122
f 486/1/299 487/1/122 488/1/300
f 489/1/5 490/1/5 491/1/3
f 492/1/8 490/1/5 489/1/5
f 489/1/5 491/1/3 493/1/3
f 492/1/8 494/1/8 490/1/5
f 493/1/3 491/1/3 495/1/6
f 496/1/12 494/1/8 492/1/8
f 493/1/3 495/1/6 497/1/6
f 496/1/12 498/1/12 494/1/8
f 499/1/10 497/1/6 495/1/6
f 500/1/14 498/1/12 496/1/12
f 497/1/6 499/1/10 501/1/10
f 500/1/14 502/1/14 498/1/12
f 503/1/16 501/1/10 499/1/10
f 504/1/16 502/1/14 500/1/14
f 501/1/10 503/1/16 504/1/16
f 504/1/16 503/1/16 502/1/14
f 505/1/53 506/1/54 507/1/55
f 506/1/54 505/1/53 508/1/56
f 506/1/54 509/1/57 507/1/55
f 509/1/57 506/1/54 510/1/58
f 509/1/57 510/1/58 511/1/59
f 512/1/46 513/1/47 514/1/48
f 512/1/46 514/1/48 515/1/49
f 516/1/50 512/1/46 515/1/49
f 512/1/46 516/1/50 517/1/51
f 517/1/51 516/1/50 518/1/52
f 519/1/301 520/1/302 521/1/303
f 519/1/301 521/1/303 522/1/304
f 520/1/302 519/1/301 523/1/305
f 523/1/305 524/1/306 520/1/302
f 524/1/306 523/1/305 525/1/306
f 526/1/307 527/1/308 528/1/309
f 527/1/308 526/1/307 529/1/308
f 528/1/309 530/1/91 526/1/307
f 530/1/91 528/1/309 531/1/92
f 530/1/91 531/1/92 532/1/93
f 533/1/310 534/1/311 535/1/312
f 534/1/311 533/1/310 536/1/310
f 537/1/98 535/1/312 534/1/311
f 535/1/312 537/1/98 538/1/99
f 538/1/99 537/1/98 539/1/100
f 540/1/313 541/1/314 542/1/315
f 543/1/316 541/1/314 540/1/313
f 541/1/314 543/1/316 544/1/317
f 545/1/318 544/1/317 543/1/316
f 544/1/317 545/1/318 546/1/318
f 547/1/319 548/1/320 549/1/321
f 548/1/320 547/1/319 550/1/322
f 551/1/323 549/1/321 548/1/320
f 549/1/321 551/1/323 552/1/324
f 552/1/324 551/1/323 553/1/325
f 554/1/326 555/1/327 556/1/328
f 554/1/326 557/1/329 555/1/327
f 557/1/329 554/1/326 558/1/330
f 558/1/330 559/1/331 557/1/329
f 559/1/331 558/1/330 560/1/332
f 561/1/333 562/1/265 563/1/334
f 561/1/333 563/1/334 564/1/266
f 564/1/266 565/1/267 561/1/333
f 565/1/267 564/1/266 566/1/335
f 565/1/267 566/1/335 567/1/269
f 568/1/336 569/1/271 570/1/272
f 569/1/271 568/1/336 571/1/270
f 570/1/272 569/1/271 572/1/337
f 573/1/274 570/1/272 572/1/337
f 573/1/274 572/1/337 574/1/275
f 575/1/338 576/1/339 577/1/340
f 576/1/339 575/1/338 578/1/341
f 579/1/342 578/1/341 575/1/338
f 578/1/341 579/1/342 580/1/343
f 580/1/343 579/1/342 581/1/344
f 582/1/345 583/1/346 584/1/347
f 582/1/345 585/1/348 583/1/346
f 585/1/348 582/1/345 586/1/349
f 587/1/350 585/1/348 586/1/349
f 588/1/351 587/1/350 586/1/349
f 589/1/352 590/1/353 591/1/354
f 590/1/353 589/1/352 592/1/355
f 590/1/353 592/1/355 593/1/356
f 594/1/357 589/1/352 591/1/354
f 591/1/354 595/1/357 594/1/357
f 596/1/358 597/1/359 598/1/360
f 597/1/359 596/1/358 599/1/361
f 598/1/360 597/1/359 600/1/22
f 601/1/23 598/1/360 600/1/22
f 601/1/23 600/1/22 602/1/24
f 603/1/362 604/1/362 605/1/363
f 604/1/362 606/1/364 605/1/363
f 606/1/364 607/1/365 605/1/363
f 607/1/365 606/1/364 608/1/30
f 607/1/365 608/1/30 609/1/31
f 610/1/366 611/1/367 612/1/368
f 610/1/366 613/1/369 611/1/367
f 613/1/369 614/1/370 611/1/367
f 615/1/371 614/1/370 613/1/369
f 614/1/370 615/1/371 616/1/372
f 617/1/373 618/1/373 619/1/374
f 619/1/374 618/1/373 620/1/374
f 621/1/375 618/1/373 617/1/373
f 618/1/373 621/1/375 622/1/376
f 621/1/375 623/1/377 622/1/376
f 623/1/377 621/1/375 624/1/378
f 624/1/378 625/1/379 623/1/377
f 625/1/379 624/1/378 626/1/380
f 627/1/381 625/1/379 626/1/380
f 625/1/379 627/1/381 628/1/381
f 629/1/382 630/1/383 631/1/384
f 630/1/383 632/1/384 631/1/384
f 633/1/385 630/1/383 629/1/382
f 630/1/383 633/1/385 634/1/386
f 635/1/387 634/1/386 633/1/385
f 633/1/385 636/1/388 635/1/387
f 637/1/389 635/1/387 636/1/388
f 638/1/389 637/1/389 636/1/388
f 639/1/390 637/1/389 638/1/389
f 637/1/389 639/1/390 640/1/390
f 641/1/391 642/1/392 643/1/393
f 643/1/393 644/1/394 641/1/391
f 645/1/395 643/1/393 642/1/392
f 645/1/395 642/1/392 646/1/396
f 644/1/394 643/1/393 647/1/397
f 647/1/397 648/1/398 644/1/394
f 648/1/398 647/1/397 649/1/399
f 649/1/399 650/1/400 648/1/398
f 650/1/400 649/1/399 651/1/401
f 651/1/401 652/1/402 650/1/400
f 650/1/400 652/1/402 653/1/402
f 654/1/403 655/1/404 656/1/405
f 657/1/406 656/1/405 655/1/404
f 654/1/403 656/1/405 658/1/407
f 658/1/407 659/1/408 654/1/403
f 656/1/405 657/1/406 660/1/409
f 661/1/410 660/1/409 657/1/406
f 660/1/409 661/1/410 662/1/411
f 663/1/412 662/1/411 661/1/410
f 662/1/411 663/1/412 664/1/413
f 665/1/414 664/1/413 663/1/412
f 665/1/414 663/1/412 666/1/414
f 667/1/87 668/1/88 669/1/415
f 668/1/88 667/1/87 670/1/90
f 667/1/87 671/1/91 670/1/90
f 671/1/91 667/1/87 672/1/92
f 671/1/91 672/1/92 673/1/93
f 674/1/94 675/1/95 676/1/96
f 675/1/95 677/1/97 676/1/96
f 678/1/98 676/1/96 677/1/97
f 676/1/96 678/1/98 679/1/99
f 679/1/99 678/1/98 680/1/100
f 681/1/210 682/1/211 683/1/416
f 682/1/211 681/1/210 684/1/213
f 683/1/416 685/1/214 681/1/210
f 685/1/214 683/1/416 686/1/176
f 685/1/214 686/1/176 687/1/177
f 688/1/215 689/1/216 690/1/289
f 689/1/216 688/1/215 691/1/218
f 689/1/216 692/1/417 690/1/289
f 690/1/289 692/1/417 693/1/182
f 693/1/182 692/1/417 694/1/183
f 695/1/418 696/1/419 697/1/420
f 696/1/419 695/1/418 698/1/421
f 698/1/421 695/1/418 699/1/422
f 700/1/423 697/1/420 696/1/419
f 697/1/420 700/1/423 701/1/424
f 700/1/423 702/1/425 701/1/424
f 701/1/424 702/1/425 703/1/426
f 703/1/426 702/1/425 704/1/427
f 705/1/428 703/1/426 704/1/427
f 705/1/428 704/1/427 706/1/429
f 706/1/429 707/1/430 705/1/428
f 708/1/431 709/1/432 710/1/433
f 709/1/432 711/1/434 710/1/433
f 708/1/431 710/1/433 712/1/435
f 713/1/436 708/1/431 712/1/435
f 713/1/436 712/1/435 714/1/437
f 715/1/438 713/1/436 714/1/437
f 714/1/437 716/1/439 715/1/438
f 717/1/440 715/1/438 716/1/439
f 716/1/439 718/1/441 717/1/440
f 717/1/440 718/1/441 719/1/442
f 718/1/441 720/1/443 719/1/442
f 721/1/3 722/1/3 723/1/3
f 722/1/3 721/1/3 724/1/3
f 725/1/3 726/1/3 727/1/3
f 726/1/3 725/1/3 728/1/3
f 729/1/3 730/1/3 731/1/3
f 730/1/3 729/1/3 732/1/3
f 733/1/3 734/1/3 735/1/3
f 734/1/3 733/1/3 736/1/3
f 737/1/14 738/1/14 739/1/14
f 738/1/14 737/1/14 740/1/14
f 741/1/14 742/1/14 743/1/14
f 742/1/14 741/1/14 744/1/14
f 745/1/14 746/1/14 747/1/14
f 746/1/14 745/1/14 748/1/14
f 749/1/14 750/1/14 751/1/14
f 750/1/14 749/1/14 752/1/14
f 753/1/290 754/1/444 755/1/292
f 754/1/444 753/1/290 756/1/445
f 757/1/446 756/1/445 753/1/290
f 756/1/445 757/1/446 758/1/116
f 758/1/116 757/1/446 759/1/117
f 760/1/295 761/1/447 762/1/297
f 761/1/447 763/1/448 762/1/297
f 763/1/448 764/1/449 762/1/297
f 764/1/449 763/1/448 765/1/122
f 764/1/449 765/1/122 766/1/300
f 767/1/450 768/1/451 769/1/451
f 770/1/452 769/1/451 768/1/451
f 768/1/451 767/1/450 771/1/450
f 767/1/450 772/1/453 771/1/450
f 772/1/453 767/1/450 773/1/453
f 770/1/452 768/1/451 774/1/452
f 775/1/454 770/1/452 774/1/452
f 770/1/452 775/1/454 776/1/454
f 777/1/455 776/1/454 775/1/454
f 776/1/454 777/1/455 778/1/455
f 779/1/333 780/1/265 781/1/456
f 779/1/333 781/1/456 782/1/457
f 782/1/457 783/1/267 779/1/333
f 783/1/267 782/1/457 784/1/335
f 783/1/267 784/1/335 785/1/269
f 786/1/336 787/1/271 788/1/458
f 787/1/271 786/1/336 789/1/270
f 788/1/458 787/1/271 790/1/273
f 791/1/274 788/1/458 790/1/273
f 791/1/274 790/1/273 792/1/275
f 793/1/210 794/1/211 795/1/212
f 794/1/211 793/1/210 796/1/213
f 795/1/212 797/1/214 793/1/210
f 797/1/214 795/1/212 798/1/176
f 797/1/214 798/1/176 799/1/177
f 800/1/459 801/1/216 802/1/460
f 801/1/216 800/1/459 803/1/218
f 801/1/216 804/1/461 802/1/460
f 802/1/460 804/1/461 805/1/182
f 805/1/182 804/1/461 806/1/183
f 807/1/8 808/1/8 809/1/8
f 808/1/8 807/1/8 810/1/8
f 811/1/8 812/1/8 813/1/8
f 812/1/8 811/1/8 814/1/8
f 815/1/8 816/1/8 817/1/8
f 816/1/8 815/1/8 818/1/8
f 819/1/8 820/1/8 821/1/8
f 820/1/8 819/1/8 822/1/8
f 823/1/290 824/1/462 825/1/292
f 824/1/462 823/1/290 826/1/293
f 827/1/294 826/1/293 823/1/290
f 826/1/293 827/1/294 828/1/116
f 828/1/116 827/1/294 829/1/117
f 830/1/295 831/1/463 832/1/297
f 831/1/463 833/1/298 832/1/297
f 833/1/298 834/1/449 832/1/297
f 834/1/449 833/1/298 835/1/122
f 834/1/449 835/1/122 836/1/300
f 837/1/464 838/1/464 839/1/464
f 838/1/464 837/1/464 840/1/464
f 841/1/465 842/1/465 843/1/465
f 842/1/465 841/1/465 844/1/465
f 845/1/3 846/1/3 847/1/3
f 846/1/3 845/1/3 848/1/3
f 849/1/14 850/1/14 851/1/14
f 850/1/14 849/1/14 852/1/14
f 853/1/466 854/1/466 855/1/466
f 854/1/466 853/1/466 856/1/466
f 857/1/467 858/1/467 859/1/467
f 858/1/467 857/1/467 860/1/467
f 861/1/468 862/1/469 863/1/470
f 862/1/469 861/1/468 864/1/471
f 864/1/471 861/1/468 865/1/472
f 866/1/473 863/1/470 862/1/469
f 863/1/470 866/1/473 867/1/474
f 868/1/475 867/1/474 866/1/473
f 867/1/474 868/1/475 869/1/476
f 868/1/475 870/1/477 869/1/476
f 870/1/477 868/1/475 871/1/478
f 872/1/479 870/1/477 871/1/478
f 872/1/479 873/1/480 870/1/477
f 874/1/481 875/1/482 876/1/483
f 875/1/482 877/1/484 876/1/483
f 874/1/481 876/1/483 878/1/485
f 879/1/486 874/1/481 878/1/485
f 879/1/486 878/1/485 880/1/487
f 881/1/488 879/1/486 880/1/487
f 881/1/488 880/1/487 882/1/489
f 883/1/490 881/1/488 882/1/489
f 881/1/488 883/1/490 884/1/491
f 884/1/491 883/1/490 885/1/492
f 883/1/490 886/1/493 885/1/492
f 887/1/333 888/1/265 889/1/334
f 887/1/333 889/1/334 890/1/457
f 890/1/457 891/1/267 887/1/333
f 891/1/267 890/1/457 892/1/335
f 891/1/267 892/1/335 893/1/269
f 894/1/270 895/1/271 896/1/458
f 895/1/271 894/1/270 897/1/270
f 896/1/458 895/1/271 898/1/273
f 899/1/274 896/1/458 898/1/273
f 899/1/274 898/1/273 900/1/275
f 901/1/494 902/1/495 903/1/278
f 902/1/495 901/1/494 904/1/277
f 903/1/278 905/1/279 901/1/494
f 905/1/279 903/1/278 906/1/496
f 905/1/279 906/1/496 907/1/281
f 908/1/497 909/1/498 910/1/284
f 909/1/498 908/1/497 911/1/285
f 912/1/286 911/1/285 908/1/497
f 911/1/285 912/1/286 913/1/287
f 913/1/287 912/1/286 914/1/288
f 915/1/290 916/1/499 917/1/292
f 916/1/499 915/1/290 918/1/293
f 919/1/446 918/1/293 915/1/290
f 918/1/293 919/1/446 920/1/116
f 920/1/116 919/1/446 921/1/117
f 922/1/295 923/1/296 924/1/297
f 923/1/296 925/1/298 924/1/297
f 925/1/298 926/1/500 924/1/297
f 926/1/500 925/1/298 927/1/122
f 926/1/500 927/1/122 928/1/300
o skull_grenade_barrel_chamber
v -0.439533 -0.228732 0.000000
v -0.442790 -0.090302 0.210302
v -0.439533 -0.126591 0.246591
v -0.439533 0.120000 0.348732
v -0.442790 -0.177412 0.000000
v -0.442790 0.120000 0.297412
v -0.442790 -0.090302 -0.210302
v -0.442790 0.330302 0.210302
v -0.439533 -0.126591 -0.246591
v -0.439533 0.366591 0.246591
v -0.439533 0.120000 -0.348732
v -0.439533 0.468732 -0.000000
v -0.442790 0.120000 -0.297412
v -0.442790 0.417412 -0.000000
v -0.442790 0.330302 -0.210302
v -0.439533 0.366591 -0.246591
v -0.700467 -0.228732 0.000000
v -0.700467 -0.126591 0.246591
v -0.697210 -0.090302 0.210302
v -0.700467 0.120000 0.348732
v -0.697210 -0.177412 0.000000
v -0.697210 0.120000 0.297412
v -0.697210 -0.090302 -0.210302
v -0.697210 0.330302 0.210302
v -0.700467 -0.126591 -0.246591
v -0.700467 0.366591 0.246591
v -0.700467 0.120000 -0.348732
v -0.700467 0.468732 -0.000000
v -0.697210 0.120000 -0.297412
v -0.697210 0.417412 -0.000000
v -0.697210 0.330302 -0.210302
v -0.700467 0.366591 -0.246591
v -0.485000 -0.256574 0.000000
v -0.439533 -0.126591 0.246591
v -0.485000 -0.146278 0.266278
v -0.485000 0.120000 0.376574
v -0.439533 -0.228732 0.000000
v -0.439533 0.120000 0.348732
v -0.439533 -0.126591 -0.246591
v -0.439533 0.366591 0.246591
v -0.485000 -0.146278 -0.266278
v -0.485000 0.386278 0.266278
v -0.485000 0.120000 -0.376574
v -0.485000 0.496574 -0.000000
v -0.439533 0.120000 -0.348732
v -0.439533 0.468732 -0.000000
v -0.439533 0.366591 -0.246591
v -0.485000 0.386278 -0.266278
v -0.700467 -0.126591 0.246591
v -0.700467 -0.228732 0.000000
v -0.655000 -0.256574 0.000000
v -0.700467 -0.126591 -0.246591
v -0.655000 -0.146278 0.266278
v -0.655000 -0.146278 -0.266278
v -0.655000 0.120000 0.376574
v -0.655000 0.120000 -0.376574
v -0.700467 0.120000 0.348732
v -0.700467 0.120000 -0.348732
v -0.700467 0.366591 0.246591
v -0.700467 0.366591 -0.246591
v -0.655000 0.386278 0.266278
v -0.655000 0.386278 -0.266278
v -0.655000 0.496574 -0.000000
v -0.700467 0.468732 -0.000000
v -0.442790 -0.177412 0.000000
v -0.485000 -0.074697 0.194697
v -0.442790 -0.090302 0.210302
v -0.442790 0.120000 0.297412
v -0.485000 -0.155343 0.000000
v -0.485000 0.120000 0.275343
v -0.485000 -0.074697 -0.194697
v -0.485000 0.314697 0.194697
v -0.442790 -0.090302 -0.210302
v -0.442790 0.330302 0.210302
v -0.442790 0.120000 -0.297412
v -0.442790 0.417412 -0.000000
v -0.485000 0.120000 -0.275343
v -0.485000 0.395343 -0.000000
v -0.485000 0.314697 -0.194697
v -0.442790 0.330302 -0.210302
v -0.655000 -0.074697 0.194697
v -0.655000 -0.155343 0.000000
v -0.697210 -0.177412 0.000000
v -0.655000 -0.074697 -0.194697
v -0.697210 -0.090302 0.210302
v -0.697210 -0.090302 -0.210302
v -0.697210 0.120000 0.297412
v -0.697210 0.120000 -0.297412
v -0.655000 0.120000 0.275343
v -0.655000 0.120000 -0.275343
v -0.655000 0.314697 0.194697
v -0.655000 0.314697 -0.194697
v -0.697210 0.330302 0.210302
v -0.697210 0.330302 -0.210302
v -0.697210 0.417412 -0.000000
v -0.655000 0.395343 -0.000000
v -0.530467 -0.228732 0.000000
v -0.530467 -0.126591 0.246591
v -0.527210 -0.090302 0.210302
v -0.530467 0.120000 0.348732
v -0.527210 -0.177412 0.000000
v -0.527210 0.120000 0.297412
v -0.527210 -0.090302 -0.210302
v -0.527210 0.330302 0.210302
v -0.530467 -0.126591 -0.246591
v -0.530467 0.366591 0.246591
v -0.530467 0.120000 -0.348732
v -0.530467 0.468732 -0.000000
v -0.527210 0.120000 -0.297412
v -0.527210 0.417412 -0.000000
v -0.527210 0.330302 -0.210302
v -0.530467 0.366591 -0.246591
v -0.609533 -0.228732 0.000000
v -0.612790 -0.090302 0.210302
v -0.609533 -0.126591 0.246591
v -0.609533 0.120000 0.348732
v -0.612790 -0.177412 0.000000
v -0.612790 0.120000 0.297412
v -0.612790 -0.090302 -0.210302
v -0.612790 0.330302 0.210302
v -0.609533 -0.126591 -0.246591
v -0.609533 0.366591 0.246591
v -0.609533 0.120000 -0.348732
v -0.609533 0.468732 -0.000000
v -0.612790 0.120000 -0.297412
v -0.612790 0.417412 -0.000000
v -0.612790 0.330302 -0.210302
v -0.609533 0.366591 -0.246591
v -0.530467 -0.126591 0.246591
v -0.530467 -0.228732 0.000000
v -0.485000 -0.256574 0.000000
v -0.530467 -0.126591 -0.246591
v -0.485000 -0.146278 0.266278
v -0.485000 -0.146278 -0.266278
v -0.485000 0.120000 0.376574
v -0.485000 0.120000 -0.376574
v -0.530467 0.120000 0.348732
v -0.530467 0.120000 -0.348732
v -0.530467 0.366591 0.246591
v -0.530467 0.366591 -0.246591
v -0.485000 0.386278 0.266278
v -0.485000 0.386278 -0.266278
v -0.485000 0.496574 -0.000000
v -0.530467 0.468732 -0.000000
v -0.655000 -0.256574 0.000000
v -0.609533 -0.126591 0.246591
v -0.655000 -0.146278 0.266278
v -0.655000 0.120000 0.376574
v -0.609533 -0.228732 0.000000
v -0.609533 0.120000 0.348732
v -0.609533 -0.126591 -0.246591
v -0.609533 0.366591 0.246591
v -0.655000 -0.146278 -0.266278
v -0.655000 0.386278 0.266278
v -0.655000 0.120000 -0.376574
v -0.655000 0.496574 -0.000000
v -0.609533 0.120000 -0.348732
v -0.609533 0.468732 -0.000000
v -0.609533 0.366591 -0.246591
v -0.655000 0.386278 -0.266278
v -0.485000 -0.074697 0.194697
v -0.485000 -0.155343 0.000000
v -0.527210 -0.177412 0.000000
v -0.485000 -0.074697 -0.194697
v -0.527210 -0.090302 0.210302
v -0.527210 -0.090302 -0.210302
v -0.527210 0.120000 0.297412
v -0.527210 0.120000 -0.297412
v -0.485000 0.120000 0.275343
v -0.485000 0.120000 -0.275343
v -0.485000 0.314697 0.194697
v -0.485000 0.314697 -0.194697
v -0.527210 0.330302 0.210302
v -0.527210 0.330302 -0.210302
v -0.527210 0.417412 -0.000000
v -0.485000 0.395343 -0.000000
v -0.612790 -0.177412 0.000000
v -0.655000 -0.074697 0.194697
v -0.612790 -0.090302 0.210302
v -0.612790 0.120000 0.297412
v -0.655000 -0.155343 0.000000
v -0.655000 0.120000 0.275343
v -0.655000 -0.074697 -0.194697
v -0.655000 0.314697 0.194697
v -0.612790 -0.090302 -0.210302
v -0.612790 0.330302 0.210302
v -0.612790 0.120000 -0.297412
v -0.612790 0.417412 -0.000000
v -0.655000 0.120000 -0.275343
v -0.655000 0.395343 -0.000000
v -0.655000 0.314697 -0.194697
v -0.612790 0.330302 -0.210302
v -0.609533 -0.228732 -0.008584
v -0.612790 -0.090302 0.201718
v -0.609533 -0.126591 0.238007
v -0.609533 0.120000 0.340148
v -0.612790 -0.177412 -0.008584
v -0.612790 0.120000 0.288828
v -0.612790 -0.090302 -0.218886
v -0.612790 0.330302 0.201718
v -0.609533 -0.126591 -0.255175
v -0.609533 0.366591 0.238007
v -0.609533 0.120000 -0.357316
v -0.609533 0.468732 -0.008584
v -0.612790 0.120000 -0.305996
v -0.612790 0.417412 -0.008584
v -0.612790 0.330302 -0.218886
v -0.609533 0.366591 -0.255175
v -0.870467 -0.228732 -0.008584
v -0.870467 -0.126591 0.238007
v -0.867210 -0.090302 0.201718
v -0.870467 0.120000 0.340148
v -0.867210 -0.177412 -0.008584
v -0.867210 0.120000 0.288828
v -0.867210 -0.090302 -0.218886
v -0.867210 0.330302 0.201718
v -0.870467 -0.126591 -0.255175
v -0.870467 0.366591 0.238007
v -0.870467 0.120000 -0.357316
v -0.870467 0.468732 -0.008584
v -0.867210 0.120000 -0.305996
v -0.867210 0.417412 -0.008584
v -0.867210 0.330302 -0.218886
v -0.870467 0.366591 -0.255175
v -0.655000 -0.256574 -0.008584
v -0.609533 -0.126591 0.238007
v -0.655000 -0.146278 0.257694
v -0.655000 0.120000 0.367990
v -0.609533 -0.228732 -0.008584
v -0.609533 0.120000 0.340148
v -0.609533 -0.126591 -0.255175
v -0.609533 0.366591 0.238007
v -0.655000 -0.146278 -0.274862
v -0.655000 0.386278 0.257694
v -0.655000 0.120000 -0.385158
v -0.655000 0.496574 -0.008584
v -0.609533 0.120000 -0.357316
v -0.609533 0.468732 -0.008584
v -0.609533 0.366591 -0.255175
v -0.655000 0.386278 -0.274862
v -0.870467 -0.126591 0.238007
v -0.870467 -0.228732 -0.008584
v -0.825000 -0.256574 -0.008584
v -0.870467 -0.126591 -0.255175
v -0.825000 -0.146278 0.257694
v -0.825000 -0.146278 -0.274862
v -0.825000 0.120000 0.367990
v -0.825000 0.120000 -0.385158
v -0.870467 0.120000 0.340148
v -0.870467 0.120000 -0.357316
v -0.870467 0.366591 0.238007
v -0.870467 0.366591 -0.255175
v -0.825000 0.386278 0.257694
v -0.825000 0.386278 -0.274862
v -0.825000 0.496574 -0.008584
v -0.870467 0.468732 -0.008584
v -0.612790 -0.177412 -0.008584
v -0.655000 -0.074697 0.186113
v -0.612790 -0.090302 0.201718
v -0.612790 0.120000 0.288828
v -0.655000 -0.155343 -0.008584
v -0.655000 0.120000 0.266759
v -0.655000 -0.074697 -0.203281
v -0.655000 0.314697 0.186113
v -0.612790 -0.090302 -0.218886
v -0.612790 0.330302 0.201718
v -0.612790 0.120000 -0.305996
v -0.612790 0.417412 -0.008584
v -0.655000 0.120000 -0.283927
v -0.655000 0.395343 -0.008584
v -0.655000 0.314697 -0.203281
v -0.612790 0.330302 -0.218886
v -0.825000 -0.074697 0.186113
v -0.825000 -0.155343 -0.008584
v -0.867210 -0.177412 -0.008584
v -0.825000 -0.074697 -0.203281
v -0.867210 -0.090302 0.201718
v -0.867210 -0.090302 -0.218886
v -0.867210 0.120000 0.288828
v -0.867210 0.120000 -0.305996
v -0.825000 0.120000 0.266759
v -0.825000 0.120000 -0.283927
v -0.825000 0.314697 0.186113
v -0.825000 0.314697 -0.203281
v -0.867210 0.330302 0.201718
v -0.867210 0.330302 -0.218886
v -0.867210 0.417412 -0.008584
v -0.825000 0.395343 -0.008584
v -0.700467 -0.228732 -0.008584
v -0.700467 -0.126591 0.238007
v -0.697210 -0.090302 0.201718
v -0.700467 0.120000 0.340148
v -0.697210 -0.177412 -0.008584
v -0.697210 0.120000 0.288828
v -0.697210 -0.090302 -0.218886
v -0.697210 0.330302 0.201718
v -0.700467 -0.126591 -0.255175
v -0.700467 0.366591 0.238007
v -0.700467 0.120000 -0.357316
v -0.700467 0.468732 -0.008584
v -0.697210 0.120000 -0.305996
v -0.697210 0.417412 -0.008584
v -0.697210 0.330302 -0.218886
v -0.700467 0.366591 -0.255175
v -0.779533 -0.228732 -0.008584
v -0.782790 -0.090302 0.201718
v -0.779533 -0.126591 0.238007
v -0.779533 0.120000 0.340148
v -0.782790 -0.177412 -0.008584
v -0.782790 0.120000 0.288828
v -0.782790 -0.090302 -0.218886
v -0.782790 0.330302 0.201718
v -0.779533 -0.126591 -0.255175
v -0.779533 0.366591 0.238007
v -0.779533 0.120000 -0.357316
v -0.779533 0.468732 -0.008584
v -0.782790 0.120000 -0.305996
v -0.782790 0.417412 -0.008584
v -0.782790 0.330302 -0.218886
v -0.779533 0.366591 -0.255175
v -0.700467 -0.126591 0.238007
v -0.700467 -0.228732 -0.008584
v -0.655000 -0.256574 -0.008584
v -0.700467 -0.126591 -0.255175
v -0.655000 -0.146278 0.257694
v -0.655000 -0.146278 -0.274862
v -0.655000 0.120000 0.367990
v -0.655000 0.120000 -0.385158
v -0.700467 0.120000 0.340148
v -0.700467 0.120000 -0.357316
v -0.700467 0.366591 0.238007
v -0.700467 0.366591 -0.255175
v -0.655000 0.386278 0.257694
v -0.655000 0.386278 -0.274862
v -0.655000 0.496574 -0.008584
v -0.700467 0.468732 -0.008584
v -0.825000 -0.256574 -0.008584
v -0.779533 -0.126591 0.238007
v -0.825000 -0.146278 0.257694
v -0.825000 0.120000 0.367990
v -0.779533 -0.228732 -0.008584
v -0.779533 0.120000 0.340148
v -0.779533 -0.126591 -0.255175
v -0.779533 0.366591 0.238007
v -0.825000 -0.146278 -0.274862
v -0.825000 0.386278 0.257694
v -0.825000 0.120000 -0.385158
v -0.825000 0.496574 -0.008584
v -0.779533 0.120000 -0.357316
v -0.779533 0.468732 -0.008584
v -0.779533 0.366591 -0.255175
v -0.825000 0.386278 -0.274862
v -0.655000 -0.074697 0.186113
v -0.655000 -0.155343 -0.008584
v -0.697210 -0.177412 -0.008584
v -0.655000 -0.074697 -0.203281
v -0.697210 -0.090302 0.201718
v -0.697210 -0.090302 -0.218886
v -0.697210 0.120000 0.288828
v -0.697210 0.120000 -0.305996
v -0.655000 0.120000 0.266759
v -0.655000 0.120000 -0.283927
v -0.655000 0.314697 0.186113
v -0.655000 0.314697 -0.203281
v -0.697210 0.330302 0.201718
v -0.697210 0.330302 -0.218886
v -0.697210 0.417412 -0.008584
v -0.655000 0.395343 -0.008584
v -0.782790 -0.177412 -0.008584
v -0.825000 -0.074697 0.186113
v -0.782790 -0.090302 0.201718
v -0.782790 0.120000 0.288828
v -0.825000 -0.155343 -0.008584
v -0.825000 0.120000 0.266759
v -0.825000 -0.074697 -0.203281
v -0.825000 0.314697 0.186113
v -0.782790 -0.090302 -0.218886
v -0.782790 0.330302 0.201718
v -0.782790 0.120000 -0.305996
v -0.782790 0.417412 -0.008584
v -0.825000 0.120000 -0.283927
v -0.825000 0.395343 -0.008584
v -0.825000 0.314697 -0.203281
v -0.782790 0.330302 -0.218886
vn 0.9980 0.0633 -0.0000
vn 0.9980 0.0430 -0.0466
vn 0.9980 0.0477 -0.0418
vn 0.9980 -0.0000 -0.0633
vn 0.9980 0.0430 0.0466
vn 0.9980 -0.0430 -0.0466
vn 0.9980 0.0477 0.0418
vn 0.9980 -0.0477 -0.0418
vn 0.9980 -0.0000 0.0633
vn 0.9980 -0.0633 -0.0000
vn 0.9980 -0.0430 0.0466
vn 0.9980 -0.0477 0.0418
vn -0.9980 0.0633 -0.0000
vn -0.9980 0.0477 -0.0418
vn -0.9980 0.0430 -0.0466
vn -0.9980 -0.0000 -0.0633
vn -0.9980 0.0430 0.0466
vn -0.9980 -0.0430 -0.0466
vn -0.9980 0.0477 0.0418
vn -0.9980 -0.0477 -0.0418
vn -0.9980 -0.0000 0.0633
vn -0.9980 -0.0633 -0.0000
vn -0.9980 -0.0430 0.0466
vn -0.9980 -0.0477 0.0418
vn 0.5222 -0.8528 -0.0000
vn 0.5221 -0.5869 0.6189
vn 0.5215 -0.6398 0.5646
vn 0.5222 -0.0000 0.8528
vn 0.5221 -0.5869 -0.6189
vn 0.5221 0.5869 0.6189
vn 0.5215 -0.6398 -0.5646
vn 0.5215 0.6398 0.5646
vn 0.5222 -0.0000 -0.8528
vn 0.5222 0.8528 -0.0000
vn 0.5221 0.5869 -0.6189
vn 0.5215 0.6398 -0.5646
vn -0.5221 -0.5869 0.6189
vn -0.5222 -0.8528 -0.0000
vn -0.5221 -0.5869 -0.6189
vn -0.5215 -0.6398 0.5646
vn -0.5215 -0.6398 -0.5646
vn -0.5222 -0.0000 0.8528
vn -0.5222 -0.0000 -0.8528
vn -0.5221 0.5869 0.6189
vn -0.5221 0.5869 -0.6189
vn -0.5215 0.6398 0.5646
vn -0.5215 0.6398 -0.5646
vn -0.5222 0.8528 -0.0000
vn 0.4633 0.8862 -0.0000
vn 0.4632 0.6120 -0.6410
vn 0.4627 0.6642 -0.5872
vn 0.4633 -0.0000 -0.8862
vn 0.4632 0.6120 0.6410
vn 0.4632 -0.6120 -0.6410
vn 0.4627 0.6642 0.5872
vn 0.4627 -0.6642 -0.5872
vn 0.4633 -0.0000 0.8862
vn 0.4633 -0.8862 -0.0000
vn 0.4632 -0.6120 0.6410
vn 0.4627 -0.6642 0.5872
vn -0.4632 0.6120 -0.6410
vn -0.4633 0.8862 -0.0000
vn -0.4632 0.6120 0.6410
vn -0.4627 0.6642 -0.5872
vn -0.4627 0.6642 0.5872
vn -0.4633 -0.0000 -0.8862
vn -0.4633 -0.0000 0.8862
vn -0.4632 -0.6120 -0.6410
vn -0.4632 -0.6120 0.6410
vn -0.4627 -0.6642 -0.5872
vn -0.4627 -0.6642 0.5872
vn -0.4633 -0.8862 -0.0000
vt 0.000000 0.000000
s 1
f 929/2/501 930/2/502 931/2/503
f 930/2/502 932/2/504 931/2/503
f 930/2/502 929/2/501 933/2/501
f 932/2/504 930/2/502 934/2/504
f 935/2/505 933/2/501 929/2/501
f 936/2/506 932/2/504 934/2/504
f 935/2/505 929/2/501 937/2/507
f 932/2/504 936/2/506 938/2/508
f 939/2/509 935/2/505 937/2/507
f 940/2/510 938/2/508 936/2/506
f 935/2/505 939/2/509 941/2/509
f 940/2/510 936/2/506 942/2/510
f 939/2/509 943/2/511 941/2/509
f 943/2/511 940/2/510 942/2/510
f 939/2/509 944/2/512 943/2/511
f 940/2/510 943/2/511 944/2/512
f 945/2/513 946/2/514 947/2/515
f 948/2/516 947/2/515 946/2/514
f 945/2/513 947/2/515 949/2/513
f 947/2/515 948/2/516 950/2/516
f 951/2/517 945/2/513 949/2/513
f 952/2/518 950/2/516 948/2/516
f 945/2/513 951/2/517 953/2/519
f 948/2/516 954/2/520 952/2/518
f 951/2/517 955/2/521 953/2/519
f 956/2/522 952/2/518 954/2/520
f 955/2/521 951/2/517 957/2/521
f 952/2/518 956/2/522 958/2/522
f 959/2/523 955/2/521 957/2/521
f 956/2/522 959/2/523 958/2/522
f 955/2/521 959/2/523 960/2/524
f 956/2/522 960/2/524 959/2/523
f 961/2/525 962/2/526 963/2/527
f 964/2/528 963/2/527 962/2/526
f 962/2/526 961/2/525 965/2/525
f 962/2/526 966/2/528 964/2/528
f 967/2/529 965/2/525 961/2/525
f 968/2/530 964/2/528 966/2/528
f 961/2/525 969/2/531 967/2/529
f 964/2/528 968/2/530 970/2/532
f 971/2/533 967/2/529 969/2/531
f 972/2/534 970/2/532 968/2/530
f 967/2/529 971/2/533 973/2/533
f 972/2/534 968/2/530 974/2/534
f 975/2/535 973/2/533 971/2/533
f 975/2/535 972/2/534 974/2/534
f 971/2/533 976/2/536 975/2/535
f 972/2/534 975/2/535 976/2/536
f 977/2/537 978/2/538 979/2/538
f 980/2/539 979/2/538 978/2/538
f 979/2/538 981/2/540 977/2/537
f 979/2/538 980/2/539 982/2/541
f 983/2/542 977/2/537 981/2/540
f 984/2/543 982/2/541 980/2/539
f 977/2/537 983/2/542 985/2/542
f 980/2/539 986/2/543 984/2/543
f 987/2/544 985/2/542 983/2/542
f 988/2/545 984/2/543 986/2/543
f 983/2/542 989/2/546 987/2/544
f 984/2/543 988/2/545 990/2/547
f 991/2/548 987/2/544 989/2/546
f 988/2/545 991/2/548 990/2/547
f 987/2/544 991/2/548 992/2/548
f 991/2/548 988/2/545 992/2/548
f 993/2/549 994/2/550 995/2/551
f 996/2/552 995/2/551 994/2/550
f 994/2/550 993/2/549 997/2/549
f 996/2/552 994/2/550 998/2/552
f 999/2/553 997/2/549 993/2/549
f 1000/2/554 996/2/552 998/2/552
f 993/2/549 1001/2/555 999/2/553
f 996/2/552 1000/2/554 1002/2/556
f 1003/2/557 999/2/553 1001/2/555
f 1004/2/558 1002/2/556 1000/2/554
f 999/2/553 1003/2/557 1005/2/557
f 1004/2/558 1000/2/554 1006/2/558
f 1003/2/557 1007/2/559 1005/2/557
f 1007/2/559 1004/2/558 1006/2/558
f 1003/2/557 1008/2/560 1007/2/559
f 1004/2/558 1007/2/559 1008/2/560
f 1009/2/561 1010/2/562 1011/2/562
f 1012/2/563 1011/2/562 1010/2/562
f 1011/2/562 1013/2/564 1009/2/561
f 1011/2/562 1012/2/563 1014/2/565
f 1015/2/566 1009/2/561 1013/2/564
f 1012/2/563 1016/2/567 1014/2/565
f 1009/2/561 1015/2/566 1017/2/566
f 1016/2/567 1012/2/563 1018/2/567
f 1015/2/566 1019/2/568 1017/2/566
f 1020/2/569 1016/2/567 1018/2/567
f 1019/2/568 1015/2/566 1021/2/570
f 1016/2/567 1020/2/569 1022/2/571
f 1023/2/572 1019/2/568 1021/2/570
f 1020/2/569 1023/2/572 1022/2/571
f 1019/2/568 1023/2/572 1024/2/572
f 1023/2/572 1020/2/569 1024/2/572
f 1025/2/513 1026/2/514 1027/2/515
f 1028/2/516 1027/2/515 1026/2/514
f 1025/2/513 1027/2/515 1029/2/513
f 1027/2/515 1028/2/516 1030/2/516
f 1031/2/517 1025/2/513 1029/2/513
f 1032/2/518 1030/2/516 1028/2/516
f 1025/2/513 1031/2/517 1033/2/519
f 1028/2/516 1034/2/520 1032/2/518
f 1031/2/517 1035/2/521 1033/2/519
f 1036/2/522 1032/2/518 1034/2/520
f 1035/2/521 1031/2/517 1037/2/521
f 1032/2/518 1036/2/522 1038/2/522
f 1039/2/523 1035/2/521 1037/2/521
f 1036/2/522 1039/2/523 1038/2/522
f 1035/2/521 1039/2/523 1040/2/524
f 1036/2/522 1040/2/524 1039/2/523
f 1041/2/501 1042/2/502 1043/2/503
f 1042/2/502 1044/2/504 1043/2/503
f 1042/2/502 1041/2/501 1045/2/501
f 1044/2/504 1042/2/502 1046/2/504
f 1047/2/505 1045/2/501 1041/2/501
f 1048/2/506 1044/2/504 1046/2/504
f 1047/2/505 1041/2/501 1049/2/507
f 1044/2/504 1048/2/506 1050/2/508
f 1051/2/509 1047/2/505 1049/2/507
f 1052/2/510 1050/2/508 1048/2/506
f 1047/2/505 1051/2/509 1053/2/509
f 1052/2/510 1048/2/506 1054/2/510
f 1051/2/509 1055/2/511 1053/2/509
f 1055/2/511 1052/2/510 1054/2/510
f 1051/2/509 1056/2/512 1055/2/511
f 1052/2/510 1055/2/511 1056/2/512
f 1057/2/537 1058/2/538 1059/2/538
f 1060/2/539 1059/2/538 1058/2/538
f 1059/2/538 1061/2/540 1057/2/537
f 1059/2/538 1060/2/539 1062/2/541
f 1063/2/542 1057/2/537 1061/2/540
f 1064/2/543 1062/2/541 1060/2/539
f 1057/2/537 1063/2/542 1065/2/542
f 1060/2/539 1066/2/543 1064/2/543
f 1067/2/544 1065/2/542 1063/2/542
f 1068/2/545 1064/2/543 1066/2/543
f 1063/2/542 1069/2/546 1067/2/544
f 1064/2/543 1068/2/545 1070/2/547
f 1071/2/548 1067/2/544 1069/2/546
f 1068/2/545 1071/2/548 1070/2/547
f 1067/2/544 1071/2/548 1072/2/548
f 1071/2/548 1068/2/545 1072/2/548
f 1073/2/525 1074/2/526 1075/2/527
f 1076/2/528 1075/2/527 1074/2/526
f 1074/2/526 1073/2/525 1077/2/525
f 1074/2/526 1078/2/528 1076/2/528
f 1079/2/529 1077/2/525 1073/2/525
f 1080/2/530 1076/2/528 1078/2/528
f 1073/2/525 1081/2/531 1079/2/529
f 1076/2/528 1080/2/530 1082/2/532
f 1083/2/533 1079/2/529 1081/2/531
f 1084/2/534 1082/2/532 1080/2/530
f 1079/2/529 1083/2/533 1085/2/533
f 1084/2/534 1080/2/530 1086/2/534
f 1087/2/535 1085/2/533 1083/2/533
f 1087/2/535 1084/2/534 1086/2/534
f 1083/2/533 1088/2/536 1087/2/535
f 1084/2/534 1087/2/535 1088/2/536
f 1089/2/561 1090/2/562 1091/2/562
f 1092/2/563 1091/2/562 1090/2/562
f 1091/2/562 1093/2/564 1089/2/561
f 1091/2/562 1092/2/563 1094/2/565
f 1095/2/566 1089/2/561 1093/2/564
f 1092/2/563 1096/2/567 1094/2/565
f 1089/2/561 1095/2/566 1097/2/566
f 1096/2/567 1092/2/563 1098/2/567
f 1095/2/566 1099/2/568 1097/2/566
f 1100/2/569 1096/2/567 1098/2/567
f 1099/2/568 1095/2/566 1101/2/570
f 1096/2/567 1100/2/569 1102/2/571
f 1103/2/572 1099/2/568 1101/2/570
f 1100/2/569 1103/2/572 1102/2/571
f 1099/2/568 1103/2/572 1104/2/572
f 1103/2/572 1100/2/569 1104/2/572
f 1105/2/549 1106/2/550 1107/2/551
f 1108/2/552 1107/2/551 1106/2/550
f 1106/2/550 1105/2/549 1109/2/549
f 1108/2/552 1106/2/550 1110/2/552
f 1111/2/553 1109/2/549 1105/2/549
f 1112/2/554 1108/2/552 1110/2/552
f 1105/2/549 1113/2/555 1111/2/553
f 1108/2/552 1112/2/554 1114/2/556
f 1115/2/557 1111/2/553 1113/2/555
f 1116/2/558 1114/2/556 1112/2/554
f 1111/2/553 1115/2/557 1117/2/557
f 1116/2/558 1112/2/554 1118/2/558
f 1115/2/557 1119/2/559 1117/2/557
f 1119/2/559 1116/2/558 1118/2/558
f 1115/2/557 1120/2/560 1119/2/559
f 1116/2/558 1119/2/559 1120/2/560
f 1121/2/501 1122/2/502 1123/2/503
f 1122/2/502 1124/2/504 1123/2/503
f 1122/2/502 1121/2/501 1125/2/501
f 1124/2/504 1122/2/502 1126/2/504
f 1127/2/505 1125/2/501 1121/2/501
f 1128/2/506 1124/2/504 1126/2/504
f 1127/2/505 1121/2/501 1129/2/507
f 1124/2/504 1128/2/506 1130/2/508
f 1131/2/509 1127/2/505 1129/2/507
f 1132/2/510 1130/2/508 1128/2/506
f 1127/2/505 1131/2/509 1133/2/509
f 1132/2/510 1128/2/506 1134/2/510
f 1131/2/509 1135/2/511 1133/2/509
f 1135/2/511 1132/2/510 1134/2/510
f 1131/2/509 1136/2/512 1135/2/511
f 1132/2/510 1135/2/511 1136/2/512
f 1137/2/513 1138/2/514 1139/2/515
f 1140/2/516 1139/2/515 1138/2/514
f 1137/2/513 1139/2/515 1141/2/513
f 1139/2/515 1140/2/516 1142/2/516
f 1143/2/517 1137/2/513 1141/2/513
f 1144/2/518 1142/2/516 1140/2/516
f 1137/2/513 1143/2/517 1145/2/519
f 1140/2/516 1146/2/520 1144/2/518
f 1143/2/517 1147/2/521 1145/2/519
f 1148/2/522 1144/2/518 1146/2/520
f 1147/2/521 1143/2/517 1149/2/521
f 1144/2/518 1148/2/522 1150/2/522
f 1151/2/523 1147/2/521 1149/2/521
f 1148/2/522 1151/2/523 1150/2/522
f 1147/2/521 1151/2/523 1152/2/524
f 1148/2/522 1152/2/524 1151/2/523
f 1153/2/525 1154/2/526 1155/2/527
f 1156/2/528 1155/2/527 1154/2/526
f 1154/2/526 1153/2/525 1157/2/525
f 1154/2/526 1158/2/528 1156/2/528
f 1159/2/529 1157/2/525 1153/2/525
f 1160/2/530 1156/2/528 1158/2/528
f 1153/2/525 1161/2/531 1159/2/529
f 1156/2/528 1160/2/530 1162/2/532
f 1163/2/533 1159/2/529 1161/2/531
f 1164/2/534 1162/2/532 1160/2/530
f 1159/2/529 1163/2/533 1165/2/533
f 1164/2/534 1160/2/530 1166/2/534
f 1167/2/535 1165/2/533 1163/2/533
f 1167/2/535 1164/2/534 1166/2/534
f 1163/2/533 1168/2/536 1167/2/535
f 1164/2/534 1167/2/535 1168/2/536
f 1169/2/537 1170/2/538 1171/2/538
f 1172/2/539 1171/2/538 1170/2/538
f 1171/2/538 1173/2/540 1169/2/537
f 1171/2/538 1172/2/539 1174/2/541
f 1175/2/542 1169/2/537 1173/2/540
f 1176/2/543 1174/2/541 1172/2/539
f 1169/2/537 1175/2/542 1177/2/542
f 1172/2/539 1178/2/543 1176/2/543
f 1179/2/544 1177/2/542 1175/2/542
f 1180/2/545 1176/2/543 1178/2/543
f 1175/2/542 1181/2/546 1179/2/544
f 1176/2/543 1180/2/545 1182/2/547
f 1183/2/548 1179/2/544 1181/2/546
f 1180/2/545 1183/2/548 1182/2/547
f 1179/2/544 1183/2/548 1184/2/548
f 1183/2/548 1180/2/545 1184/2/548
f 1185/2/549 1186/2/550 1187/2/551
f 1188/2/552 1187/2/551 1186/2/550
f 1186/2/550 1185/2/549 1189/2/549
f 1188/2/552 1186/2/550 1190/2/552
f 1191/2/553 1189/2/549 1185/2/549
f 1192/2/554 1188/2/552 1190/2/552
f 1185/2/549 1193/2/555 1191/2/553
f 1188/2/552 1192/2/554 1194/2/556
f 1195/2/557 1191/2/553 1193/2/555
f 1196/2/558 1194/2/556 1192/2/554
f 1191/2/553 1195/2/557 1197/2/557
f 1196/2/558 1192/2/554 1198/2/558
f 1195/2/557 1199/2/559 1197/2/557
f 1199/2/559 1196/2/558 1198/2/558
f 1195/2/557 1200/2/560 1199/2/559
f 1196/2/558 1199/2/559 1200/2/560
f 1201/2/561 1202/2/562 1203/2/562
f 1204/2/563 1203/2/562 1202/2/562
f 1203/2/562 1205/2/564 1201/2/561
f 1203/2/562 1204/2/563 1206/2/565
f 1207/2/566 1201/2/561 1205/2/564
f 1204/2/563 1208/2/567 1206/2/565
f 1201/2/561 1207/2/566 1209/2/566
f 1208/2/567 1204/2/563 1210/2/567
f 1207/2/566 1211/2/568 1209/2/566
f 1212/2/569 1208/2/567 1210/2/567
f 1211/2/568 1207/2/566 1213/2/570
f 1208/2/567 1212/2/569 1214/2/571
f 1215/2/572 1211/2/568 1213/2/570
f 1212/2/569 1215/2/572 1214/2/571
f 1211/2/568 1215/2/572 1216/2/572
f 1215/2/572 1212/2/569 1216/2/572
f 1217/2/513 1218/2/514 1219/2/515
f 1220/2/516 1219/2/515 1218/2/514
f 1217/2/513 1219/2/515 1221/2/513
f 1219/2/515 1220/2/516 1222/2/516
f 1223/2/517 1217/2/513 1221/2/513
f 1224/2/518 1222/2/516 1220/2/516
f 1217/2/513 1223/2/517 1225/2/519
f 1220/2/516 1226/2/520 1224/2/518
f 1223/2/517 1227/2/521 1225/2/519
f 1228/2/522 1224/2/518 1226/2/520
f 1227/2/521 1223/2/517 1229/2/521
f 1224/2/518 1228/2/522 1230/2/522
f 1231/2/523 1227/2/521 1229/2/521
f 1228/2/522 1231/2/523 1230/2/522
f 1227/2/521 1231/2/523 1232/2/524
f 1228/2/522 1232/2/524 1231/2/523
f 1233/2/501 1234/2/502 1235/2/503
f 1234/2/502 1236/2/504 1235/2/503
f 1234/2/502 1233/2/501 1237/2/501
f 1236/2/504 1234/2/502 1238/2/504
f 1239/2/505 1237/2/501 1233/2/501
f 1240/2/506 1236/2/504 1238/2/504
f 1239/2/505 1233/2/501 1241/2/507
f 1236/2/504 1240/2/506 1242/2/508
f 1243/2/509 1239/2/505 1241/2/507
f 1244/2/510 1242/2/508 1240/2/506
f 1239/2/505 1243/2/509 1245/2/509
f 1244/2/510 1240/2/506 1246/2/510
f 1243/2/509 1247/2/511 1245/2/509
f 1247/2/511 1244/2/510 1246/2/510
f 1243/2/509 1248/2/512 1247/2/511
f 1244/2/510 1247/2/511 1248/2/512
f 1249/2/537 1250/2/538 1251/2/538
f 1252/2/539 1251/2/538 1250/2/538
f 1251/2/538 1253/2/540 1249/2/537
f 1251/2/538 1252/2/539 1254/2/541
f 1255/2/542 1249/2/537 1253/2/540
f 1256/2/543 1254/2/541 1252/2/539
f 1249/2/537 1255/2/542 1257/2/542
f 1252/2/539 1258/2/543 1256/2/543
f 1259/2/544 1257/2/542 1255/2/542
f 1260/2/545 1256/2/543 1258/2/543
f 1255/2/542 1261/2/546 1259/2/544
f 1256/2/543 1260/2/545 1262/2/547
f 1263/2/548 1259/2/544 1261/2/546
f 1260/2/545 1263/2/548 1262/2/547
f 1259/2/544 1263/2/548 1264/2/548
f 1263/2/548 1260/2/545 1264/2/548
f 1265/2/525 1266/2/526 1267/2/527
f 1268/2/528 1267/2/527 1266/2/526
f 1266/2/526 1265/2/525 1269/2/525
f 1266/2/526 1270/2/528 1268/2/528
f 1271/2/529 1269/2/525 1265/2/525
f 1272/2/530 1268/2/528 1270/2/528
f 1265/2/525 1273/2/531 1271/2/529
f 1268/2/528 1272/2/530 1274/2/532
f 1275/2/533 1271/2/529 1273/2/531
f 1276/2/534 1274/2/532 1272/2/530
f 1271/2/529 1275/2/533 1277/2/533
f 1276/2/534 1272/2/530 1278/2/534
f 1279/2/535 1277/2/533 1275/2/533
f 1279/2/535 1276/2/534 1278/2/534
f 1275/2/533 1280/2/536 1279/2/535
f 1276/2/534 1279/2/535 1280/2/536
f 1281/2/561 1282/2/562 1283/2/562
f 1284/2/563 1283/2/562 1282/2/562
f 1283/2/562 1285/2/564 1281/2/561
f 1283/2/562 1284/2/563 1286/2/565
f 1287/2/566 1281/2/561 1285/2/564
f 1284/2/563 1288/2/567 1286/2/565
f 1281/2/561 1287/2/566 1289/2/566
f 1288/2/567 1284/2/563 1290/2/567
f 1287/2/566 1291/2/568 1289/2/566
f 1292/2/569 1288/2/567 1290/2/567
f 1291/2/568 1287/2/566 1293/2/570
f 1288/2/567 1292/2/569 1294/2/571
f 1295/2/572 1291/2/568 1293/2/570
f 1292/2/569 1295/2/572 1294/2/571
f 1291/2/568 1295/2/572 1296/2/572
f 1295/2/572 1292/2/569 1296/2/572
f 1297/2/549 1298/2/550 1299/2/551
f 1300/2/552 1299/2/551 1298/2/550
f 1298/2/550 1297/2/549 1301/2/549
f 1300/2/552 1298/2/550 1302/2/552
f 1303/2/553 1301/2/549 1297/2/549
f 1304/2/554 1300/2/552 1302/2/552
f 1297/2/549 1305/2/555 1303/2/553
f 1300/2/552 1304/2/554 1306/2/556
f 1307/2/557 1303/2/553 1305/2/555
f 1308/2/558 1306/2/556 1304/2/554
f 1303/2/553 1307/2/557 1309/2/557
f 1308/2/558 1304/2/554 1310/2/558
f 1307/2/557 1311/2/559 1309/2/557
f 1311/2/559 1308/2/558 1310/2/558
f 1307/2/557 1312/2/560 1311/2/559
f 1308/2/558 1311/2/559 1312/2/560
