# Blender 5.2.0 LTS
# www.blender.org
mtllib skull grenade barrelllllllll.mtl
o barrel_skull_grenade
v -0.767904 0.481788 -0.053188
v -0.767904 0.405091 -0.053188
v -0.767904 0.405091 0.053188
v -0.767904 0.481788 0.053188
v 0.919060 0.210812 -0.174445
v 0.942904 0.036368 0.000000
v 0.942904 0.087461 -0.123351
v 0.919060 0.210812 0.174445
v 0.942904 0.087461 0.123351
v 0.942904 0.334163 0.123351
v 0.942904 0.334163 -0.123351
v 0.942904 0.385256 -0.000000
v 0.689060 0.210812 -0.174445
v 0.712904 0.036368 0.000000
v 0.712904 0.087461 -0.123351
v 0.689060 0.210812 0.174445
v 0.712904 0.087461 0.123351
v 0.712904 0.334163 0.123351
v 0.712904 0.334163 -0.123351
v 0.712904 0.385256 -0.000000
v -0.132877 -0.239320 -0.277304
v -0.132877 0.315286 -0.277304
v -0.132877 0.037984 -0.392167
v -0.132877 -0.354183 0.000000
v -0.132877 0.430150 -0.000000
v -0.132877 0.315286 0.277304
v -0.132877 -0.239320 0.277304
v -0.132877 0.037984 0.392167
v 0.459060 0.210812 -0.174445
v 0.482904 0.036368 0.000000
v 0.482904 0.087461 -0.123351
v 0.459060 0.210812 0.174445
v 0.482904 0.087461 0.123351
v 0.482904 0.334163 0.123351
v 0.482904 0.334163 -0.123351
v 0.482904 0.385256 -0.000000
v -0.493933 0.534183 -0.043655
v -0.493933 0.534183 0.043655
v -0.453095 0.503845 -0.043655
v -0.453095 0.503845 0.043655
v -0.433492 0.473506 -0.043655
v -0.433492 0.473506 0.043655
v -0.704245 0.534183 0.043655
v -0.704245 0.534183 -0.043655
v -0.726863 0.503845 0.043655
v -0.726863 0.503845 -0.043655
v -0.734463 0.473506 0.043655
v -0.734463 0.473506 -0.043655
v -0.009692 0.468492 -0.053188
v -0.009692 0.468492 0.053188
v 0.043689 0.451894 -0.053188
v 0.043689 0.451894 0.053188
v -0.063073 0.476983 0.053188
v -0.063073 0.476983 -0.053188
v -0.116454 0.481788 0.053188
v -0.116454 0.481788 -0.053188
v -0.767904 0.481788 0.053188
v -0.767904 0.481788 -0.053188
v 0.117579 0.210812 -0.174445
v 0.117579 0.210812 0.174445
v 0.093735 0.334163 -0.123351
v 0.093735 0.334163 0.123351
v 0.093735 0.385256 -0.000000
v 0.093735 0.036368 0.000000
v 0.093735 0.087461 0.123351
v 0.093735 0.087461 -0.123351
v -0.116454 0.481788 0.053188
v -0.767904 0.481788 0.053188
v -0.116454 0.405091 0.053188
v -0.767904 0.405091 0.053188
v -0.063073 0.476983 0.053188
v -0.063073 0.405091 0.053188
v -0.009692 0.468492 0.053188
v -0.009692 0.405091 0.053188
v 0.043689 0.451894 0.053188
v 0.043689 0.405091 0.053188
v 0.043689 0.451894 -0.053188
v -0.009692 0.405091 -0.053188
v -0.009692 0.468492 -0.053188
v 0.043689 0.405091 -0.053188
v -0.063073 0.405091 -0.053188
v -0.063073 0.476983 -0.053188
v -0.116454 0.405091 -0.053188
v -0.116454 0.481788 -0.053188
v -0.767904 0.405091 -0.053188
v -0.767904 0.481788 -0.053188
v -0.734463 0.473506 -0.043655
v -0.493933 0.534183 -0.043655
v -0.433492 0.473506 -0.043655
v -0.453095 0.503845 -0.043655
v -0.704245 0.534183 -0.043655
v -0.726863 0.503845 -0.043655
v -0.734463 0.473506 0.043655
v -0.493933 0.534183 0.043655
v -0.704245 0.534183 0.043655
v -0.726863 0.503845 0.043655
v -0.433492 0.473506 0.043655
v -0.453095 0.503845 0.043655
v -0.132877 -0.239320 0.277304
v 0.063991 -0.239320 0.277304
v 0.063991 0.037984 0.392167
v -0.132877 -0.354183 0.000000
v -0.132877 0.037984 0.392167
v 0.063991 -0.354183 0.000000
v 0.063991 0.315286 0.277304
v -0.132877 -0.239320 -0.277304
v -0.132877 0.315286 0.277304
v 0.063991 -0.239320 -0.277304
v 0.063991 0.430150 -0.000000
v -0.132877 0.037984 -0.392167
v -0.132877 0.430150 -0.000000
v 0.063991 0.037984 -0.392167
v 0.063991 0.315286 -0.277304
v -0.132877 0.315286 -0.277304
v 0.229060 0.210812 -0.174445
v 0.252904 0.036368 0.000000
v 0.252904 0.087461 -0.123351
v 0.229060 0.210812 0.174445
v 0.252904 0.087461 0.123351
v 0.252904 0.334163 0.123351
v 0.252904 0.334163 -0.123351
v 0.252904 0.385256 -0.000000
v 0.252904 0.087461 0.123351
v 0.117579 0.210812 0.174445
v 0.093735 0.087461 0.123351
v 0.093735 0.036368 0.000000
v 0.229060 0.210812 0.174445
v 0.252904 0.036368 0.000000
v 0.093735 0.334163 0.123351
v 0.093735 0.087461 -0.123351
v 0.252904 0.334163 0.123351
v 0.252904 0.087461 -0.123351
v 0.252904 0.385256 -0.000000
v 0.229060 0.210812 -0.174445
v 0.093735 0.385256 -0.000000
v 0.117579 0.210812 -0.174445
v 0.252904 0.334163 -0.123351
v 0.093735 0.334163 -0.123351
v 0.482904 0.087461 0.123351
v 0.347579 0.210812 0.174445
v 0.323735 0.087461 0.123351
v 0.323735 0.036368 0.000000
v 0.459060 0.210812 0.174445
v 0.482904 0.036368 0.000000
v 0.482904 0.334163 0.123351
v 0.323735 0.087461 -0.123351
v 0.323735 0.334163 0.123351
v 0.482904 0.087461 -0.123351
v 0.482904 0.385256 -0.000000
v 0.347579 0.210812 -0.174445
v 0.323735 0.385256 -0.000000
v 0.459060 0.210812 -0.174445
v 0.482904 0.334163 -0.123351
v 0.323735 0.334163 -0.123351
v 0.942904 0.087461 0.123351
v 0.807579 0.210812 0.174445
v 0.783735 0.087461 0.123351
v 0.783735 0.036368 0.000000
v 0.919060 0.210812 0.174445
v 0.942904 0.036368 0.000000
v 0.783735 0.334163 0.123351
v 0.783735 0.087461 -0.123351
v 0.942904 0.334163 0.123351
v 0.942904 0.087461 -0.123351
v 0.942904 0.385256 -0.000000
v 0.919060 0.210812 -0.174445
v 0.783735 0.385256 -0.000000
v 0.807579 0.210812 -0.174445
v 0.942904 0.334163 -0.123351
v 0.783735 0.334163 -0.123351
v 0.712904 0.087461 0.123351
v 0.577579 0.210812 0.174445
v 0.553735 0.087461 0.123351
v 0.553735 0.036368 0.000000
v 0.689060 0.210812 0.174445
v 0.712904 0.036368 0.000000
v 0.553735 0.334163 0.123351
v 0.553735 0.087461 -0.123351
v 0.712904 0.334163 0.123351
v 0.712904 0.087461 -0.123351
v 0.712904 0.385256 -0.000000
v 0.689060 0.210812 -0.174445
v 0.553735 0.385256 -0.000000
v 0.577579 0.210812 -0.174445
v 0.712904 0.334163 -0.123351
v 0.553735 0.334163 -0.123351
v 0.347579 0.210812 -0.174445
v 0.347579 0.210812 0.174445
v 0.323735 0.334163 -0.123351
v 0.323735 0.334163 0.123351
v 0.323735 0.385256 -0.000000
v 0.323735 0.036368 0.000000
v 0.323735 0.087461 0.123351
v 0.323735 0.087461 -0.123351
v 0.063991 0.315286 -0.277304
v 0.063991 -0.354183 0.000000
v 0.063991 -0.239320 -0.277304
v 0.063991 0.037984 -0.392167
v 0.063991 0.430150 -0.000000
v 0.063991 0.315286 0.277304
v 0.063991 -0.239320 0.277304
v 0.063991 0.037984 0.392167
v -0.767904 0.405091 -0.053188
v -0.116454 0.405091 -0.053188
v -0.116454 0.405091 0.053188
v -0.767904 0.405091 0.053188
v -0.063073 0.405091 0.053188
v -0.063073 0.405091 -0.053188
v -0.009692 0.405091 0.053188
v -0.009692 0.405091 -0.053188
v 0.043689 0.405091 0.053188
v 0.043689 0.405091 -0.053188
v 0.043689 0.451894 0.053188
v 0.043689 0.405091 -0.053188
v 0.043689 0.451894 -0.053188
v 0.043689 0.405091 0.053188
v -0.734463 0.473506 -0.043655
v -0.433492 0.473506 -0.043655
v -0.433492 0.473506 0.043655
v -0.734463 0.473506 0.043655
v 0.577579 0.210812 -0.174445
v 0.577579 0.210812 0.174445
v 0.553735 0.334163 -0.123351
v 0.553735 0.334163 0.123351
v 0.553735 0.385256 -0.000000
v 0.553735 0.036368 0.000000
v 0.553735 0.087461 0.123351
v 0.553735 0.087461 -0.123351
v 0.807579 0.210812 -0.174445
v 0.807579 0.210812 0.174445
v 0.783735 0.334163 -0.123351
v 0.783735 0.334163 0.123351
v 0.783735 0.385256 -0.000000
v 0.783735 0.036368 0.000000
v 0.783735 0.087461 0.123351
v 0.783735 0.087461 -0.123351
vn -1.0000 -0.0000 -0.0000
vn 1.0000 -0.0000 -0.0000
vn 0.9867 0.1628 -0.0000
vn 0.9867 -0.1628 -0.0000
vn 0.9867 -0.1627 -0.0000
vn 0.1995 0.9799 -0.0000
vn 0.7121 0.7021 -0.0000
vn 0.8399 0.5427 -0.0000
vn -0.2353 0.9719 -0.0000
vn -0.2354 0.9719 -0.0000
vn -0.8961 0.4438 -0.0000
vn -0.9700 0.2430 -0.0000
vn 0.2204 0.9754 -0.0000
vn 0.2969 0.9549 -0.0000
vn 0.1223 0.9925 -0.0000
vn 0.0440 0.9990 -0.0000
vn 0.0439 0.9990 -0.0000
vn -0.0000 1.0000 -0.0000
vn -0.9867 -0.1628 -0.0000
vn -0.9867 -0.1627 -0.0000
vn -0.9867 0.1628 -0.0000
vn -0.0000 -0.0000 1.0000
vn -0.0000 -0.0000 -1.0000
vn -0.0000 -0.7294 0.6841
vn -0.0000 -1.0000 -0.0000
vn -0.0000 0.7294 0.6841
vn -0.0000 -0.7294 -0.6841
vn -0.0000 0.7294 -0.6841
vn -0.0000 -0.7344 0.6787
vn -0.0000 0.7344 0.6787
vn -0.0000 -0.7344 -0.6787
vn -0.0000 0.7344 -0.6787
vt 0.000000 0.000000
s 1
f 1/1/1 2/1/1 3/1/1
f 1/1/1 3/1/1 4/1/1
f 5/1/2 6/1/3 7/1/3
f 6/1/3 5/1/2 8/1/2
f 6/1/3 8/1/2 9/1/3
f 5/1/2 10/1/4 8/1/2
f 11/1/4 10/1/4 5/1/2
f 10/1/4 11/1/4 12/1/5
f 13/1/2 14/1/3 15/1/3
f 14/1/3 13/1/2 16/1/2
f 14/1/3 16/1/2 17/1/3
f 13/1/2 18/1/4 16/1/2
f 19/1/4 18/1/4 13/1/2
f 18/1/4 19/1/4 20/1/5
f 21/1/1 22/1/1 23/1/1
f 24/1/1 22/1/1 21/1/1
f 22/1/1 24/1/1 25/1/1
f 24/1/1 26/1/1 25/1/1
f 26/1/1 24/1/1 27/1/1
f 26/1/1 27/1/1 28/1/1
f 29/1/2 30/1/3 31/1/3
f 30/1/3 29/1/2 32/1/2
f 30/1/3 32/1/2 33/1/3
f 29/1/2 34/1/4 32/1/2
f 35/1/4 34/1/4 29/1/2
f 34/1/4 35/1/4 36/1/5
f 37/1/6 38/1/6 39/1/7
f 39/1/7 38/1/6 40/1/7
f 40/1/7 41/1/8 39/1/7
f 41/1/8 40/1/7 42/1/8
f 37/1/6 43/1/9 38/1/6
f 37/1/6 44/1/10 43/1/9
f 44/1/10 45/1/11 43/1/9
f 46/1/11 45/1/11 44/1/10
f 46/1/11 47/1/12 45/1/11
f 48/1/12 47/1/12 46/1/11
f 49/1/13 50/1/13 51/1/14
f 51/1/14 50/1/13 52/1/14
f 49/1/13 53/1/15 50/1/13
f 54/1/15 53/1/15 49/1/13
f 54/1/15 55/1/16 53/1/15
f 56/1/17 55/1/16 54/1/15
f 56/1/17 57/1/18 55/1/16
f 56/1/17 58/1/18 57/1/18
f 59/1/1 60/1/1 61/1/19
f 62/1/19 61/1/19 60/1/1
f 61/1/19 62/1/19 63/1/20
f 64/1/21 60/1/1 59/1/1
f 60/1/1 64/1/21 65/1/21
f 64/1/21 59/1/1 66/1/21
f 67/1/22 68/1/22 69/1/22
f 70/1/22 69/1/22 68/1/22
f 69/1/22 71/1/22 67/1/22
f 71/1/22 69/1/22 72/1/22
f 72/1/22 73/1/22 71/1/22
f 73/1/22 72/1/22 74/1/22
f 74/1/22 75/1/22 73/1/22
f 75/1/22 74/1/22 76/1/22
f 77/1/23 78/1/23 79/1/23
f 78/1/23 77/1/23 80/1/23
f 81/1/23 79/1/23 78/1/23
f 79/1/23 81/1/23 82/1/23
f 83/1/23 82/1/23 81/1/23
f 82/1/23 83/1/23 84/1/23
f 85/1/23 84/1/23 83/1/23
f 84/1/23 85/1/23 86/1/23
f 87/1/23 88/1/23 89/1/23
f 89/1/23 88/1/23 90/1/23
f 88/1/23 87/1/23 91/1/23
f 91/1/23 87/1/23 92/1/23
f 93/1/22 94/1/22 95/1/22
f 93/1/22 95/1/22 96/1/22
f 97/1/22 94/1/22 93/1/22
f 94/1/22 97/1/22 98/1/22
f 99/1/24 100/1/24 101/1/22
f 102/1/25 100/1/24 99/1/24
f 99/1/24 101/1/22 103/1/22
f 102/1/25 104/1/25 100/1/24
f 103/1/22 101/1/22 105/1/26
f 106/1/27 104/1/25 102/1/25
f 103/1/22 105/1/26 107/1/26
f 106/1/27 108/1/27 104/1/25
f 109/1/18 107/1/26 105/1/26
f 110/1/23 108/1/27 106/1/27
f 111/1/18 107/1/26 109/1/18
f 110/1/23 112/1/23 108/1/27
f 113/1/28 111/1/18 109/1/18
f 114/1/28 112/1/23 110/1/23
f 114/1/28 111/1/18 113/1/28
f 114/1/28 113/1/28 112/1/23
f 115/1/2 116/1/3 117/1/3
f 116/1/3 115/1/2 118/1/2
f 116/1/3 118/1/2 119/1/3
f 115/1/2 120/1/4 118/1/2
f 121/1/4 120/1/4 115/1/2
f 120/1/4 121/1/4 122/1/5
f 123/1/29 124/1/22 125/1/29
f 126/1/25 123/1/29 125/1/29
f 124/1/22 123/1/29 127/1/22
f 126/1/25 128/1/25 123/1/29
f 127/1/22 129/1/30 124/1/22
f 130/1/31 128/1/25 126/1/25
f 129/1/30 127/1/22 131/1/30
f 130/1/31 132/1/31 128/1/25
f 133/1/18 129/1/30 131/1/30
f 130/1/31 134/1/23 132/1/31
f 135/1/18 129/1/30 133/1/18
f 134/1/23 130/1/31 136/1/23
f 137/1/32 135/1/18 133/1/18
f 136/1/23 137/1/32 134/1/23
f 138/1/32 135/1/18 137/1/32
f 137/1/32 136/1/23 138/1/32
f 139/1/29 140/1/22 141/1/29
f 142/1/25 139/1/29 141/1/29
f 140/1/22 139/1/29 143/1/22
f 142/1/25 144/1/25 139/1/29
f 145/1/30 140/1/22 143/1/22
f 146/1/31 144/1/25 142/1/25
f 145/1/30 147/1/30 140/1/22
f 146/1/31 148/1/31 144/1/25
f 149/1/18 147/1/30 145/1/30
f 148/1/31 146/1/31 150/1/23
f 151/1/18 147/1/30 149/1/18
f 148/1/31 150/1/23 152/1/23
f 153/1/32 151/1/18 149/1/18
f 150/1/23 153/1/32 152/1/23
f 154/1/32 151/1/18 153/1/32
f 153/1/32 150/1/23 154/1/32
f 155/1/29 156/1/22 157/1/29
f 158/1/25 155/1/29 157/1/29
f 156/1/22 155/1/29 159/1/22
f 158/1/25 160/1/25 155/1/29
f 159/1/22 161/1/30 156/1/22
f 162/1/31 160/1/25 158/1/25
f 161/1/30 159/1/22 163/1/30
f 162/1/31 164/1/31 160/1/25
f 165/1/18 161/1/30 163/1/30
f 162/1/31 166/1/23 164/1/31
f 161/1/30 165/1/18 167/1/18
f 166/1/23 162/1/31 168/1/23
f 169/1/32 167/1/18 165/1/18
f 168/1/23 169/1/32 166/1/23
f 167/1/18 169/1/32 170/1/32
f 169/1/32 168/1/23 170/1/32
f 171/1/29 172/1/22 173/1/29
f 174/1/25 171/1/29 173/1/29
f 172/1/22 171/1/29 175/1/22
f 174/1/25 176/1/25 171/1/29
f 175/1/22 177/1/30 172/1/22
f 178/1/31 176/1/25 174/1/25
f 177/1/30 175/1/22 179/1/30
f 178/1/31 180/1/31 176/1/25
f 181/1/18 177/1/30 179/1/30
f 178/1/31 182/1/23 180/1/31
f 177/1/30 181/1/18 183/1/18
f 182/1/23 178/1/31 184/1/23
f 185/1/32 183/1/18 181/1/18
f 184/1/23 185/1/32 182/1/23
f 183/1/18 185/1/32 186/1/32
f 185/1/32 184/1/23 186/1/32
f 187/1/1 188/1/1 189/1/19
f 190/1/19 189/1/19 188/1/1
f 189/1/19 190/1/19 191/1/20
f 192/1/21 188/1/1 187/1/1
f 188/1/1 192/1/21 193/1/21
f 192/1/21 187/1/1 194/1/21
f 195/1/2 196/1/2 197/1/2
f 195/1/2 197/1/2 198/1/2
f 199/1/2 196/1/2 195/1/2
f 200/1/2 196/1/2 199/1/2
f 196/1/2 200/1/2 201/1/2
f 201/1/2 200/1/2 202/1/2
f 203/1/25 204/1/25 205/1/25
f 203/1/25 205/1/25 206/1/25
f 204/1/25 207/1/25 205/1/25
f 208/1/25 207/1/25 204/1/25
f 208/1/25 209/1/25 207/1/25
f 210/1/25 209/1/25 208/1/25
f 210/1/25 211/1/25 209/1/25
f 212/1/25 211/1/25 210/1/25
f 213/1/2 214/1/2 215/1/2
f 214/1/2 213/1/2 216/1/2
f 217/1/25 218/1/25 219/1/25
f 217/1/25 219/1/25 220/1/25
f 221/1/1 222/1/1 223/1/19
f 224/1/19 223/1/19 222/1/1
f 223/1/19 224/1/19 225/1/20
f 226/1/21 222/1/1 221/1/1
f 222/1/1 226/1/21 227/1/21
f 226/1/21 221/1/1 228/1/21
f 229/1/1 230/1/1 231/1/19
f 232/1/19 231/1/19 230/1/1
f 231/1/19 232/1/19 233/1/20
f 234/1/21 230/1/1 229/1/1
f 230/1/1 234/1/21 235/1/21
f 234/1/21 229/1/1 236/1/21
