# Blender 5.2.0 LTS
# www.blender.org
mtllib skull grenade bodyyyyyy.mtl
o body_skull_grenade
v -0.766437 -0.057093 -0.135751
v -0.766437 -0.057093 0.135752
v -0.766437 0.041913 -0.135751
v -0.766437 -0.210239 -0.135751
v -0.766437 0.041913 0.135752
v -0.766437 0.132903 0.100644
v -0.766437 0.132903 -0.100643
v -0.766437 -0.210239 0.135752
v -0.766437 -0.283386 0.135752
v -0.766437 -0.283386 -0.135751
v -0.766437 -0.374377 -0.100643
v -0.766437 -0.374377 0.100644
v 0.662628 0.418157 -0.113443
v 0.577293 0.418157 -0.113443
v 0.577293 0.418157 -0.052740
v 0.662628 0.418157 -0.052740
v 0.662628 0.418157 0.052740
v 0.577293 0.418157 0.052740
v 0.662628 0.418157 0.113443
v 0.577293 0.418157 0.113443
v 0.816437 0.203590 -0.230591
v 0.816437 0.203590 0.230591
v 0.816437 -0.027002 -0.326105
v 0.816437 0.299104 -0.000000
v 0.816437 -0.027002 0.326105
v 0.816437 -0.257594 0.230591
v 0.816437 -0.257594 -0.230591
v 0.816437 -0.353108 0.000000
v 0.662628 -0.219903 -0.192902
v 0.662628 -0.219903 0.192902
v 0.662628 -0.299806 0.000000
v 0.662628 0.165901 0.192902
v 0.662628 -0.027002 0.272805
v 0.662628 0.245802 -0.000000
v 0.662628 0.165901 -0.192902
v 0.662628 -0.027002 -0.272805
v 0.662628 0.153573 -0.113443
v 0.662628 0.418157 -0.113443
v 0.662628 0.418157 -0.052740
v 0.662628 0.153573 -0.052740
v 0.662628 0.418157 0.052740
v 0.662628 0.153573 0.113443
v 0.662628 0.153573 0.052740
v 0.662628 0.418157 0.113443
v 0.632508 -0.394157 -0.112686
v 0.632508 -0.394157 -0.075601
v 0.607413 -0.394157 -0.112686
v 0.607413 -0.394157 -0.075601
v 0.657184 -0.378864 -0.075601
v 0.582737 -0.378864 -0.112686
v 0.657184 -0.378864 -0.112686
v 0.582737 -0.378864 -0.075601
v 0.662628 -0.359186 -0.075601
v 0.577293 -0.359186 -0.112686
v 0.662628 -0.359186 -0.112686
v 0.662628 -0.345026 -0.112686
v 0.662628 -0.345026 -0.075601
v 0.577293 -0.359186 -0.075601
v 0.577293 -0.345026 -0.075601
v 0.577293 -0.345026 -0.112686
v 0.632508 -0.394157 0.074314
v 0.632508 -0.394157 0.111398
v 0.607413 -0.394157 0.074314
v 0.607413 -0.394157 0.111398
v 0.657184 -0.378864 0.111398
v 0.582737 -0.378864 0.074314
v 0.657184 -0.378864 0.074314
v 0.582737 -0.378864 0.111398
v 0.662628 -0.359186 0.111398
v 0.577293 -0.359186 0.074314
v 0.662628 -0.359186 0.074314
v 0.662628 -0.345026 0.074314
v 0.662628 -0.345026 0.111398
v 0.577293 -0.359186 0.111398
v 0.577293 -0.345026 0.111398
v 0.577293 -0.345026 0.074314
v 0.662628 -0.345026 -0.153140
v 0.662628 -0.345026 0.153140
v 0.577293 -0.345026 -0.153140
v 0.577293 -0.345026 0.153140
v 0.577293 -0.359186 0.190226
v 0.662628 -0.359186 0.190225
v 0.577293 -0.216446 0.190225
v 0.662628 -0.216446 0.190225
v 0.582737 -0.378864 0.190226
v 0.657184 -0.378864 0.190225
v 0.607413 -0.394157 0.190226
v 0.632508 -0.394157 0.190225
v 0.662628 -0.216446 -0.190225
v 0.577293 -0.359186 -0.190225
v 0.577293 -0.216446 -0.190225
v 0.662628 -0.359186 -0.190225
v 0.657184 -0.378864 -0.190225
v 0.582737 -0.378864 -0.190225
v 0.632508 -0.394157 -0.190225
v 0.607413 -0.394157 -0.190225
v 0.169823 0.225392 -0.000000
v 0.169823 -0.005527 0.104611
v 0.169823 0.185773 0.104611
v 0.169823 0.090123 0.147942
v 0.169823 -0.005527 -0.104611
v 0.169823 0.185773 -0.104611
v 0.169823 0.090123 -0.147942
v 0.169823 -0.110761 0.000000
v 0.169823 -0.071140 0.104611
v 0.169823 -0.071140 -0.104611
v 0.662628 -0.345026 0.153140
v 0.662628 -0.216446 -0.190225
v 0.662628 -0.216446 0.190225
v 0.662628 -0.359186 0.190225
v 0.662628 -0.345026 -0.153140
v 0.662628 -0.359186 0.153140
v 0.662628 -0.359186 -0.190225
v 0.657184 -0.378864 0.190225
v 0.662628 -0.359186 -0.153140
v 0.657184 -0.378864 0.153140
v 0.657184 -0.378864 -0.190225
v 0.632508 -0.394157 0.190225
v 0.657184 -0.378864 -0.153140
v 0.632508 -0.394157 0.153140
v 0.632508 -0.394157 -0.190225
v 0.607413 -0.394157 0.153140
v 0.632508 -0.394157 -0.153140
v 0.607413 -0.394157 0.190226
v 0.607413 -0.394157 -0.190225
v 0.582737 -0.378864 0.190226
v 0.607413 -0.394157 -0.153140
v 0.582737 -0.378864 0.153140
v 0.582737 -0.378864 -0.190225
v 0.577293 -0.359186 0.190226
v 0.582737 -0.378864 -0.153140
v 0.577293 -0.359186 0.153140
v 0.577293 -0.359186 -0.190225
v 0.577293 -0.345026 0.153140
v 0.577293 -0.359186 -0.153140
v 0.577293 -0.216446 0.190225
v 0.577293 -0.345026 -0.153140
v 0.577293 -0.216446 -0.190225
v 0.662628 0.418157 0.113443
v 0.577293 0.153573 0.113443
v 0.662628 0.153573 0.113443
v 0.577293 0.418157 0.113443
v 0.662628 0.418157 -0.113443
v 0.577293 0.153573 -0.113443
v 0.577293 0.418157 -0.113443
v 0.662628 0.153573 -0.113443
v 0.582737 -0.378864 -0.112686
v 0.657184 -0.378864 -0.112686
v 0.632508 -0.394157 -0.112686
v 0.607413 -0.394157 -0.112686
v 0.577293 -0.359186 -0.112686
v 0.662628 -0.359186 -0.112686
v 0.577293 -0.345026 -0.112686
v 0.662628 -0.345026 -0.112686
v 0.577293 -0.359186 0.111398
v 0.607413 -0.394157 0.111398
v 0.662628 -0.359186 0.111398
v 0.582737 -0.378864 0.111398
v 0.632508 -0.394157 0.111398
v 0.657184 -0.378864 0.111398
v 0.662628 -0.345026 0.111398
v 0.577293 -0.345026 0.111398
v 0.662628 -0.219903 0.192902
v 0.662628 -0.027002 0.272805
v 0.577293 -0.219903 0.192902
v 0.577293 -0.027002 0.272805
v 0.577293 -0.299806 0.000000
v 0.662628 0.165901 0.192902
v 0.662628 -0.299806 0.000000
v 0.577293 0.165901 0.192902
v 0.577293 -0.219903 -0.192902
v 0.662628 0.245802 -0.000000
v 0.662628 -0.219903 -0.192902
v 0.577293 0.245802 -0.000000
v 0.577293 -0.027002 -0.272805
v 0.662628 0.165901 -0.192902
v 0.662628 -0.027002 -0.272805
v 0.577293 0.165901 -0.192902
v -0.766437 0.041913 0.135752
v -0.637838 0.041913 0.135752
v -0.637838 0.132903 0.100644
v -0.637838 -0.057093 0.135752
v -0.766437 0.132903 0.100644
v -0.766437 -0.057093 0.135752
v -0.637838 0.132903 -0.100643
v -0.637838 -0.210239 0.135752
v -0.766437 0.132903 -0.100643
v -0.766437 -0.210239 0.135752
v -0.637838 0.041913 -0.135751
v -0.637838 -0.283386 0.135752
v -0.766437 0.041913 -0.135751
v -0.766437 -0.283386 0.135752
v -0.766437 -0.057093 -0.135751
v -0.766437 -0.374377 0.100644
v -0.637838 -0.057093 -0.135751
v -0.637838 -0.374377 0.100644
v -0.766437 -0.210239 -0.135751
v -0.766437 -0.374377 -0.100643
v -0.637838 -0.210239 -0.135751
v -0.637838 -0.374377 -0.100643
v -0.766437 -0.283386 -0.135751
v -0.637838 -0.283386 -0.135751
v 0.577293 0.418157 -0.052740
v 0.577293 0.153573 -0.052740
v 0.662628 0.153573 -0.052740
v 0.662628 0.418157 -0.052740
v 0.662628 0.418157 0.052740
v 0.662628 0.153573 0.052740
v 0.577293 0.418157 0.052740
v 0.577293 0.153573 0.052740
v 0.577293 -0.359186 -0.075601
v 0.607413 -0.394157 -0.075601
v 0.662628 -0.359186 -0.075601
v 0.582737 -0.378864 -0.075601
v 0.632508 -0.394157 -0.075601
v 0.657184 -0.378864 -0.075601
v 0.662628 -0.345026 -0.075601
v 0.577293 -0.345026 -0.075601
v 0.582737 -0.378864 0.074314
v 0.657184 -0.378864 0.074314
v 0.632508 -0.394157 0.074314
v 0.607413 -0.394157 0.074314
v 0.577293 -0.359186 0.074314
v 0.662628 -0.359186 0.074314
v 0.577293 -0.345026 0.074314
v 0.662628 -0.345026 0.074314
v 0.254659 -0.110761 0.000000
v 0.254659 -0.005527 -0.104611
v 0.254659 -0.005527 0.104611
v 0.254659 -0.071140 -0.104611
v 0.254659 -0.071140 0.104611
v 0.254659 0.185772 -0.104611
v 0.254659 0.090123 -0.147942
v 0.254659 0.225392 -0.000000
v 0.254659 0.185772 0.104611
v 0.254659 0.090123 0.147942
v 0.662936 -0.257594 0.230591
v 0.816437 -0.257594 0.230591
v 0.816437 -0.027002 0.326105
v 0.662936 -0.353108 0.000000
v 0.662936 -0.027002 0.326105
v 0.816437 -0.353108 0.000000
v 0.816437 0.203590 0.230591
v 0.662936 -0.257594 -0.230591
v 0.662936 0.203590 0.230591
v 0.816437 -0.257594 -0.230591
v 0.816437 0.299104 -0.000000
v 0.662936 -0.027002 -0.326105
v 0.662936 0.299104 -0.000000
v 0.816437 -0.027002 -0.326105
v 0.816437 0.203590 -0.230591
v 0.662936 0.203590 -0.230591
v 0.254659 0.185772 -0.104611
v 0.169823 0.185773 -0.104611
v 0.254659 0.225392 -0.000000
v 0.169823 0.225392 -0.000000
v 0.169823 0.090123 -0.147942
v 0.254659 0.185772 0.104611
v 0.254659 0.090123 -0.147942
v 0.169823 0.185773 0.104611
v 0.169823 -0.005527 -0.104611
v 0.169823 0.090123 0.147942
v 0.254659 -0.005527 -0.104611
v 0.254659 0.090123 0.147942
v 0.254659 -0.071140 -0.104611
v 0.254659 -0.005527 0.104611
v 0.169823 -0.071140 -0.104611
v 0.169823 -0.005527 0.104611
v 0.169823 -0.110761 0.000000
v 0.169823 -0.071140 0.104611
v 0.254659 -0.110761 0.000000
v 0.254659 -0.071140 0.104611
v 0.662628 -0.359186 -0.153140
v 0.577293 -0.359186 -0.153140
v 0.632508 -0.394157 -0.153140
v 0.657184 -0.378864 -0.153140
v 0.607413 -0.394157 -0.153140
v 0.582737 -0.378864 -0.153140
v 0.662628 -0.345026 -0.153140
v 0.577293 -0.345026 -0.153140
v 0.662628 -0.345026 0.153140
v 0.577293 -0.359186 0.153140
v 0.577293 -0.345026 0.153140
v 0.662628 -0.359186 0.153140
v 0.632508 -0.394157 0.153140
v 0.657184 -0.378864 0.153140
v 0.607413 -0.394157 0.153140
v 0.582737 -0.378864 0.153140
v 0.577293 -0.219903 -0.192902
v 0.577293 0.165901 -0.192902
v 0.577293 -0.027002 -0.272805
v 0.577293 0.245802 -0.000000
v 0.577293 -0.219903 0.192902
v 0.577293 -0.299806 0.000000
v 0.577293 0.165901 0.192902
v 0.577293 -0.027002 0.272805
v 0.577293 0.418157 -0.113443
v 0.577293 0.153573 -0.113443
v 0.577293 0.153573 -0.052740
v 0.577293 0.418157 -0.052740
v 0.577293 0.153573 0.113443
v 0.577293 0.418157 0.113443
v 0.577293 0.153573 0.052740
v 0.577293 0.418157 0.052740
v 0.662936 -0.257594 -0.230591
v 0.662936 -0.257594 0.230591
v 0.662936 -0.027002 -0.326105
v 0.662936 -0.353108 0.000000
v 0.662936 -0.027002 0.326105
v 0.662936 0.203590 0.230591
v 0.662936 0.203590 -0.230591
v 0.662936 0.299104 -0.000000
v -0.637838 0.041913 -0.135751
v -0.637838 0.041913 0.135752
v -0.637838 -0.057093 -0.135751
v -0.637838 0.132903 -0.100643
v -0.637838 0.132903 0.100644
v -0.637838 -0.057093 0.135752
v -0.637838 -0.210239 0.135752
v -0.637838 -0.210239 -0.135751
v -0.637838 -0.283386 -0.135751
v -0.637838 -0.283386 0.135752
v -0.637838 -0.374377 -0.100643
v -0.637838 -0.374377 0.100644
vn -1.0000 -0.0000 -0.0000
vn -0.0000 1.0000 -0.0000
vn 1.0000 -0.0000 -0.0000
vn 0.1919 -0.9814 -0.0000
vn -0.1919 -0.9814 -0.0000
vn 0.7408 -0.6717 -0.0000
vn -0.7408 -0.6717 -0.0000
vn 0.9906 -0.1368 -0.0000
vn -0.9906 -0.1368 -0.0000
vn 0.9906 -0.1367 -0.0000
vn -0.0000 -1.0000 -0.0000
vn -0.0000 -0.0000 1.0000
vn -0.0000 -0.0001 1.0000
vn -0.0000 -0.0000 -1.0000
vn -0.9906 -0.1367 -0.0000
vn -0.0000 -0.7071 0.7071
vn -0.0000 0.7071 0.7071
vn -0.0000 -0.7071 -0.7071
vn -0.0000 0.7071 -0.7071
vn -0.0000 0.1831 0.9831
vn -0.0000 0.8246 0.5657
vn -0.0000 0.8246 -0.5657
vn -0.0000 0.1831 -0.9831
vn -0.0000 -0.1831 0.9831
vn -0.0000 -0.8246 0.5657
vn -0.0000 -0.8246 -0.5657
vn -0.0000 -0.1831 -0.9831
vn -0.0000 0.7291 -0.6844
vn -0.0000 0.7291 0.6844
vn -0.0000 -0.2111 -0.9775
vn -0.0000 -0.5682 -0.8229
vn -0.0000 -0.2111 0.9775
vn -0.0000 -0.5682 0.8229
vt 0.000000 0.000000
s 1
f 1/1/1 2/1/1 3/1/1
f 2/1/1 1/1/1 4/1/1
f 3/1/1 2/1/1 5/1/1
f 3/1/1 5/1/1 6/1/1
f 6/1/1 7/1/1 3/1/1
f 4/1/1 8/1/1 2/1/1
f 4/1/1 9/1/1 8/1/1
f 10/1/1 9/1/1 4/1/1
f 11/1/1 9/1/1 10/1/1
f 9/1/1 11/1/1 12/1/1
f 13/1/2 14/1/2 15/1/2
f 13/1/2 15/1/2 16/1/2
f 17/1/2 18/1/2 19/1/2
f 18/1/2 20/1/2 19/1/2
f 21/1/3 22/1/3 23/1/3
f 22/1/3 21/1/3 24/1/3
f 25/1/3 23/1/3 22/1/3
f 23/1/3 25/1/3 26/1/3
f 26/1/3 27/1/3 23/1/3
f 27/1/3 26/1/3 28/1/3
f 29/1/3 30/1/3 31/1/3
f 30/1/3 32/1/3 33/1/3
f 32/1/3 30/1/3 34/1/3
f 29/1/3 34/1/3 30/1/3
f 34/1/3 29/1/3 35/1/3
f 35/1/3 29/1/3 36/1/3
f 37/1/3 38/1/3 39/1/3
f 37/1/3 39/1/3 40/1/3
f 41/1/3 42/1/3 43/1/3
f 42/1/3 41/1/3 44/1/3
f 45/1/4 46/1/4 47/1/5
f 47/1/5 46/1/4 48/1/5
f 45/1/4 49/1/6 46/1/4
f 47/1/5 48/1/5 50/1/7
f 51/1/6 49/1/6 45/1/4
f 50/1/7 48/1/5 52/1/7
f 51/1/6 53/1/8 49/1/6
f 50/1/7 52/1/7 54/1/9
f 53/1/8 51/1/6 55/1/8
f 56/1/3 53/1/8 55/1/8
f 53/1/8 56/1/3 57/1/3
f 54/1/9 52/1/7 58/1/9
f 54/1/9 58/1/9 59/1/1
f 59/1/1 60/1/1 54/1/9
f 61/1/4 62/1/4 63/1/5
f 63/1/5 62/1/4 64/1/5
f 61/1/4 65/1/6 62/1/4
f 63/1/5 64/1/5 66/1/7
f 67/1/6 65/1/6 61/1/4
f 66/1/7 64/1/5 68/1/7
f 67/1/6 69/1/8 65/1/6
f 66/1/7 68/1/7 70/1/9
f 69/1/8 67/1/6 71/1/10
f 72/1/3 69/1/8 71/1/10
f 69/1/8 72/1/3 73/1/3
f 70/1/9 68/1/7 74/1/9
f 70/1/9 74/1/9 75/1/1
f 75/1/1 76/1/1 70/1/9
f 77/1/11 78/1/11 79/1/11
f 79/1/11 78/1/11 80/1/11
f 81/1/12 82/1/12 83/1/12
f 82/1/12 84/1/12 83/1/12
f 82/1/12 81/1/12 85/1/12
f 82/1/12 85/1/12 86/1/12
f 86/1/12 85/1/12 87/1/12
f 86/1/12 87/1/12 88/1/13
f 89/1/14 90/1/14 91/1/14
f 90/1/14 89/1/14 92/1/14
f 90/1/14 92/1/14 93/1/14
f 90/1/14 93/1/14 94/1/14
f 94/1/14 93/1/14 95/1/14
f 94/1/14 95/1/14 96/1/14
f 97/1/1 98/1/1 99/1/1
f 99/1/1 98/1/1 100/1/1
f 98/1/1 97/1/1 101/1/1
f 101/1/1 97/1/1 102/1/1
f 101/1/1 102/1/1 103/1/1
f 104/1/1 98/1/1 101/1/1
f 98/1/1 104/1/1 105/1/1
f 104/1/1 101/1/1 106/1/1
f 107/1/3 108/1/3 109/1/3
f 107/1/3 109/1/3 110/1/10
f 108/1/3 107/1/3 111/1/3
f 110/1/10 112/1/10 107/1/3
f 113/1/10 108/1/3 111/1/3
f 112/1/10 110/1/10 114/1/6
f 113/1/10 111/1/3 115/1/10
f 114/1/6 116/1/6 112/1/10
f 115/1/10 117/1/6 113/1/10
f 116/1/6 114/1/6 118/1/4
f 117/1/6 115/1/10 119/1/6
f 120/1/4 116/1/6 118/1/4
f 117/1/6 119/1/6 121/1/4
f 118/1/4 122/1/5 120/1/4
f 121/1/4 119/1/6 123/1/4
f 122/1/5 118/1/4 124/1/5
f 121/1/4 123/1/4 125/1/5
f 122/1/5 124/1/5 126/1/7
f 125/1/5 123/1/4 127/1/5
f 128/1/7 122/1/5 126/1/7
f 125/1/5 127/1/5 129/1/7
f 128/1/7 126/1/7 130/1/9
f 129/1/7 127/1/5 131/1/7
f 130/1/9 132/1/15 128/1/7
f 129/1/7 131/1/7 133/1/9
f 130/1/9 134/1/1 132/1/15
f 133/1/9 131/1/7 135/1/9
f 134/1/1 130/1/9 136/1/1
f 137/1/1 133/1/9 135/1/9
f 136/1/1 137/1/1 134/1/1
f 133/1/9 137/1/1 138/1/1
f 136/1/1 138/1/1 137/1/1
f 139/1/12 140/1/12 141/1/12
f 140/1/12 139/1/12 142/1/12
f 143/1/14 144/1/14 145/1/14
f 144/1/14 143/1/14 146/1/14
f 147/1/14 148/1/14 149/1/14
f 147/1/14 149/1/14 150/1/14
f 151/1/14 148/1/14 147/1/14
f 151/1/14 152/1/14 148/1/14
f 153/1/14 152/1/14 151/1/14
f 153/1/14 154/1/14 152/1/14
f 155/1/12 156/1/12 157/1/12
f 156/1/12 155/1/12 158/1/12
f 157/1/12 156/1/12 159/1/12
f 157/1/12 159/1/12 160/1/12
f 155/1/12 157/1/12 161/1/12
f 155/1/12 161/1/12 162/1/12
f 163/1/16 164/1/12 165/1/16
f 165/1/16 164/1/12 166/1/12
f 167/1/11 163/1/16 165/1/16
f 164/1/12 168/1/17 166/1/12
f 169/1/11 163/1/16 167/1/11
f 166/1/12 168/1/17 170/1/17
f 171/1/18 169/1/11 167/1/11
f 172/1/2 170/1/17 168/1/17
f 173/1/18 169/1/11 171/1/18
f 170/1/17 172/1/2 174/1/2
f 175/1/14 173/1/18 171/1/18
f 176/1/19 174/1/2 172/1/2
f 177/1/14 173/1/18 175/1/14
f 174/1/2 176/1/19 178/1/19
f 176/1/19 177/1/14 178/1/19
f 178/1/19 177/1/14 175/1/14
f 179/1/20 180/1/20 181/1/21
f 182/1/12 180/1/20 179/1/20
f 179/1/20 181/1/21 183/1/21
f 184/1/12 182/1/12 179/1/20
f 185/1/22 183/1/21 181/1/21
f 186/1/12 182/1/12 184/1/12
f 187/1/22 183/1/21 185/1/22
f 188/1/12 186/1/12 184/1/12
f 189/1/23 187/1/22 185/1/22
f 186/1/12 188/1/12 190/1/24
f 187/1/22 189/1/23 191/1/23
f 192/1/24 190/1/24 188/1/12
f 189/1/23 193/1/14 191/1/23
f 194/1/25 190/1/24 192/1/24
f 193/1/14 189/1/23 195/1/14
f 190/1/24 194/1/25 196/1/25
f 195/1/14 197/1/14 193/1/14
f 198/1/26 196/1/25 194/1/25
f 197/1/14 195/1/14 199/1/14
f 200/1/26 196/1/25 198/1/26
f 199/1/14 201/1/27 197/1/14
f 201/1/27 200/1/26 198/1/26
f 201/1/27 199/1/14 202/1/27
f 201/1/27 202/1/27 200/1/26
f 203/1/12 204/1/12 205/1/12
f 205/1/12 206/1/12 203/1/12
f 207/1/14 208/1/14 209/1/14
f 209/1/14 208/1/14 210/1/14
f 211/1/12 212/1/12 213/1/12
f 212/1/12 211/1/12 214/1/12
f 213/1/12 212/1/12 215/1/12
f 213/1/12 215/1/12 216/1/12
f 211/1/12 213/1/12 217/1/12
f 211/1/12 217/1/12 218/1/12
f 219/1/14 220/1/14 221/1/14
f 219/1/14 221/1/14 222/1/14
f 223/1/14 220/1/14 219/1/14
f 223/1/14 224/1/14 220/1/14
f 225/1/14 224/1/14 223/1/14
f 225/1/14 226/1/14 224/1/14
f 227/1/3 228/1/3 229/1/3
f 228/1/3 227/1/3 230/1/3
f 227/1/3 229/1/3 231/1/3
f 232/1/3 228/1/3 233/1/3
f 234/1/3 228/1/3 232/1/3
f 228/1/3 234/1/3 229/1/3
f 229/1/3 234/1/3 235/1/3
f 235/1/3 236/1/3 229/1/3
f 237/1/16 238/1/16 239/1/12
f 240/1/11 238/1/16 237/1/16
f 237/1/16 239/1/12 241/1/12
f 240/1/11 242/1/11 238/1/16
f 241/1/12 239/1/12 243/1/17
f 244/1/18 242/1/11 240/1/11
f 241/1/12 243/1/17 245/1/17
f 244/1/18 246/1/18 242/1/11
f 247/1/2 245/1/17 243/1/17
f 248/1/14 246/1/18 244/1/18
f 245/1/17 247/1/2 249/1/2
f 248/1/14 250/1/14 246/1/18
f 251/1/19 249/1/2 247/1/2
f 252/1/19 250/1/14 248/1/14
f 249/1/2 251/1/19 252/1/19
f 252/1/19 251/1/19 250/1/14
f 253/1/28 254/1/28 255/1/2
f 254/1/28 256/1/2 255/1/2
f 253/1/28 257/1/14 254/1/28
f 255/1/2 256/1/2 258/1/29
f 257/1/14 253/1/28 259/1/14
f 256/1/2 260/1/29 258/1/29
f 259/1/14 261/1/30 257/1/14
f 262/1/12 258/1/29 260/1/29
f 261/1/30 259/1/14 263/1/30
f 258/1/29 262/1/12 264/1/12
f 263/1/30 265/1/31 261/1/30
f 262/1/12 266/1/32 264/1/12
f 261/1/30 265/1/31 267/1/31
f 266/1/32 262/1/12 268/1/32
f 265/1/31 269/1/11 267/1/31
f 270/1/33 266/1/32 268/1/32
f 269/1/11 265/1/31 271/1/11
f 271/1/11 270/1/33 269/1/11
f 270/1/33 272/1/33 266/1/32
f 270/1/33 271/1/11 272/1/33
f 273/1/12 274/1/12 275/1/12
f 273/1/12 275/1/12 276/1/12
f 274/1/12 277/1/12 275/1/12
f 277/1/12 274/1/12 278/1/12
f 274/1/12 273/1/12 279/1/12
f 274/1/12 279/1/12 280/1/12
f 281/1/14 282/1/14 283/1/14
f 284/1/14 282/1/14 281/1/14
f 282/1/14 284/1/14 285/1/14
f 285/1/14 284/1/14 286/1/14
f 282/1/14 285/1/14 287/1/14
f 282/1/14 287/1/14 288/1/14
f 289/1/1 290/1/1 291/1/1
f 290/1/1 289/1/1 292/1/1
f 292/1/1 289/1/1 293/1/1
f 293/1/1 289/1/1 294/1/1
f 292/1/1 293/1/1 295/1/1
f 295/1/1 293/1/1 296/1/1
f 297/1/1 298/1/1 299/1/1
f 297/1/1 299/1/1 300/1/1
f 301/1/1 302/1/1 303/1/1
f 304/1/1 303/1/1 302/1/1
f 305/1/1 306/1/1 307/1/1
f 306/1/1 305/1/1 308/1/1
f 309/1/1 307/1/1 306/1/1
f 307/1/1 309/1/1 310/1/1
f 310/1/1 311/1/1 307/1/1
f 311/1/1 310/1/1 312/1/1
f 313/1/3 314/1/3 315/1/3
f 316/1/3 314/1/3 313/1/3
f 314/1/3 316/1/3 317/1/3
f 315/1/3 314/1/3 318/1/3
f 319/1/3 315/1/3 318/1/3
f 315/1/3 319/1/3 320/1/3
f 319/1/3 321/1/3 320/1/3
f 322/1/3 321/1/3 319/1/3
f 322/1/3 323/1/3 321/1/3
f 323/1/3 322/1/3 324/1/3
